<?xml version="1.0" encoding="utf-8"?>
<!-- Generator: Adobe Illustrator 19.2.1, SVG Export Plug-In . SVG Version: 6.00 Build 0)  -->
<svg version="1.1" id="Layer_1" xmlns="http://www.w3.org/2000/svg" xmlns:xlink="http://www.w3.org/1999/xlink" x="0px" y="0px"
	 viewBox="0 0 154 155" style="enable-background:new 0 0 154 155;" xml:space="preserve">
<path id="Shape" d="M0.1,137.2L0,100.6c0-1.8,1.6-3,3.1-2.3L33,112.6c0.8,0.4,1.4,1.3,1.4,2.3l0.1,36.6c0,1.8-1.6,3-3.1,2.3
	L1.4,139.5C0.6,139.2,0.1,138.2,0.1,137.2L0.1,137.2z M68.5,102.4l-27.6,13.3l0.1,33.9l27.6-13.3L68.5,102.4L68.5,102.4z M69.6,97.9
	c1.2,0,2.2,1.1,2.3,2.5l0.1,36.6c0,1-0.5,1.9-1.4,2.3l-29.8,14.4c-0.3,0.1-0.6,0.2-0.9,0.2c-1.2,0-2.2-1.1-2.3-2.5l-0.1-36.6
	c0-1,0.5-1.9,1.4-2.3l29.8-14.4C69,98,69.3,97.9,69.6,97.9L69.6,97.9L69.6,97.9z M35.8,77.3L7.2,91.6l28.6,14.1l28.6-14.2L35.8,77.3
	L35.8,77.3z M35.7,73.4c0.3,0,0.6,0.1,0.9,0.2l31.4,15.5c1.8,0.9,1.8,3.7,0,4.6l-31.4,15.6c-0.3,0.1-0.6,0.2-0.9,0.2
	c-0.3,0-0.6-0.1-0.9-0.2L3.5,93.9c-1.8-0.9-1.8-3.7,0-4.6l31.4-15.6C35.1,73.5,35.4,73.4,35.7,73.4L35.7,73.4L35.7,73.4z"/>
<path id="Shape-Copy" d="M82.1,137.8L82,101.2c0-1.8,1.6-3,3.1-2.3l29.9,14.2c0.8,0.4,1.4,1.3,1.4,2.3l0.1,36.6c0,1.8-1.6,3-3.1,2.3
	l-29.9-14.2C82.6,139.7,82.1,138.8,82.1,137.8L82.1,137.8z M150.5,102.9l-27.6,13.3l0.1,33.9l27.6-13.3L150.5,102.9L150.5,102.9z
	 M151.6,98.5c1.2,0,2.2,1.1,2.3,2.5l0.1,36.6c0,1-0.5,1.9-1.4,2.3l-29.8,14.4c-0.3,0.1-0.6,0.2-0.9,0.2c-1.2,0-2.2-1.1-2.3-2.5
	l-0.1-36.6c0-1,0.5-1.9,1.4-2.3l29.8-14.4C151,98.6,151.3,98.5,151.6,98.5L151.6,98.5L151.6,98.5z M117.8,77.9L89.2,92.1l28.6,14.1
	L146.4,92L117.8,77.9L117.8,77.9z M117.7,74c0.3,0,0.6,0.1,0.9,0.2l31.4,15.5c1.8,0.9,1.8,3.7,0,4.6l-31.4,15.6
	c-0.3,0.1-0.6,0.2-0.9,0.2c-0.3,0-0.6-0.1-0.9-0.2L85.5,94.4c-1.8-0.9-1.8-3.7,0-4.6l31.4-15.6C117.1,74.1,117.4,74,117.7,74
	L117.7,74L117.7,74z"/>
<path id="Shape-Copy-2" d="M43.1,63.8L43,27.2c0-1.8,1.6-3,3.1-2.3L76,39.1c0.8,0.4,1.4,1.3,1.4,2.3l0.1,36.6c0,1.8-1.6,3-3.1,2.3
	L44.4,66.1C43.6,65.7,43.1,64.8,43.1,63.8L43.1,63.8z M111.5,28.9L83.9,42.2L84,76.1l27.6-13.3L111.5,28.9L111.5,28.9z M112.6,24.5
	c1.2,0,2.2,1.1,2.3,2.5l0.1,36.6c0,1-0.5,1.9-1.4,2.3L83.8,80.3c-0.3,0.1-0.6,0.2-0.9,0.2c-1.2,0-2.2-1.1-2.3-2.5l-0.1-36.6
	c0-1,0.5-1.9,1.4-2.3l29.8-14.4C112,24.6,112.3,24.5,112.6,24.5L112.6,24.5L112.6,24.5z M78.8,3.9L50.2,18.1l28.6,14.1L107.4,18
	L78.8,3.9L78.8,3.9z M78.7,0c0.3,0,0.6,0.1,0.9,0.2l31.4,15.5c1.8,0.9,1.8,3.7,0,4.6L79.7,35.9c-0.3,0.1-0.6,0.2-0.9,0.2
	c-0.3,0-0.6-0.1-0.9-0.2L46.5,20.4c-1.8-0.9-1.8-3.7,0-4.6L77.8,0.2C78.1,0.1,78.4,0,78.7,0L78.7,0L78.7,0z"/>
</svg>
