<?xml version="1.0" encoding="utf-8"?>
<!-- Generator: Adobe Illustrator 19.2.1, SVG Export Plug-In . SVG Version: 6.00 Build 0)  -->
<svg version="1.1" id="Layer_1" xmlns="http://www.w3.org/2000/svg" xmlns:xlink="http://www.w3.org/1999/xlink" x="0px" y="0px"
	 viewBox="0 0 18 20" style="enable-background:new 0 0 18 20;" xml:space="preserve">
<style type="text/css">
	.st0{fill:#330C37;}
</style>
<path id="Fill-109" class="st0" d="M16,8.5c0-3.1-2.1-5.6-5-6.3V1.5C11,0.7,10.3,0,9.5,0S8,0.7,8,1.5v0.7C5.1,2.9,3,5.4,3,8.5V14
	l-2,2v1h17v-1l-2-2V8.5L16,8.5z M9.5,20c0.1,0,0.3,0,0.4,0c0.7-0.1,1.2-0.6,1.4-1.2c0.1-0.2,0.2-0.5,0.2-0.8h-4
	C7.5,19.1,8.4,20,9.5,20L9.5,20z"/>
</svg>
