<?xml version="1.0" encoding="utf-8"?>
<!-- Generator: Adobe Illustrator 19.2.1, SVG Export Plug-In . SVG Version: 6.00 Build 0)  -->
<svg version="1.1" id="Layer_1" xmlns="http://www.w3.org/2000/svg" xmlns:xlink="http://www.w3.org/1999/xlink" x="0px" y="0px"
	 viewBox="0 0 20 20" style="enable-background:new 0 0 20 20;" xml:space="preserve">
<style type="text/css">
	.st0{fill:#320B37;}
</style>
<path id="Shape" class="st0" d="M0,15.8l0-9.1C0,6.3,0.5,6,0.9,6.2l8.3,3.5c0.2,0.1,0.4,0.3,0.4,0.6l0,9.1c0,0.4-0.5,0.7-0.9,0.6
	l-8.3-3.5C0.2,16.3,0,16.1,0,15.8L0,15.8z M19,7.2l-7.7,3.3l0,8.4l7.7-3.3L19,7.2L19,7.2z M19.4,6.1c0.3,0,0.6,0.3,0.6,0.6l0,9.1
	c0,0.2-0.1,0.5-0.4,0.6l-8.3,3.6c-0.1,0-0.2,0.1-0.2,0.1c-0.3,0-0.6-0.3-0.6-0.6l0-9.1c0-0.2,0.1-0.5,0.4-0.6l8.3-3.6
	C19.2,6.1,19.3,6.1,19.4,6.1L19.4,6.1L19.4,6.1z M9.9,1L2,4.5L10,8l7.9-3.5L9.9,1L9.9,1z M9.9,0c0.1,0,0.2,0,0.3,0.1l8.7,3.8
	c0.5,0.2,0.5,0.9,0,1.1l-8.7,3.9c-0.1,0-0.2,0.1-0.3,0.1c-0.1,0-0.2,0-0.3-0.1L1,5.1C0.5,4.8,0.5,4.1,1,3.9l8.7-3.9
	C9.8,0,9.9,0,9.9,0L9.9,0L9.9,0z"/>
</svg>
