<?xml version="1.0" encoding="utf-8"?>
<!-- Generator: Adobe Illustrator 19.2.1, SVG Export Plug-In . SVG Version: 6.00 Build 0)  -->
<svg version="1.1" id="Layer_1" xmlns="http://www.w3.org/2000/svg" xmlns:xlink="http://www.w3.org/1999/xlink" x="0px" y="0px"
	 viewBox="0 0 46 42" style="enable-background:new 0 0 46 42;" xml:space="preserve">
<style type="text/css">
	.st0{fill:#330C37;}
</style>
<path id="Shape" class="st0" d="M6,6V0h4v6h6v4h-6v6H6v-6H0V6H6L6,6z M12,18v-6h6V6h14l3.7,4H42c2.2,0,4,1.8,4,4v24c0,2.2-1.8,4-4,4
	H10c-2.2,0-4-1.8-4-4V18H12L12,18z M26,36c5.5,0,10-4.5,10-10c0-5.5-4.5-10-10-10s-10,4.5-10,10C16,31.5,20.5,36,26,36L26,36z
	 M19.6,26c0,3.5,2.9,6.4,6.4,6.4s6.4-2.9,6.4-6.4c0-3.5-2.9-6.4-6.4-6.4S19.6,22.5,19.6,26L19.6,26z"/>
</svg>
