<?xml version="1.0" encoding="utf-8"?>
<!-- Generator: Adobe Illustrator 19.2.1, SVG Export Plug-In . SVG Version: 6.00 Build 0)  -->
<svg version="1.1" id="Layer_1" xmlns="http://www.w3.org/2000/svg" xmlns:xlink="http://www.w3.org/1999/xlink" x="0px" y="0px"
	 viewBox="0 0 40 22" style="enable-background:new 0 0 40 22;" xml:space="preserve">
<style type="text/css">
	.st0{fill:#FF4A46;}
</style>
<path id="Shape" class="st0" d="M14.8,15.3c-1.8,0-3.3,1.5-3.3,3.2c0,1.8,1.5,3.2,3.3,3.2s3.3-1.5,3.3-3.2
	C18.2,16.8,16.7,15.3,14.8,15.3L14.8,15.3z M14.8,20.2c-0.9,0-1.7-0.7-1.7-1.6c0-0.9,0.7-1.6,1.7-1.6c0.9,0,1.7,0.7,1.7,1.6
	C16.5,19.4,15.7,20.2,14.8,20.2L14.8,20.2z M40,12.9v3.5c0,0.9-0.7,1.6-1.6,1.6h-1.7c-0.3-2.1-2.2-3.7-4.4-3.7
	c-2.2,0-4.1,1.6-4.4,3.7h-8.7c-0.3-2.1-2.2-3.7-4.4-3.7s-4.1,1.6-4.4,3.7H8.3c-0.9,0-1.6-0.7-1.6-1.6v-3.5H40L40,12.9L40,12.9z
	 M32.3,15.3c-1.8,0-3.3,1.5-3.3,3.2c0,1.8,1.5,3.2,3.3,3.2c1.8,0,3.3-1.5,3.3-3.2C35.6,16.8,34.1,15.3,32.3,15.3L32.3,15.3z
	 M32.3,20.2c-0.9,0-1.7-0.7-1.7-1.6c0-0.9,0.7-1.6,1.7-1.6c0.9,0,1.7,0.7,1.7,1.6C34,19.4,33.2,20.2,32.3,20.2L32.3,20.2z M39.4,9.4
	L33,3.4c-0.4-0.4-0.9-0.6-1.5-0.6h-3.2V1.6c0-0.9-0.7-1.6-1.6-1.6H8.3C7.4,0,6.7,0.7,6.7,1.6v0.2L0.2,2.6L11.7,4L0,5.2l11.7,1.6
	L0,7.8L6.7,9l0,3.1H40v-1.1C40,10.3,39.8,9.8,39.4,9.4L39.4,9.4z M36.6,9.6h-6.1c-0.1,0-0.3-0.1-0.3-0.2V4.8c0-0.1,0.1-0.2,0.3-0.2
	h1.2c0.1,0,0.1,0,0.2,0.1l5,4.6C36.9,9.4,36.8,9.6,36.6,9.6L36.6,9.6z"/>
</svg>
