<?xml version="1.0" encoding="utf-8"?>
<!-- Generator: Adobe Illustrator 19.2.1, SVG Export Plug-In . SVG Version: 6.00 Build 0)  -->
<svg version="1.1" id="Layer_1" xmlns="http://www.w3.org/2000/svg" xmlns:xlink="http://www.w3.org/1999/xlink" x="0px" y="0px"
	 viewBox="0 0 12 20" style="enable-background:new 0 0 12 20;" xml:space="preserve">
<style type="text/css">
	.st0{fill:#320B37;}
</style>
<path id="Shape" class="st0" d="M6.1,8.8C3.6,8.1,2.8,7.4,2.8,6.4c0-1.2,1.1-2.1,3-2.1c2,0,2.7,0.9,2.8,2.3H11
	C10.9,4.8,9.7,3,7.4,2.4V0H4.1v2.4c-2.2,0.5-3.9,1.9-3.9,4c0,2.6,2.1,3.8,5.2,4.6c2.8,0.7,3.3,1.6,3.3,2.7c0,0.8-0.5,2-3,2
	c-2.3,0-3.2-1-3.3-2.3H0c0.1,2.4,2,3.8,4.1,4.3V20h3.3v-2.4c2.2-0.4,3.9-1.7,3.9-3.9C11.3,10.5,8.6,9.4,6.1,8.8L6.1,8.8z"/>
</svg>
