<?xml version="1.0" encoding="utf-8"?>
<!-- Generator: Adobe Illustrator 19.2.1, SVG Export Plug-In . SVG Version: 6.00 Build 0)  -->
<svg version="1.1" id="Layer_1" xmlns="http://www.w3.org/2000/svg" xmlns:xlink="http://www.w3.org/1999/xlink" x="0px" y="0px"
	 viewBox="0 0 20 21" style="enable-background:new 0 0 20 21;" xml:space="preserve">
<path id="Shape" d="M10,6.4C8,6.4,6.4,8,6.4,10S8,13.7,10,13.7s3.6-1.6,3.6-3.6S12,6.4,10,6.4L10,6.4z M18.1,9.1
	c-0.4-3.8-3.4-6.8-7.2-7.2V0H9.1v1.9C5.3,2.3,2.3,5.3,1.9,9.1H0v1.8h1.9c0.4,3.8,3.4,6.8,7.2,7.2V20h1.8v-1.9
	c3.8-0.4,6.8-3.4,7.2-7.2H20V9.1H18.1L18.1,9.1z M10,16.4c-3.5,0-6.4-2.8-6.4-6.4S6.5,3.6,10,3.6s6.4,2.8,6.4,6.4S13.5,16.4,10,16.4
	L10,16.4z"/>
</svg>
