<?xml version="1.0" encoding="utf-8"?>
<!-- Generator: Adobe Illustrator 19.2.1, SVG Export Plug-In . SVG Version: 6.00 Build 0)  -->
<svg version="1.1" id="Layer_1" xmlns="http://www.w3.org/2000/svg" xmlns:xlink="http://www.w3.org/1999/xlink" x="0px" y="0px"
	 viewBox="0 0 40 32" style="enable-background:new 0 0 40 32;" xml:space="preserve">

<path id="Shape" class="st0" d="M39.9,28.9l-6.3-18.8c-0.3-0.8-1.1-1.4-2-1.4H25c0.5-0.9,0.9-1.9,0.9-2.9C25.9,2.6,23.2,0,20,0
	c-3.2,0-5.9,2.6-5.9,5.7c0,1.1,0.3,2.1,0.9,2.9H8.4c-0.9,0-1.7,0.6-2,1.4L0.1,28.9c-0.4,1.3,0.6,2.6,2,2.6h35.8
	C39.3,31.5,40.3,30.2,39.9,28.9L39.9,28.9z M16.9,5.7c0-1.7,1.4-3,3.1-3s3.1,1.4,3.1,3c0,1.4-1,2.6-2.4,2.9h-1.3
	C17.9,8.4,16.9,7.2,16.9,5.7L16.9,5.7z M17.3,25l-1.8-3.3h-0.9V25h-2.1v-8.2h2.1v3.2h0.9l1.8-3.2h2.2l-2.3,3.9v0l2.4,4.3H17.3
	L17.3,25z M28.2,25h-1.7v-0.2c0-0.2,0-0.3,0-0.3h0c0,0-0.8,0.7-2.2,0.7c-2.2,0-4.2-1.6-4.2-4.3c0-2.4,1.9-4.2,4.5-4.2
	c2.2,0,3.3,1.1,3.3,1.1l-1,1.5c0,0-0.9-0.8-2.1-0.8c-1.8,0-2.5,1.1-2.5,2.3c0,1.6,1.1,2.5,2.4,2.5c1,0,1.7-0.6,1.7-0.6V22h-1.2v-1.7
	h3V25L28.2,25L28.2,25z"/>
</svg>
