<?xml version="1.0" encoding="utf-8"?>
<!-- Generator: Adobe Illustrator 19.2.1, SVG Export Plug-In . SVG Version: 6.00 Build 0)  -->
<svg version="1.1" id="Layer_1" xmlns="http://www.w3.org/2000/svg" xmlns:xlink="http://www.w3.org/1999/xlink" x="0px" y="0px"
	 viewBox="0 0 20 20" style="enable-background:new 0 0 20 20;" xml:space="preserve">
<style type="text/css">
	.st0{fill:#320B37;}
</style>
<path id="Path" class="st0" d="M14.9,13.3c-0.4-0.1-0.8,0-1.1,0.3L11.4,16C8.2,14.4,5.6,11.8,4,8.6l2.4-2.5c0.3-0.3,0.4-0.7,0.3-1.1
	c-0.4-1.2-0.6-2.6-0.6-4C6.1,0.5,5.6,0,5,0H1.1C0.5,0,0,0.5,0,1.1C0,11.5,8.5,20,18.9,20c0.6,0,1.1-0.5,1.1-1.1V15
	c0-0.6-0.5-1.1-1.1-1.1C17.5,13.9,16.2,13.7,14.9,13.3z"/>
</svg>
