<?xml version="1.0" encoding="utf-8"?>
<!-- Generator: Adobe Illustrator 19.2.1, SVG Export Plug-In . SVG Version: 6.00 Build 0)  -->
<svg version="1.1" id="Layer_1" xmlns="http://www.w3.org/2000/svg" xmlns:xlink="http://www.w3.org/1999/xlink" x="0px" y="0px"
	 viewBox="0 0 59 52" style="enable-background:new 0 0 59 52;" xml:space="preserve">
<style type="text/css">
	.st0{fill:#FF4A46;}
	.st1{fill:#D0021B;}
	.st2{fill:#330C37;}
</style>
<path id="Shape" class="st0" d="M22,16.3c-1.3-0.2-2.2-0.8-2.7-1.7c-0.3-0.6-0.5-1.4-0.5-2.4h1.5c0,0.8,0.2,1.4,0.4,1.7
	c0.4,0.7,1,1,2,1.1v-4.8C21.5,10,20.6,9.6,20,9.1c-0.6-0.6-0.9-1.3-0.9-2.3c0-0.9,0.3-1.7,1-2.4c0.7-0.7,1.6-1.1,2.7-1.1V2.1h0.8
	v1.1c1.2,0.1,2.1,0.4,2.7,1c0.6,0.6,0.9,1.4,1,2.4h-1.5c0-0.4-0.2-0.8-0.4-1.1c-0.4-0.6-1-0.9-1.8-0.9v4.3c1.4,0.4,2.3,0.7,2.8,1.1
	c0.8,0.5,1.2,1.4,1.2,2.4c0,1.6-0.5,2.7-1.5,3.3c-0.4,0.3-1,0.4-1.7,0.6c2,0.1,4,0.4,6,1c1.8-1.8,3-4.3,3-7.1
	C33.2,4.5,28.7,0,23.2,0c-5.5,0-10.1,4.5-10.1,10.1c0,2.9,1.2,5.4,3.1,7.3C18.1,16.8,20.1,16.4,22,16.3L22,16.3z"/>
<path id="Shape_1_" class="st1" d="M21.2,8c0.4,0.3,0.9,0.6,1.6,0.7V4.6c-0.8,0-1.3,0.3-1.6,0.7c-0.3,0.4-0.5,0.9-0.5,1.4
	C20.6,7.2,20.8,7.7,21.2,8L21.2,8z"/>
<path id="Shape_2_" class="st1" d="M25.2,11.1c-0.3-0.2-0.8-0.4-1.6-0.6v4.6c1,0,1.7-0.4,2.1-1.1c0.2-0.3,0.3-0.8,0.3-1.2
	C26,12,25.7,11.5,25.2,11.1L25.2,11.1z"/>
<path id="Shape_3_" class="st2" d="M57.6,36.5c1.2-1.3,1.3-3.7,1.1-6.8c-1.4-0.1-3.6,0.1-4.3,0c-1.8-3.6-4.5-6.5-8.2-8.2
	c0.1-2.4,0.4-4.6,1.8-5.7c-3.3-0.2-6.2,2-8,4.1c-1.6-1.7-4-3-6.8-4L31.5,19c-5.2-1.8-10.9-1.8-16.1,0.1L13.1,16c0,0,0,0,0,0
	c-3.6,1.2-6.9,3-9.4,5.7c-1.7-0.1-1.5-3.5,0.7-3c-3.5-2.4-5.5,4.2-2.1,5c-2.8,4-3.1,12.7,0.7,15.9C3.6,44.5,4.4,49,6.7,52h7.6
	c-0.2-1.6-0.4-3.2-0.2-5c4.6,1.1,10.2,1.4,15.7,0.9c0.9,1.4,1.7,2.9,2.7,4.1h7.6c-0.3-2-0.6-4.1,0-6.2
	C41.9,45.5,51.3,43.1,57.6,36.5L57.6,36.5z M47.2,26.3c1,0,1.9,0.8,1.9,1.9c0,1-0.8,1.9-1.9,1.9c-1,0-1.9-0.8-1.9-1.9
	C45.3,27.2,46.1,26.3,47.2,26.3L47.2,26.3z"/>
</svg>
