<?xml version="1.0" encoding="utf-8"?>
<!-- Generator: Adobe Illustrator 19.2.1, SVG Export Plug-In . SVG Version: 6.00 Build 0)  -->
<svg version="1.1" id="Layer_1" xmlns="http://www.w3.org/2000/svg" xmlns:xlink="http://www.w3.org/1999/xlink" x="0px" y="0px"
	 viewBox="0 0 77 50" style="enable-background:new 0 0 77 50;" xml:space="preserve">
<style type="text/css">
	.st0{fill:#320B37;}
</style>
<path id="Shape" class="st0" d="M76.5,27.6V25c0-1.3-0.5-2.5-1.5-3.4l-14.5-14c-0.9-0.9-2.2-1.4-3.5-1.4h-7.3V3.6
	c0-2-1.7-3.6-3.7-3.6H3.7C1.7,0,0,1.6,0,3.6v24H76.5L76.5,27.6z M54.1,11c0-0.3,0.3-0.6,0.6-0.6h2.7c0.1,0,0.3,0.1,0.4,0.2
	l11.4,10.5c0.4,0.3,0.1,1-0.4,1H54.7c-0.3,0-0.6-0.3-0.6-0.6L54.1,11L54.1,11z M76.5,29.6v7.9c0,2-1.7,3.6-3.7,3.6h-4
	c-0.7-4.8-4.9-8.4-10-8.4c-5.1,0-9.3,3.7-10,8.4H28.7c-0.7-4.8-4.9-8.4-10-8.4s-9.3,3.7-10,8.4h-5c-2,0-3.7-1.6-3.7-3.6v-7.9
	L76.5,29.6L76.5,29.6z M58.8,35.1c-4.2,0-7.7,3.3-7.7,7.4s3.4,7.4,7.7,7.4s7.7-3.3,7.7-7.4S63.1,35.1,58.8,35.1L58.8,35.1z
	 M58.8,46.3c-2.1,0-3.8-1.7-3.8-3.7s1.7-3.7,3.8-3.7c2.1,0,3.8,1.7,3.8,3.7S61,46.3,58.8,46.3L58.8,46.3z M18.7,35.1
	c-4.2,0-7.7,3.3-7.7,7.4s3.4,7.4,7.7,7.4s7.7-3.3,7.7-7.4S22.9,35.1,18.7,35.1L18.7,35.1z M18.7,46.3c-2.1,0-3.8-1.7-3.8-3.7
	s1.7-3.7,3.8-3.7c2.1,0,3.8,1.7,3.8,3.7S20.8,46.3,18.7,46.3L18.7,46.3z"/>
</svg>
