<?xml version="1.0" encoding="utf-8"?>
<!-- Generator: Adobe Illustrator 19.2.1, SVG Export Plug-In . SVG Version: 6.00 Build 0)  -->
<svg version="1.1" id="Layer_1" xmlns="http://www.w3.org/2000/svg" xmlns:xlink="http://www.w3.org/1999/xlink" x="0px" y="0px"
	 viewBox="0 0 23 20" style="enable-background:new 0 0 23 20;" xml:space="preserve">
<style type="text/css">
	.st0{fill:#320B37;}
</style>
<path id="Shape" class="st0" d="M21.6,3.4l-2.4-2.9C19,0.2,18.6,0,18.2,0H5.8C5.4,0,5.1,0.2,4.8,0.4L2.4,3.4C2.2,3.7,2,4.3,2,4.7
	v2.1c0.2-0.3,0.5-0.5,0.8-0.6C2.8,6,2.9,5.7,3,5.5c0.2-0.4,0.6-0.6,1-0.8c0.2,0,0.3-0.1,0.4-0.1c0.6,0,1.1,0.3,1.4,0.7
	c0.1,0,0.2,0,0.3,0c0.3,0,0.5,0.1,0.8,0.2l1.3-0.3c0.2,0,0.3-0.1,0.5-0.1c0.9,0,1.7,0.6,2,1.5l2.6,9.8c0.1,0.5,0.1,1-0.2,1.5
	c-0.3,0.5-0.7,0.8-1.2,0.9l-1.2,0.3h9.8c0.8,0,1.5-0.7,1.5-1.5l0-13C22.1,4.3,21.8,3.7,21.6,3.4L21.6,3.4z M3.2,3.3l0.8-1h5.4
	L10,1.5H4.7l0.6-0.7c0.1-0.1,0.3-0.2,0.5-0.2h12.5c0.2,0,0.4,0.1,0.5,0.2l0.6,0.7h-5.4l0.3,0.9H20l0.8,1H3.2L3.2,3.3z M3.5,6.9
	L3.1,7C2.8,7.1,2.6,7.5,2.7,7.8l0,0c0.1,0.3,0.5,0.6,0.8,0.5l2.9-0.7c0.4-0.1,0.6-0.4,0.5-0.8l0,0C6.7,6.4,6.3,6.2,6,6.3L5.6,6.4
	c-0.2,0-0.4-0.1-0.4-0.2l0,0c-0.1-0.4-0.5-0.6-1-0.5l0,0C3.8,5.7,3.6,6.1,3.7,6.5l0,0C3.8,6.7,3.6,6.9,3.5,6.9L3.5,6.9z M4.4,6
	c0.2,0,0.4,0.1,0.4,0.2c0,0.2-0.1,0.4-0.2,0.4c-0.2,0-0.4-0.1-0.4-0.2C4.1,6.2,4.2,6.1,4.4,6L4.4,6z M8.6,16.1c0,0.1,0,0.2-0.2,0.3
	l-4.2,1c-0.1,0-0.2,0-0.3-0.2L3.9,17c0-0.1,0-0.2,0.2-0.3l4.2-1c0.1,0,0.2,0,0.3,0.2L8.6,16.1L8.6,16.1z M9.1,11.9l0.1,0.2
	c0,0.1,0,0.2-0.2,0.3l-5.7,1.4c-0.1,0-0.2,0-0.3-0.2L3,13.4c0-0.1,0-0.2,0.2-0.3l5.7-1.4C8.9,11.7,9.1,11.7,9.1,11.9L9.1,11.9z
	 M8.5,10.4l-5.7,1.4c-0.1,0-0.2,0-0.3-0.2l-0.1-0.2c0-0.1,0-0.2,0.2-0.3l5.7-1.4c0.1,0,0.2,0,0.3,0.2l0.1,0.2
	C8.7,10.3,8.6,10.4,8.5,10.4L8.5,10.4z M8.4,14.3l-4.6,1.2c-0.1,0-0.2,0-0.3-0.2l-0.1-0.2c0-0.1,0-0.2,0.2-0.3l4.6-1.2
	c0.1,0,0.2,0,0.3,0.2L8.5,14C8.6,14.2,8.5,14.3,8.4,14.3L8.4,14.3z M12.5,16.7L9.9,6.9C9.7,6.3,9.1,6,8.5,6.1L7.2,6.5
	c0,0.1,0.1,0.1,0.1,0.2C7.4,7.2,7,7.8,6.4,8L3.6,8.7C3.1,8.9,2.4,8.6,2.2,8c0-0.1-0.1-0.2-0.1-0.3L0.8,8C0.2,8.2-0.1,8.8,0,9.4
	l2.6,9.8c0.2,0.6,0.8,0.9,1.4,0.8l7.7-1.9C12.3,17.8,12.7,17.2,12.5,16.7L12.5,16.7z M3.7,18.9l-2.3-8.5l7.7-1.9l2.3,8.5L3.7,18.9
	L3.7,18.9z"/>
</svg>
