<?xml version="1.0" encoding="utf-8"?>
<!-- Generator: Adobe Illustrator 19.2.1, SVG Export Plug-In . SVG Version: 6.00 Build 0)  -->
<svg version="1.1" id="Layer_1" xmlns="http://www.w3.org/2000/svg" xmlns:xlink="http://www.w3.org/1999/xlink" x="0px" y="0px"
	 viewBox="0 0 16 16" style="enable-background:new 0 0 16 16;" xml:space="preserve">
<style type="text/css">
	.st0{fill:#320B37;}
</style>
<path id="Fill-91" class="st0" d="M11.4,10.1h-0.7l-0.3-0.2c0.9-1,1.4-2.4,1.4-3.9C11.9,2.7,9.2,0,5.9,0S0,2.7,0,5.9
	s2.7,5.9,5.9,5.9c1.5,0,2.8-0.5,3.9-1.4l0.2,0.3v0.7l4.6,4.6l1.4-1.4L11.4,10.1L11.4,10.1z M5.9,10.1c-2.3,0-4.1-1.8-4.1-4.1
	s1.8-4.1,4.1-4.1s4.1,1.8,4.1,4.1S8.2,10.1,5.9,10.1L5.9,10.1z"/>
</svg>
