<?xml version="1.0" encoding="utf-8"?>
<!-- Generator: Adobe Illustrator 19.2.1, SVG Export Plug-In . SVG Version: 6.00 Build 0)  -->
<svg version="1.1" id="Layer_1" xmlns="http://www.w3.org/2000/svg" xmlns:xlink="http://www.w3.org/1999/xlink" x="0px" y="0px"
	 viewBox="0 0 100 88" style="enable-background:new 0 0 100 88;" xml:space="preserve">
<style type="text/css">
	.st0{fill:#320B37;}
	.st1{fill:#FF4A46;}
</style>
<path id="Shape" class="st0" d="M79.1,52.5l-2,1l-2-1c-11.6-6-25-14.7-25-29v-7.5h-5.3v10.1H35V16.1H13.8C6.2,16.1,0,22.1,0,29.5
	v44.8c0,7.4,6.2,13.4,13.8,13.4h52c7.6,0,13.8-6,13.8-13.4V52.2C79.5,52.3,79.3,52.4,79.1,52.5L79.1,52.5z M16.2,56.4l5.2,6.1h-3.8
	v7.9h-2.9v-7.9H11L16.2,56.4L16.2,56.4z M33.4,77.7H12.5v-2.6h20.8L33.4,77.7L33.4,77.7L33.4,77.7z M31.1,62.5v7.9h-2.9v-7.9h-3.8
	l5.2-6.1l5.2,6.1C34.9,62.5,33.2,62.5,31.1,62.5L31.1,62.5z"/>
<path id="Combined-Shape" class="st1" d="M77.2,0c-5.6,4.3-13.2,6.7-22.8,6.7v16.8c0.1,10.8,9.3,18.4,22.8,25.4
	c13.5-7,22.8-14.6,22.8-25.4V6.7C90.4,6.7,82.8,4.3,77.2,0z M77.2,45.1V23.5H57.8V10c7.5-0.5,14-2.4,19.4-5.8v19.4h19.4
	C96.5,31.4,90.7,37.9,77.2,45.1z"/>
</svg>
