<?xml version="1.0" encoding="utf-8"?>
<!-- Generator: Adobe Illustrator 19.2.1, SVG Export Plug-In . SVG Version: 6.00 Build 0)  -->
<svg version="1.1" id="Layer_1" xmlns="http://www.w3.org/2000/svg" xmlns:xlink="http://www.w3.org/1999/xlink" x="0px" y="0px"
	 viewBox="0 0 30 25" style="enable-background:new 0 0 30 25;" xml:space="preserve">
<path id="Shape" d="M21.3,0.9v1.5h-4.8v17.2l4.8,0v1.5l8.7-1.5l0-17.1L21.3,0.9L21.3,0.9z M18,18.2V3.8h3.3v14.4L18,18.2L18,18.2z"
	/>
<path id="Path" d="M13.5,5.1h-1.9v0.9h-0.9V5.1h-2C8,5.1,7.4,5.7,7.4,6.4v2.9l2.2,2c0.1,0.1,0.3,0.3,0.3,0.5h3.5
	c0.7,0,1.3-0.6,1.3-1.3V6.4C14.8,5.7,14.2,5.1,13.5,5.1L13.5,5.1z"/>
<path id="Path_1_" d="M0,2.6C0,1.2,1.2,0,2.6,0s2.6,1.2,2.6,2.6S4.1,5.2,2.6,5.2C1.2,5.2,0,4,0,2.6L0,2.6z"/>
<path id="Path_2_" d="M9.1,13.1c-0.2,0.2-0.4,0.3-0.6,0.3c-0.2,0-0.4-0.1-0.6-0.2L4.3,9.9v5c0,0.5-0.3,1-0.6,1.3l1.9,7.7
	c0.1,0.5-0.2,0.9-0.6,1c-0.1,0-0.1,0-0.2,0c-0.4,0-0.7-0.3-0.8-0.6l-1.1-4.4l-0.6,4.3c-0.1,0.5-0.5,0.8-1,0.7
	c-0.5-0.1-0.8-0.5-0.7-1l1.1-7.6c-0.4-0.3-0.7-0.8-0.7-1.4V8.4c0-0.9,0.8-1.7,1.7-1.7c0.2,0,0.4,0,0.6,0.1c0.2,0,0.3,0.1,0.4,0.2
	L9,11.9C9.4,12.3,9.4,12.8,9.1,13.1L9.1,13.1z"/>
</svg>
