<?xml version="1.0" encoding="utf-8"?>
<!-- Generator: Adobe Illustrator 19.2.1, SVG Export Plug-In . SVG Version: 6.00 Build 0)  -->
<svg version="1.1" id="Layer_1" xmlns="http://www.w3.org/2000/svg" xmlns:xlink="http://www.w3.org/1999/xlink" x="0px" y="0px"
	 viewBox="0 0 60 60" style="enable-background:new 0 0 60 60;" xml:space="preserve">
<style type="text/css">
	.st0{fill:#330C37;}
	.st1{fill:#FF4A46;}
</style>
<path id="Shape" class="st0" d="M57.7,36.6c-1.2,12.1-11.4,21.8-24,22.9c-14.9,1.3-27.5-9.2-29-22.9H2.1c-1.6,0-2.6-1.7-1.8-3
	l5.9-9.8c0.8-1.3,2.8-1.3,3.6,0l5.9,9.8c0.8,1.3-0.2,3-1.8,3h-2.3C13,46.9,22.9,54.5,34.2,53c8.4-1.2,15.2-7.5,16.6-15.6
	c2.1-12-7.5-22.5-19.6-22.5c-3.9,0-7.7,1.1-11,3.2c-1.5,1-3.6,0.8-4.7-0.6c-1.2-1.5-0.8-3.6,0.8-4.7c3.5-2.3,7.5-3.7,11.6-4.2V4.9
	h-2.7c-0.9,0-1.7-0.7-1.7-1.6V1.6c0-0.9,0.8-1.6,1.7-1.6h12.6c0.9,0,1.7,0.7,1.7,1.6v1.6c0,0.9-0.8,1.6-1.7,1.6h-3v3.7
	C48.7,10.4,59.2,22.5,57.7,36.6L57.7,36.6z M58.6,12l-5.1-4.5c-0.7-0.6-1.8-0.6-2.4,0.1L49.8,9c-0.6,0.7-0.6,1.7,0.1,2.3l5.1,4.5
	c0.7,0.6,1.8,0.6,2.4-0.1l1.3-1.4C59.3,13.7,59.3,12.6,58.6,12L58.6,12z"/>
<path id="Path" class="st1" d="M31.1,34.2L43.5,42c7.5-11.9-3.6-23.8-12.4-23.8V34.2z"/>
</svg>
