<?xml version="1.0" encoding="utf-8"?>
<!-- Generator: Adobe Illustrator 19.2.1, SVG Export Plug-In . SVG Version: 6.00 Build 0)  -->
<svg version="1.1" id="Layer_1" xmlns="http://www.w3.org/2000/svg" xmlns:xlink="http://www.w3.org/1999/xlink" x="0px" y="0px"
	 viewBox="0 0 125 81" style="enable-background:new 0 0 125 81;" xml:space="preserve">
<path id="Shape" d="M0.7,30.3v4.5c0,1,0.8,1.8,1.8,1.8h22.8v3c0,1.4,1.5,2.3,2.7,1.6l12.2-7.1c1.2-0.7,1.2-2.5,0-3.2L28,23.9
	c-1.2-0.7-2.7,0.2-2.7,1.6v3H2.5C1.5,28.5,0.7,29.3,0.7,30.3L0.7,30.3z M41.1,57.6v4.5c0,1-0.8,1.8-1.8,1.8H16.5v3
	c0,1.4-1.5,2.3-2.7,1.6L1.6,61.4c-1.2-0.7-1.2-2.5,0-3.2l12.2-7.1c1.2-0.7,2.7,0.2,2.7,1.6v3h22.8C40.3,55.8,41.1,56.6,41.1,57.6
	L41.1,57.6z"/>
<path id="Shape-Copy-3" d="M53.1,63.8L53,27.2c0-1.8,1.6-3,3.1-2.3L86,39.1c0.8,0.4,1.4,1.3,1.4,2.3l0.1,36.6c0,1.8-1.6,3-3.1,2.3
	L54.4,66.1C53.6,65.7,53.1,64.8,53.1,63.8L53.1,63.8z M121.5,28.9L93.9,42.2L94,76.1l27.6-13.3L121.5,28.9L121.5,28.9z M122.6,24.5
	c1.2,0,2.2,1.1,2.3,2.5l0.1,36.6c0,1-0.5,1.9-1.4,2.3L93.8,80.3c-0.3,0.1-0.6,0.2-0.9,0.2c-1.2,0-2.2-1.1-2.3-2.5l-0.1-36.6
	c0-1,0.5-1.9,1.4-2.3l29.8-14.4C122,24.6,122.3,24.5,122.6,24.5L122.6,24.5L122.6,24.5z M88.8,3.9L60.2,18.1l28.6,14.1L117.4,18
	L88.8,3.9L88.8,3.9z M88.7,0c0.3,0,0.6,0.1,0.9,0.2l31.4,15.5c1.8,0.9,1.8,3.7,0,4.6L89.7,35.9c-0.3,0.1-0.6,0.2-0.9,0.2
	c-0.3,0-0.6-0.1-0.9-0.2L56.5,20.4c-1.8-0.9-1.8-3.7,0-4.6L87.8,0.2C88.1,0.1,88.4,0,88.7,0L88.7,0L88.7,0z"/>
</svg>
