<svg xmlns="http://www.w3.org/2000/svg" width="253" height="43" viewBox="-126.5 28.5 253 43"><path fill="#39A7DE" d="M-52.9 71c11.5 0 20.8-9.3 20.8-20.8s-9.3-20.8-20.8-20.8-20.8 9.3-20.8 20.8S-64.4 71-52.9 71"/><path fill="#FFF" d="M-42.5 44.7c-.8.3-1.6.6-2.5.7.9-.5 1.6-1.4 1.9-2.4-.8.5-1.7.8-2.7 1-.8-.8-1.9-1.3-3.1-1.3-2.3 0-4.3 1.9-4.3 4.3 0 .3 0 .7.1 1-3.5-.2-6.7-1.9-8.8-4.4-.4.6-.6 1.4-.6 2.1 0 1.5.8 2.8 1.9 3.5-.7 0-1.4-.2-1.9-.5 0 2.1 1.5 3.8 3.4 4.2-.4.1-.7.1-1.1.1-.3 0-.5 0-.8-.1.5 1.7 2.1 2.9 4 3-1.5 1.1-3.3 1.8-5.3 1.8-.3 0-.7 0-1-.1 1.9 1.2 4.1 1.9 6.5 1.9 7.8 0 12.2-6.5 12.2-12.2v-.6c.8-.4 1.5-1.2 2.1-2"/><path fill="#C82127" d="M52.6 71c11.5 0 20.8-9.3 20.8-20.8S64 29.3 52.6 29.3s-20.8 9.3-20.8 20.8c0 11.6 9.3 20.9 20.8 20.9"/><path fill="#FFF" d="M52.6 39.7c-5.7 0-10.5 4.6-10.5 10.5 0 4.2 2.6 7.9 6.2 9.5 0-.7 0-1.6.2-2.4.2-.8 1.3-5.6 1.3-5.6s-.3-.7-.3-1.6c0-1.5.9-2.7 2-2.7.9 0 1.4.7 1.4 1.6 0 1-.6 2.4-.9 3.7-.3 1.1.5 2 1.6 2 2 0 3.3-2.5 3.3-5.5 0-2.3-1.5-4-4.3-4-3.1 0-5.1 2.3-5.1 5 0 .9.3 1.5.7 2 .2.2.2.3.1.6 0 .2-.2.6-.2.8-.1.3-.3.4-.5.3-1.4-.6-2.1-2.2-2.1-4 0-2.9 2.5-6.5 7.4-6.5 4 0 6.6 2.9 6.6 5.9 0 4.1-2.3 7.1-5.6 7.1-1.1 0-2.2-.6-2.5-1.3l-.7 2.8c-.2.8-.6 1.6-1 2.2.9.3 1.9.4 2.9.4 5.7 0 10.5-4.6 10.5-10.5-.1-5.7-4.8-10.3-10.5-10.3"/><path fill="#3C5294" d="M-105.7 70.7c11.5 0 20.8-9.3 20.8-20.8S-94.2 29-105.7 29s-20.8 9.2-20.8 20.8c0 11.5 9.3 20.9 20.8 20.9"/><path fill="#FFF" d="M-110.7 46.3h2.1v-2.1c0-.9 0-2.3.7-3.2.7-.9 1.7-1.6 3.3-1.6 2.7 0 3.8.4 3.8.4l-.5 3.2s-.9-.3-1.7-.3-1.6.3-1.6 1.1v2.5h3.4l-.2 3.1h-3.1v10.9h-4V49.4h-2.1v-3.1h-.1z"/><path fill="#CC2B27" d="M-.2 71c11.5 0 20.8-9.3 20.8-20.8S11.3 29.3-.2 29.3-21 38.7-21 50.2C-21 61.7-11.6 71-.2 71"/><path fill="#FFF" d="M3.8 50.2l-6.8 4v-8l6.8 4zm6.5 3.7v-7.4s0-3.6-3.6-3.6H-7s-3.6 0-3.6 3.6v7.4s0 3.6 3.6 3.6H6.7s3.6 0 3.6-3.6"/><path fill="#DD4B38" d="M105.3 71c11.5 0 20.8-9.3 20.8-20.8s-9.3-20.8-20.8-20.8-20.8 9.3-20.8 20.8S93.8 71 105.3 71"/><path fill="#FFF" d="M101.9 59.5c-2.5 0-4.2-1.6-4.2-3.4s2.2-3.4 4.7-3.3c.6 0 1.1.1 1.6.3 1.3.9 2.3 1.5 2.6 2.5 0 .2.1.4.1.7-.1 1.7-1.4 3.2-4.8 3.2m.6-11.1c-1.7 0-3.2-1.8-3.5-4s.8-3.8 2.5-3.8 3.2 1.8 3.5 4c.3 2.1-.8 3.9-2.5 3.8m3.5 3.3c-.6-.4-1.7-1.4-1.7-2 0-.7.2-1 1.2-1.8 1.1-.8 1.8-2 1.8-3.4 0-1.6-.7-3.2-2.1-3.7h2l1.4-1h-6.4c-2.9 0-5.6 2.2-5.6 4.7 0 2.6 2 4.7 4.9 4.7h.6c-.2.4-.3.8-.3 1.2 0 .7.4 1.3.9 1.8h-1.1c-3.6 0-6.3 2.3-6.3 4.6s3 3.8 6.6 3.8c4.1 0 6.3-2.3 6.3-4.6.1-2-.5-3.1-2.2-4.3m9.4-3.1h-2.5v-2.5h-2v2.5h-2.5v2h2.5v2.5h2v-2.5h2.5v-2z"/></svg>