<?xml version="1.0" encoding="UTF-8" standalone="no"?>
<svg width="23px" height="20px" viewBox="0 0 23 20" version="1.1" xmlns="http://www.w3.org/2000/svg" xmlns:xlink="http://www.w3.org/1999/xlink">
    <!-- Generator: Sketch 3.8.3 (29802) - http://www.bohemiancoding.com/sketch -->
    <title>Shape</title>
    <desc>Created with Sketch.</desc>
    <defs></defs>
    <g id="Page-1" stroke="none" stroke-width="1" fill="none" fill-rule="evenodd">
        <g id="don-hang" transform="translate(-889.000000, -20.000000)" fill="#320B37">
            <g id="header">
                <path d="M910.595536,23.3735664 L908.184647,20.4387413 C907.956941,20.1615035 907.611473,20 907.246042,20 L894.785444,20 C894.420084,20 894.074616,20.1615035 893.846875,20.4387063 L891.436021,23.3735664 C891.184172,23.6801748 890.978088,24.2518182 890.978088,24.6833566 L890.978088,26.8330769 C891.169578,26.5407692 891.449462,26.3213636 891.785093,26.2091259 C891.803867,25.9634615 891.880622,25.7252098 892.011897,25.5082517 C892.239315,25.1323776 892.604134,24.8651049 893.038969,24.7553497 C893.194856,24.7158392 893.337591,24.6979371 893.48029,24.6979371 C894.055229,24.6979371 894.576224,24.9817133 894.881297,25.4275175 C894.972141,25.4121678 895.063814,25.4041958 895.155848,25.4041958 C895.438147,25.4041958 895.704914,25.4795105 895.937304,25.6093007 L897.272727,25.2722727 C897.440074,25.2298951 897.612033,25.2086014 897.784353,25.2086014 C898.707968,25.2086014 899.515297,25.8147902 899.747975,26.6828671 L902.365093,36.4428322 C902.50163,36.952028 902.425452,37.4823077 902.151153,37.9361189 C901.876566,38.3899301 901.436146,38.7126224 900.911331,38.8451399 L899.743327,39.1399301 L909.553114,39.1399301 C910.38174,39.1399301 911.05347,38.4881469 911.05347,37.6841608 L911.053434,24.6439161 C911.053434,24.2518182 910.847385,23.6801748 910.595536,23.3735664 L910.595536,23.3735664 Z M892.223856,23.3487413 L893.022248,22.3768182 L898.469524,22.3768182 L899.007059,21.5192657 L893.726734,21.5192657 L894.316159,20.8017133 C894.430678,20.6623077 894.601737,20.5823427 894.785444,20.5823427 L907.246078,20.5823427 C907.429821,20.5823427 907.600879,20.6623077 907.715362,20.8017133 L908.304788,21.5192657 L902.930411,21.5192657 L903.230475,22.3768182 L909.009273,22.3768182 L909.80763,23.3487413 L892.223856,23.3487413 L892.223856,23.3487413 Z M892.467381,26.9346853 L892.130633,27.0196853 C891.771976,27.1102448 891.556847,27.4657692 891.650142,27.8137762 L891.653565,27.8265035 C891.746896,28.1745455 892.1133,28.3832517 892.471993,28.2927273 L895.327843,27.5718182 C895.686536,27.4812937 895.901629,27.1257692 895.808335,26.7776923 L895.804911,26.764965 C895.711581,26.416958 895.345176,26.2082168 894.986519,26.2987413 L894.649772,26.3837413 C894.469849,26.4291608 894.285998,26.3244406 894.239188,26.1498601 L894.236305,26.1392308 C894.127588,25.7337762 893.700752,25.4905944 893.28289,25.5960839 L893.265413,25.6004895 C892.84755,25.705979 892.596963,26.1201399 892.705644,26.5255944 L892.708527,26.5362238 C892.755265,26.7109091 892.64734,26.8892657 892.467381,26.9346853 L892.467381,26.9346853 Z M893.387896,26.0227622 C893.569044,25.977028 893.75412,26.0824825 893.801218,26.2582168 C893.848352,26.433986 893.739706,26.6135664 893.558522,26.6592657 C893.377374,26.704965 893.192334,26.5995455 893.1452,26.4238112 C893.098102,26.248042 893.206748,26.0684615 893.387896,26.0227622 L893.387896,26.0227622 Z M897.596719,36.0606993 C897.628141,36.1779021 897.555711,36.2975874 897.434957,36.3280769 L893.280151,37.3768182 C893.159398,37.4073077 893.036014,37.336993 893.004591,37.2198252 L892.947692,37.0076923 C892.916269,36.8904545 892.9887,36.7707692 893.109489,36.7403147 L897.264259,35.6915734 C897.385049,35.6610839 897.508397,35.7313986 897.539819,35.8485315 L897.596719,36.0606993 L897.596719,36.0606993 Z M898.103443,31.8551049 L898.160343,32.0672727 C898.191765,32.1844755 898.119335,32.3041608 897.998545,32.3346154 L892.313078,33.7698252 C892.192289,33.8003147 892.068941,33.73 892.037518,33.6128671 L891.980619,33.4006643 C891.949196,33.2834615 892.021627,33.1637762 892.142416,33.1333217 L897.827883,31.6981818 C897.948673,31.6676573 898.072021,31.7379021 898.103443,31.8551049 L898.103443,31.8551049 Z M897.486559,30.4250699 L891.801092,31.8602098 C891.680303,31.8906643 891.556955,31.8203846 891.525532,31.7032168 L891.468633,31.491049 C891.43721,31.3738462 891.509641,31.2541958 891.63043,31.2237063 L897.315897,29.7885664 C897.436687,29.7580769 897.560035,29.8283566 897.591457,29.9455245 L897.648357,30.1577273 C897.679779,30.2748601 897.607349,30.3945804 897.486559,30.4250699 L897.486559,30.4250699 Z M897.360293,34.3080769 L892.768165,35.4672378 C892.647376,35.4976923 892.524028,35.4274126 892.492605,35.3102448 L892.435706,35.0980769 C892.404283,34.9808741 892.476714,34.8611888 892.597503,34.8306993 L897.189594,33.6716084 C897.310384,33.6410839 897.433732,33.7113986 897.465155,33.8285664 L897.522054,34.0407343 C897.553512,34.1579021 897.481082,34.2776224 897.360293,34.3080769 L897.360293,34.3080769 Z M901.493658,36.6627972 L898.876864,26.9025524 C898.719787,26.3166434 898.102903,25.9652448 897.499064,26.1176573 L896.165622,26.4542657 C896.197153,26.5174476 896.223314,26.5841608 896.242233,26.6545804 C896.401544,27.2488462 896.040869,27.844965 895.441534,27.9962587 L892.627664,28.7065385 C892.053266,28.8515385 891.434796,28.5645455 891.241972,28.0198951 C891.205649,27.9173077 891.18601,27.8141958 891.180389,27.7126224 L889.845578,28.0495804 C889.241739,28.201993 888.879586,28.8005594 889.036663,29.3864336 L891.653457,39.1466783 C891.81057,39.7326224 892.427418,40.084021 893.031257,39.9315734 L900.684815,37.9996503 C901.288618,37.8472378 901.65077,37.2487063 901.493658,36.6627972 L901.493658,36.6627972 Z M892.746796,38.8706993 L890.471327,30.3835664 L898.124848,28.4516434 L900.400354,36.9387762 L892.746796,38.8706993 L892.746796,38.8706993 Z" id="Shape"></path>
            </g>
        </g>
    </g>
</svg>