<?xml version="1.0" encoding="UTF-8" standalone="no"?>
<svg width="20px" height="20px" viewBox="0 0 20 20" version="1.1" xmlns="http://www.w3.org/2000/svg" xmlns:xlink="http://www.w3.org/1999/xlink">
    <!-- Generator: Sketch 3.8.3 (29802) - http://www.bohemiancoding.com/sketch -->
    <title>Shape</title>
    <desc>Created with Sketch.</desc>
    <defs></defs>
    <g id="Page-1" stroke="none" stroke-width="1" fill="none" fill-rule="evenodd">
        <g id="tao-don" transform="translate(-422.000000, -384.000000)" fill="#320B37">
            <g id="size-box" transform="translate(345.000000, 340.000000)">
                <path d="M77.0215756,59.8152382 L77.0000018,50.7404584 C76.9989526,50.2939331 77.4573788,49.9920734 77.869969,50.1675709 L86.1718051,53.6990881 C86.4012149,53.7966737 86.5502313,54.020752 86.5508215,54.2690065 L86.5723952,63.3437863 C86.5734444,63.7903442 86.1150182,64.0922039 85.702428,63.9167063 L77.400592,60.3851892 C77.1711821,60.2876036 77.0221329,60.0635253 77.0215756,59.8152382 L77.0215756,59.8152382 Z M96.0427559,51.1676036 L88.3816739,54.4692675 L88.4016084,62.8675057 L96.0627231,59.5658417 L96.0427559,51.1676036 L96.0427559,51.1676036 Z M96.3527559,50.0727912 C96.6820346,50.0719755 96.9775428,50.3355644 96.9783625,50.6934111 L96.9999362,59.7681908 C97.0005264,60.0164453 96.8525592,60.241274 96.6236084,60.3399037 L88.3386903,63.9104747 C88.2569526,63.9456786 88.1732149,63.9621223 88.0916739,63.9623507 C87.7623625,63.9631011 87.4668215,63.6995448 87.4660018,63.3417308 L87.444428,54.2669184 C87.4438051,54.0186639 87.5918051,53.7938352 87.8207887,53.6952055 L96.1057067,50.1246672 C96.1874444,50.089398 96.2711493,50.0729869 96.3527559,50.0727912 L96.3527559,50.0727912 L96.3527559,50.0727912 Z M86.9393788,44.9613719 L78.9923297,48.492367 L86.9560674,51.9858417 L94.9031493,48.4548793 L86.9393788,44.9613719 L86.9393788,44.9613719 Z M86.9371166,44.0000016 C87.0234116,43.9998059 87.1097723,44.0173915 87.1904936,44.0527912 L95.9250182,47.8844062 C96.4204936,48.1017961 96.4221657,48.8008173 95.9277067,49.020491 L87.2114772,52.8932153 C87.1309526,52.9290065 87.0446575,52.9469837 86.9583297,52.9472121 C86.8720346,52.9474078 86.7856739,52.9298222 86.7049526,52.8944225 L77.9704608,49.0628075 C77.4749526,48.8454502 77.4733133,48.1463964 77.9677395,47.9267227 L86.6839362,44.0539984 C86.7644936,44.0182072 86.8507559,44.0001974 86.9371166,44.0000016 L86.9371166,44.0000016 L86.9371166,44.0000016 Z" id="Shape"></path>
            </g>
        </g>
    </g>
</svg>