<?xml version="1.0" encoding="UTF-8" standalone="no"?>
<svg width="18px" height="20px" viewBox="0 0 18 20" version="1.1" xmlns="http://www.w3.org/2000/svg" xmlns:xlink="http://www.w3.org/1999/xlink">
    <!-- Generator: Sketch 3.8.3 (29802) - http://www.bohemiancoding.com/sketch -->
    <title>Fill 155</title>
    <desc>Created with Sketch.</desc>
    <defs></defs>
    <g id="Page-1" stroke="none" stroke-width="1" fill="none" fill-rule="evenodd">
        <g id="tao-don" transform="translate(-368.000000, -491.000000)" fill="#320B37">
            <g id="Group" transform="translate(345.000000, 480.000000)">
                <g id="logistics-delivery-truck-in-movement" transform="translate(23.000000, 11.000000)">
                    <path d="M9,16 L14,16 L14,11 L9,11 L9,16 Z M13,0 L13,2 L5,2 L5,0 L3,0 L3,2 L2,2 C0.89,2 0.01,2.9 0.01,4 L0,18 C0,19.1 0.89,20 2,20 L16,20 C17.1,20 18,19.1 18,18 L18,4 C18,2.9 17.1,2 16,2 L15,2 L15,0 L13,0 L13,0 Z M2,7 L16,7 L16,18 L2,18 L2,7 Z" id="Fill-155"></path>
                </g>
            </g>
        </g>
    </g>
</svg>