<?xml version="1.0" encoding="UTF-8" standalone="no"?>
<svg width="46px" height="42px" viewBox="0 0 46 42" version="1.1" xmlns="http://www.w3.org/2000/svg" xmlns:xlink="http://www.w3.org/1999/xlink">
    <!-- Generator: Sketch 3.8.3 (29802) - http://www.bohemiancoding.com/sketch -->
    <title>Shape</title>
    <desc>Created with Sketch.</desc>
    <defs></defs>
    <g id="Page-1" stroke="none" stroke-width="1" fill="none" fill-rule="evenodd">
        <g id="tao-don" transform="translate(-502.000000, -1459.000000)" fill="#330C37">
            <g id="photo" transform="translate(345.000000, 1357.000000)">
                <path d="M163,108 L163,102 L167,102 L167,108 L173,108 L173,112 L167,112 L167,118 L163,118 L163,112 L157,112 L157,108 L163,108 L163,108 Z M169,120 L169,114 L175,114 L175,108 L189,108 L192.66,112 L199,112 C201.2,112 203,113.8 203,116 L203,140 C203,142.2 201.2,144 199,144 L167,144 C164.8,144 163,142.2 163,140 L163,120 L169,120 L169,120 Z M183,138 C188.52,138 193,133.52 193,128 C193,122.48 188.52,118 183,118 C177.48,118 173,122.48 173,128 C173,133.52 177.48,138 183,138 L183,138 Z M176.6,128 C176.6,131.54 179.46,134.4 183,134.4 C186.54,134.4 189.4,131.54 189.4,128 C189.4,124.46 186.54,121.6 183,121.6 C179.46,121.6 176.6,124.46 176.6,128 L176.6,128 Z" id="Shape"></path>
            </g>
        </g>
    </g>
</svg>