<?xml version="1.0" encoding="UTF-8" standalone="no"?>
<svg width="12px" height="12px" viewBox="0 0 12 12" version="1.1" xmlns="http://www.w3.org/2000/svg" xmlns:xlink="http://www.w3.org/1999/xlink">
    <!-- Generator: Sketch 3.8.3 (29802) - http://www.bohemiancoding.com/sketch -->
    <title>Fill 168</title>
    <desc>Created with Sketch.</desc>
    <defs></defs>
    <g id="Page-1" stroke="none" stroke-width="1" fill="none" fill-rule="evenodd">
        <g id="home" transform="translate(-1348.000000, -825.000000)" fill="#FFFFFF">
            <g id="btn-chat" transform="translate(1331.000000, 816.000000)">
                <path d="M27.8,9 L18.2,9 C17.54,9 17.006,9.54 17.006,10.2 L17,21 L19.4,18.6 L27.8,18.6 C28.46,18.6 29,18.06 29,17.4 L29,10.2 C29,9.54 28.46,9 27.8,9 L27.8,9 Z M19.4,13.2 L26.6,13.2 L26.6,14.4 L19.4,14.4 L19.4,13.2 Z M19.4,15 L24.2,15 L24.2,16.2 L19.4,16.2 L19.4,15 Z M19.4,11.4 L26.6,11.4 L26.6,12.6 L19.4,12.6 L19.4,11.4 Z" id="Fill-168"></path>
            </g>
        </g>
    </g>
</svg>