<?xml version="1.0" encoding="UTF-8" standalone="no"?>
<svg width="20px" height="21px" viewBox="0 0 20 21" version="1.1" xmlns="http://www.w3.org/2000/svg" xmlns:xlink="http://www.w3.org/1999/xlink">
    <!-- Generator: Sketch 3.8.3 (29802) - http://www.bohemiancoding.com/sketch -->
    <title>Shape</title>
    <desc>Created with Sketch.</desc>
    <defs></defs>
    <g id="Page-1" stroke="none" stroke-width="1" fill="none" fill-rule="evenodd">
        <g id="tao-don" transform="translate(-675.000000, -633.000000)" fill="#000000">
            <g id="Group-Copy" transform="translate(345.000000, 620.000000)">
                <path d="M340,19.371437 C337.990909,19.371437 336.363636,21.0007044 336.363636,23.0122581 C336.363636,25.0238118 337.990909,26.6530792 340,26.6530792 C342.009091,26.6530792 343.636364,25.0238118 343.636364,23.0122581 C343.636364,21.0007044 342.009091,19.371437 340,19.371437 L340,19.371437 Z M348.127273,22.1020528 C347.709091,18.3064968 344.7,15.2937173 340.909091,14.8750229 L340.909091,13 L339.090909,13 L339.090909,14.8750229 C335.3,15.2937173 332.290909,18.3064968 331.872727,22.1020528 L330,22.1020528 L330,23.9224634 L331.872727,23.9224634 C332.290909,27.7180194 335.3,30.7307989 339.090909,31.1494933 L339.090909,33.0245162 L340.909091,33.0245162 L340.909091,31.1494933 C344.7,30.7307989 347.709091,27.7180194 348.127273,23.9224634 L350,23.9224634 L350,22.1020528 L348.127273,22.1020528 L348.127273,22.1020528 Z M340,29.3836951 C336.481818,29.3836951 333.636364,26.5347525 333.636364,23.0122581 C333.636364,19.4897637 336.481818,16.6408211 340,16.6408211 C343.518182,16.6408211 346.363636,19.4897637 346.363636,23.0122581 C346.363636,26.5347525 343.518182,29.3836951 340,29.3836951 L340,29.3836951 Z" id="Shape"></path>
            </g>
        </g>
    </g>
</svg>