<?xml version="1.0" encoding="UTF-8" standalone="no"?>
<svg width="12px" height="20px" viewBox="0 0 12 20" version="1.1" xmlns="http://www.w3.org/2000/svg" xmlns:xlink="http://www.w3.org/1999/xlink">
    <!-- Generator: Sketch 3.8.3 (29802) - http://www.bohemiancoding.com/sketch -->
    <title>Shape</title>
    <desc>Created with Sketch.</desc>
    <defs></defs>
    <g id="Page-1" stroke="none" stroke-width="1" fill="none" fill-rule="evenodd">
        <g id="tao-don" transform="translate(-371.000000, -1084.000000)" fill="#320B37">
            <g id="Group-Copy-3" transform="translate(345.000000, 1073.000000)">
                <g id="logistics-delivery-truck-in-movement" transform="translate(26.000000, 11.000000)">
                    <path d="M6.08888889,8.77777778 C3.56666667,8.12222222 2.75555556,7.44444444 2.75555556,6.38888889 C2.75555556,5.17777778 3.87777778,4.33333333 5.75555556,4.33333333 C7.73333333,4.33333333 8.46666667,5.27777778 8.53333333,6.66666667 L10.9888889,6.66666667 C10.9111111,4.75555556 9.74444444,3 7.42222222,2.43333333 L7.42222222,0 L4.08888889,0 L4.08888889,2.4 C1.93333333,2.86666667 0.2,4.26666667 0.2,6.41111111 C0.2,8.97777778 2.32222222,10.2555556 5.42222222,11 C8.2,11.6666667 8.75555556,12.6444444 8.75555556,13.6777778 C8.75555556,14.4444444 8.21111111,15.6666667 5.75555556,15.6666667 C3.46666667,15.6666667 2.56666667,14.6444444 2.44444444,13.3333333 L8.8817842e-16,13.3333333 C0.133333333,15.7666667 1.95555556,17.1333333 4.08888889,17.5888889 L4.08888889,20 L7.42222222,20 L7.42222222,17.6111111 C9.58888889,17.2 11.3111111,15.9444444 11.3111111,13.6666667 C11.3111111,10.5111111 8.61111111,9.43333333 6.08888889,8.77777778 L6.08888889,8.77777778 Z" id="Shape"></path>
                </g>
            </g>
        </g>
    </g>
</svg>