<?xml version="1.0" encoding="UTF-8" standalone="no"?>
<svg width="17px" height="20px" viewBox="0 0 17 20" version="1.1" xmlns="http://www.w3.org/2000/svg" xmlns:xlink="http://www.w3.org/1999/xlink">
    <!-- Generator: Sketch 3.8.3 (29802) - http://www.bohemiancoding.com/sketch -->
    <title>Shape</title>
    <desc>Created with Sketch.</desc>
    <defs></defs>
    <g id="Page-1" stroke="none" stroke-width="1" fill="none" fill-rule="evenodd">
        <g id="don-hang" transform="translate(-760.000000, -20.000000)" fill="#FF4A46">
            <g id="header">
                <path d="M768.576028,21.4285621 L768.122563,21.4285621 C767.88027,21.4285621 767.68385,21.2379412 767.68385,21.0028758 L767.68385,20.9885621 C767.68385,20.4425817 767.22769,20 766.665001,20 L766.641459,20 C766.07877,20 765.622644,20.4425817 765.622644,20.9885621 L765.622644,21.0028758 C765.622644,21.2379739 765.42619,21.4285948 765.183931,21.4285948 L764.730466,21.4285948 C764.247464,21.4285948 763.855936,21.8084967 763.855936,22.2771569 L763.855936,22.2943137 C763.855936,22.7629739 764.247464,23.1428758 764.730466,23.1428758 L768.576129,23.1428758 C769.059098,23.1428758 769.450626,22.7629412 769.450626,22.2943137 L769.450626,22.2771242 C769.450592,21.8084967 769.059064,21.4285621 768.576028,21.4285621 L768.576028,21.4285621 Z M766.653213,21.4285621 C766.40927,21.4285621 766.211536,21.2366667 766.211536,21 C766.211536,20.7633007 766.409304,20.5714052 766.653213,20.5714052 C766.897156,20.5714052 767.094891,20.7633007 767.094891,21 C767.094891,21.2366993 766.897156,21.4285621 766.653213,21.4285621 L766.653213,21.4285621 Z M768.619644,38 L761.205738,38 C760.555246,38 760.027921,37.4883333 760.027921,36.8571569 L760.027921,23.1428431 C760.027921,22.5116667 760.555246,22 760.911275,22 L763.297625,22 C763.27772,22.094902 763.266977,22.193268 763.266977,22.2943791 C763.266977,23.0773203 763.923464,23.7143137 764.7305,23.7143137 L768.575995,23.7143137 C769.383064,23.7143137 770.039484,23.0773203 770.039484,22.2770915 C770.039484,22.1822222 770.029009,22.0897386 770.010688,22 L771.806226,22 C772.751249,22 773.27854,22.5116667 773.27854,23.1428431 L773.27854,31.7287255 C773.180666,31.7228105 773.0835,31.714281 772.984111,31.714281 C772.576787,31.714281 772.183508,31.7699673 771.806226,31.8647386 L771.806226,25.1428431 L761.5002,25.1428431 L761.5002,36.5714379 L768.287628,36.5714379 C768.319893,37.0736275 768.43299,37.5543137 768.619644,38 L768.619644,38 Z M772.984077,32.5714379 C770.869961,32.5714379 769.156163,34.2344118 769.156163,36.285719 C769.156163,38.3370261 770.869927,40 772.984077,40 C775.098227,40 776.811991,38.3370261 776.811991,36.285719 C776.811991,34.2344118 775.098193,32.5714379 772.984077,32.5714379 L772.984077,32.5714379 Z M775.485377,35.5225817 L773.129709,38.0940196 C773.013682,38.220719 772.852052,38.2856863 772.689311,38.2856863 C772.560048,38.2856863 772.430078,38.2446732 772.321662,38.1604248 L770.849349,37.0175817 C770.595437,36.8205882 770.554179,36.460915 770.757504,36.2145425 C770.960492,35.9679085 771.331307,35.9279739 771.585219,36.1252941 L772.620807,36.9291503 L774.605087,34.7631373 C774.820907,34.5273529 775.193305,34.5058824 775.43644,34.715719 C775.679642,34.9255229 775.701466,35.2865686 775.485377,35.5225817 L775.485377,35.5225817 Z M770.333947,30 L762.678051,30 C762.515411,30 762.383588,29.8720588 762.383588,29.714281 L762.383588,29.4285621 C762.383588,29.2707516 762.515445,29.1428431 762.678051,29.1428431 L770.333947,29.1428431 C770.496553,29.1428431 770.628443,29.2707843 770.628443,29.4285621 L770.628443,29.714281 C770.628376,29.8720588 770.496553,30 770.333947,30 L770.333947,30 Z M770.333947,27.4285621 L762.678051,27.4285621 C762.515411,27.4285621 762.383588,27.3006209 762.383588,27.1428431 L762.383588,26.8571242 C762.383588,26.6993137 762.515445,26.5714052 762.678051,26.5714052 L770.333947,26.5714052 C770.496553,26.5714052 770.628443,26.6993464 770.628443,26.8571242 L770.628443,27.1428431 C770.628376,27.3006536 770.496553,27.4285621 770.333947,27.4285621 L770.333947,27.4285621 Z M768.861633,32.285719 L762.678018,32.285719 C762.515378,32.285719 762.383555,32.1577778 762.383555,32 L762.383555,31.714281 C762.383555,31.5564706 762.515411,31.4285621 762.678018,31.4285621 L768.861633,31.4285621 C769.024307,31.4285621 769.15613,31.5564706 769.15613,31.714281 L769.15613,32 C769.156062,32.1577778 769.024307,32.285719 768.861633,32.285719 L768.861633,32.285719 Z M768.272741,34.8571569 L762.678051,34.8571569 C762.515411,34.8571569 762.383588,34.7292157 762.383588,34.5714379 L762.383588,34.285719 C762.383588,34.1279085 762.515445,34 762.678051,34 L768.272775,34 C768.435415,34 768.567238,34.1279085 768.567238,34.285719 L768.567238,34.5714379 C768.567204,34.7292157 768.435381,34.8571569 768.272741,34.8571569 L768.272741,34.8571569 Z" id="Shape"></path>
            </g>
        </g>
    </g>
</svg>