<?xml version="1.0" encoding="UTF-8" standalone="no"?>
<svg width="1440px" height="449px" viewBox="0 0 1440 449" version="1.1" xmlns="http://www.w3.org/2000/svg" xmlns:xlink="http://www.w3.org/1999/xlink">
    <!-- Generator: Sketch 3.8.3 (29802) - http://www.bohemiancoding.com/sketch -->
    <title>Combined Shape</title>
    <desc>Created with Sketch.</desc>
    <defs>
        <linearGradient x1="50%" y1="0%" x2="50%" y2="100%" id="linearGradient-1">
            <stop stop-color="#FFFBF2" offset="0%"></stop>
            <stop stop-color="#FFEEC7" offset="100%"></stop>
        </linearGradient>
        <path d="M0.255926594,1720.26537 C0.396686221,1720.24645 190.171464,1720.17454 190.598001,1720.10557 C191.903821,1720.85185 192.053036,1721.10386 192.01303,1721.30641 C193.81721,1721.57057 193.921095,1721.68052 194.462739,1721.82087 C196.500958,1721.86886 196.578924,1722.34642 196.578924,1723.35348 C196.578924,1724.7017 196.616576,1724.8382 196.988406,1724.8382 C199.815822,1723.9217 199.830748,1722.61459 199.671316,1722.05644 C201.134438,1722.01306 200.865776,1722.86583 201.268134,1723.26818 C203.757214,1723.69583 206.373685,1723.87866 207.532582,1723.577 C208.353984,1722.48353 208.220349,1721.91558 208.019846,1721.54326 C208.146642,1720.29501 208.34649,1719.96792 208.416368,1719.77086 C210.002376,1718.59359 210.033128,1718.50834 209.938886,1717.67236 C209.815447,1716.57708 209.499839,1716.1367 208.83832,1716.1367 C210.868862,1716.53312 210.917344,1717.51635 210.559887,1718.30089 C213.06289,1719.44114 213.787735,1719.24141 214.050889,1719.07258 C215.656736,1721.29118 215.760458,1721.30476 216.069495,1720.9957 C216.050003,1718.66705 215.919645,1718.18411 215.54894,1718.18411 C217.704743,1716.07876 219.388494,1716.31904 219.961974,1716.73229 C220.636024,1717.1456 221.788205,1716.94115 222.411642,1717.17564 C221.454989,1715.20099 221.271131,1715.12051 220.861157,1715.15173 C220.967746,1713.55673 220.590387,1713.42136 219.149152,1713.13193 C220.00153,1711.37751 220.046369,1711.22291 220.271584,1711.22291 C222.054,1712.86084 222.263,1713.00162 222.333267,1713.27032 C222.075846,1711.76385 222.185833,1711.64328 222.498084,1711.5975 C223.868561,1709.88928 223.881296,1709.78839 223.583049,1709.49014 C223.710705,1708.61739 223.83138,1707.73238 223.881726,1706.26162 L223.958463,1704.01941 C225.17999,1703.32112 225.214059,1702.98463 225.241617,1702.67496 C225.269175,1702.36529 225.391242,1701.02704 225.512879,1699.70107 C225.634516,1698.37511 225.680828,1696.84098 225.615802,1696.2919 C225.49867,1695.30282 225.699951,1692.87807 225.883911,1693.06205 C225.936489,1693.11463 226.015416,1694.71169 226.059313,1696.61107 C226.103189,1698.51046 226.144711,1700.09882 226.151569,1700.14075 C226.937264,1698.3283 226.966235,1697.86333 226.870846,1696.97261 C227.187744,1695.02357 227.302911,1694.65221 227.443671,1694.42509 C228.5858,1693.26339 228.615119,1693.25594 228.617801,1692.94975 C230.254871,1691.15826 230.259375,1691.14465 229.932916,1690.64641 C230.046137,1690.13456 230.558728,1689.76715 231.02605,1689.31811 C233.7781,1689.76926 234.184204,1691.15826 234.380305,1691.15826 C235.070304,1690.16936 235.167884,1689.85985 235.115388,1689.58528 C235.991619,1691.58822 236.061252,1691.77249 236.146383,1691.77249 C236.996756,1693.39518 237.253399,1693.68778 237.430848,1693.40065 C237.878535,1694.37458 238.563436,1694.58796 241.417263,1694.82952 C244.758845,1695.11235 247.47093,1695.44219 247.719875,1695.59605 C247.855803,1695.68005 247.877117,1697.6821 247.782485,1701.47694 C247.659907,1706.39232 247.683124,1707.29009 247.941917,1707.63993 C247.50633,1708.86822 247.656078,1709.86858 248.173725,1709.96434 C247.679603,1713.95774 247.70366,1715.13328 247.92822,1715.05935 C249.11617,1714.08928 249.173067,1713.99971 249.388967,1713.01439 C250.815584,1712.10121 251.372316,1714.03959 251.372316,1714.03959 C253.550948,1714.24894 254.008852,1714.63257 254.008852,1715.47303 C254.436004,1717.04264 254.531679,1717.36441 255.186114,1717.36969 C259.159467,1717.50425 259.702011,1717.39614 260.329747,1717.07153 C262.011472,1718.23161 262.135668,1718.37141 262.438173,1718.27538 C264.59719,1718.97105 265.231581,1719.20782 265.374818,1719.20782 C265.572066,1721.15599 265.790893,1721.52412 266.305674,1721.24862 C266.478026,1719.50698 266.523314,1719.33105 266.883168,1719.07901 C270.207265,1718.63798 270.98217,1694.56282 271.309879,1680.71646 C271.375171,1677.95757 271.478995,1675.35479 271.540602,1674.93252 C272.88438,1674.58806 273.211127,1674.15116 273.444491,1674.00944 C273.868756,1672.96458 274.007325,1672.93645 275.864983,1672.93854 C278.753923,1672.9418 279.39677,1673.07762 279.39677,1673.68474 C280.65122,1674.65182 282.207765,1674.62471 282.388941,1674.3316 C282.529987,1674.10335 282.633812,1671.12275 282.995507,1656.91528 C283.077936,1653.67781 283.211755,1651.02897 283.292894,1651.02897 C283.500645,1651.02897 283.771497,1652.24098 283.727539,1652.97402 C286.161606,1652.51124 286.482067,1652.41698 286.881313,1652.04189 C284.569968,1652.02985 284.546586,1651.46526 284.639928,1646.66027 C284.76394,1640.2752 284.761258,1640.13698 284.508402,1639.88413 C285.428182,1639.18637 285.643733,1638.97694 285.911535,1638.33936 C287.619098,1637.3913 288.240037,1637.31074 288.884726,1637.607 C291.086719,1638.28829 291.522204,1639.12681 290.862732,1639.29926 C291.572775,1639.76818 291.944708,1640.36556 291.794694,1641.28923 C291.678462,1642.59873 291.679363,1643.08743 291.673671,1643.51583 C291.898334,1644.77972 291.693019,1645.29083 291.574597,1647.04321 C291.319428,1650.81926 291.43656,1651.94093 292.104242,1652.11554 C292.498922,1652.21875 292.563395,1652.04515 292.773767,1650.31238 C292.814776,1649.97456 292.862153,1651.14326 292.879024,1652.9095 C292.89829,1654.92622 292.822249,1656.33525 292.674631,1656.69721 C292.337156,1657.52472 291.973351,1673.4695 292.283432,1673.84311 C292.408795,1673.99417 293.539171,1674.27593 294.796548,1674.46958 C296.053476,1674.66312 297.214072,1674.87222 297.375654,1674.93424 C297.62767,1675.03093 297.658586,1676.84376 297.592925,1687.67686 C297.52837,1698.32613 297.561641,1700.36144 297.805099,1700.6556 C299.110939,1701.35884 300.332118,1702.01487 301.678804,1702.60844 C303.854302,1703.56732 304.140265,1703.75239 304.243434,1704.26823 C304.338925,1704.74577 305.727317,1715.11299 305.727317,1715.11299 C305.739028,1720.68707 305.762061,1725.35728 305.778502,1725.49124 C307.278048,1725.85646 307.354129,1725.92341 307.462478,1726.5785 C307.665131,1727.80378 307.832835,1726.84131 307.93928,1723.84181 C307.994703,1722.28033 308.067694,1720.97711 308.101476,1720.9458 C310.860385,1720.66631 312.150255,1720.54146 312.769598,1720.46779 L313.998045,1717.65186 C314.066736,1715.85219 314.190092,1714.862 314.373008,1714.64205 C316.733102,1714.19333 316.763813,1714.17347 316.826157,1713.52696 C316.876503,1713.00489 317.133125,1712.66445 318.022194,1711.94022 C321.541082,1710.77628 321.731533,1710.77905 322.651189,1710.93389 C323.842047,1711.13438 324.030368,1710.8505 324.030368,1708.85493 C324.030368,1707.32654 324.077172,1707.11852 324.485405,1706.83258 C326.414396,1706.51386 326.553169,1706.4335 326.744193,1705.9274 C327.05456,1705.10514 327.648555,1704.80314 328.85917,1704.85212 C330.390041,1704.30681 330.711505,1704.27421 331.994005,1704.38721 C334.344209,1704.83353 336.251722,1705.07932 336.251722,1705.07932 L336.384825,1702.46954 C336.45802,1701.03416 336.518296,1698.18433 336.518746,1696.13657 C336.519217,1694.08881 336.606928,1692.18361 336.713701,1691.9028 C338.225838,1691.23889 338.316907,1690.83979 338.341844,1687.52079 L338.362257,1684.80465 C340.360614,1684.01904 340.40408,1683.86358 340.294298,1683.2784 C340.614411,1684.05081 341.394434,1685.11393 343.975423,1687.65999 C345.392499,1689.05788 346.552256,1690.30169 346.552665,1690.424 C346.553423,1690.641 348.070105,1691.363 348.525225,1691.363 C349.88008,1691.28852 350.691347,1691.52289 351.621998,1691.65314 L353.125168,1702.26548 L353.044336,1712.6561 C355.127435,1712.63931 355.570331,1712.7868 355.79311,1712.98841 C356.090579,1713.25763 356.670897,1713.38477 357.977945,1713.46712 C359.982096,1713.59338 360.269573,1713.70832 360.269573,1714.38342 C360.269573,1715.2172 360.623202,1715.2991 364.230048,1715.30066 C366.954171,1715.30184 367.68133,1715.24419 367.767281,1715.0202 C367.826779,1714.86513 367.948641,1714.10855 368.038072,1713.33889 C368.256387,1714.21813 368.593391,1715.42045 368.689824,1714.80588 C368.740989,1714.47973 368.79586,1713.83534 368.833696,1713.11676 C369.278189,1715.00874 369.534444,1715.49944 370.330519,1715.47682 C371.521622,1716.25307 371.782769,1716.34144 372.59248,1716.34144 C374.368058,1716.34144 374.396721,1716.38871 374.396721,1719.31739 C374.396721,1721.67749 374.425631,1721.86945 374.781144,1721.86945 C376.353024,1721.85039 376.749096,1722.08851 376.99669,1722.1635 C377.65436,1722.95356 377.978813,1723.07157 378.945643,1723.17263 C380.465273,1723.04874 380.638873,1718.41856 380.760203,1712.85027 C380.942628,1704.47947 381.032468,1702.67295 381.278976,1702.41903 C381.529539,1702.16096 382.573064,1702.10608 387.815567,1702.07533 C391.246724,1702.05521 394.545761,1701.9773 395.146779,1701.90222 C396.034987,1701.79123 396.446804,1701.85356 397.346683,1702.23513 C398.695162,1703.03864 398.703638,1707.48894 398.628334,1712.80965 C398.534931,1719.40973 398.558559,1722.48368 398.702676,1722.48368 C398.842166,1722.48368 398.964909,1719.54458 399.063942,1713.83336 C399.156239,1708.51023 399.293969,1705.0846 399.421994,1704.92711 C401.323876,1704.67119 401.627303,1704.29336 401.627303,1703.16372 C401.627303,1702.02005 402.009145,1701.80522 404.047631,1701.802 C406.155668,1701.79869 406.692561,1701.68096 406.849127,1701.1877 C407.000205,1700.71167 408.718517,1700.48697 411.659625,1700.55863 C415.464906,1700.65134 415.645242,1700.67238 415.714506,1701.03201 C415.835713,1701.66133 416.674435,1701.97094 418.637187,1702.11088 C419.697972,1702.18653 420.741559,1702.2976 420.956292,1702.35771 C421.334285,1702.46354 421.342823,1702.71089 421.22436,1710.11624 C421.157061,1714.3233 421.172335,1717.80892 421.258285,1717.86205 C421.396465,1717.94745 421.7158,1714.10005 421.996296,1708.97075 C422.309447,1703.24426 422.700585,1700.7741 423.384032,1700.20688 C423.533596,1700.08277 425.014653,1699.97319 426.915184,1699.94566 C428.715618,1699.91957 430.303878,1699.85667 430.444637,1699.8059 C431.268496,1699.78307 432.788331,1699.99797 434.553365,1700.16688 L437.76252,1700.47399 C438.205662,1701.74339 438.390278,1703.12441 438.458702,1704.3619 L438.583103,1706.61189 C440.328522,1706.85066 441.049703,1706.97035 441.311792,1707.03191 L441.736364,1719.81666 C441.681924,1733.09855 441.684299,1733.13749 442.549433,1733.12568 C442.732717,1733.12316 444.049531,1723.38681 444.049531,1723.38681 C444.128275,1718.4654 444.240534,1714.31409 444.299029,1714.16168 C446.016092,1713.88454 446.508863,1713.77206 446.650421,1713.60149 C446.802278,1713.41851 446.908395,1712.00614 446.950592,1709.60692 C446.986483,1707.56557 447.079149,1705.83209 447.156521,1705.75474 C447.233872,1705.67739 447.287514,1707.38055 447.275721,1709.53957 C447.263908,1711.6986 447.312595,1713.55946 447.383886,1713.67481 C449.062806,1713.88454 449.575355,1713.9861 449.652051,1714.11019 C449.728747,1714.2343 449.779769,1715.13261 449.765437,1716.10642 C449.734009,1718.23978 449.879232,1718.57635 450.621399,1718.09005 C452.949798,1718.08203 453.578763,1718.11163 453.706481,1718.02935 C455.438428,1718.22299 456.104022,1718.38613 456.748629,1718.44886 C458.264882,1718.77567 458.340636,1720.62776 458.340636,1723.82658 L458.340636,1728.83066 C460.691312,1728.11161 461.411755,1723.58385 461.411755,1721.78766 C461.411755,1720.04457 461.416935,1720.02678 461.925041,1720.02678 C462.437673,1720.02678 462.438164,1720.02867 462.308379,1721.51116 C462.236924,1722.32756 462.098068,1723.08306 461.999833,1723.19003 C461.631483,1723.59118 461.816631,1724.54677 462.351907,1725.0072 C462.903828,1725.48193 463.007488,1726.02654 462.751807,1727.10802 C462.563384,1727.90506 463.021861,1728.42117 463.918341,1728.42117 C465.237776,1729.04088 465.734662,1729.13144 467.009074,1729.15005 C467.931823,1729.16352 468.899799,1729.28854 469.160107,1729.42785 C470.879176,1730.21518 471.179736,1730.26352 473.076316,1730.26104 C475.837866,1730.25748 476.114206,1730.18011 476.254638,1729.37113 C476.316019,1729.01756 476.433459,1726.51913 476.515601,1723.81902 L476.66498,1718.90977 C480.163081,1717.97937 480.238979,1717.872 480.362786,1717.04638 C481.238587,1715.63121 481.480714,1715.24853 481.5155,1714.9519 C481.586606,1714.34593 482.058473,1714.14287 483.472642,1714.1097 L484.386894,1708.91957 C484.411155,1706.07622 484.434189,1703.13311 484.438079,1702.37931 C484.441969,1701.62552 484.537296,1700.92448 484.649904,1700.82144 C484.831182,1700.6556 486.166566,1700.38313 488.74473,1699.98593 C489.722369,1698.61518 489.87226,1698.21971 489.999139,1698.178 C490.075548,1699.87993 491.481568,1699.99846 496.3842,1700.14947 C499.42557,1700.24316 501.859739,1700.40366 501.974128,1700.51805 C502.102337,1700.64626 502.191584,1705.22192 502.217197,1712.98061 L502.257654,1725.24056 C504.667336,1725.2198 505.50528,1725.16067 505.674376,1725.09579 C505.91333,1725.00408 506.01353,1724.41686 506.124111,1722.46003 C506.202384,1721.07524 506.316383,1719.89216 506.377478,1719.83095 C509.612022,1719.52822 510.223031,1719.40504 510.350176,1719.19934 C511.629215,1719.55248 512.431985,1719.68323 514.292387,1719.78609 L516.794284,1719.92441 L516.918603,1722.58605 C516.986966,1724.04995 517.056067,1725.27792 517.072159,1725.31488 C519.159271,1725.24052 520.786739,1725.35826 520.786739,1725.5548 C522.397173,1726.1657 522.653754,1726.27804 522.909005,1726.66761 C523.122243,1726.99306 524.629958,1731.33874 524.629958,1731.33874 C524.663781,1733.80198 524.763818,1735.38238 524.885885,1735.38238 C525.086306,1734.04951 525.548817,1733.74563 526.659599,1733.74164 C529.398239,1732.08549 529.545018,1731.49229 529.181132,1731.49229 C529.603001,1730.67333 529.643847,1730.54043 530.003024,1728.3188 C530.327417,1726.31238 530.823382,1723.66501 530.939613,1723.31959 C531.238945,1722.42987 531.694802,1724.64867 532.750878,1732.13559 C536.045431,1732.92548 536.142335,1732.99039 536.142335,1733.41455 C537.244437,1734.11036 537.643703,1734.31211 537.740627,1734.48532 C538.639667,1732.52443 538.645195,1732.43042 538.445674,1732.36326 C538.066678,1730.82617 538.371947,1730.69132 538.653446,1730.4699 C540.039483,1729.73492 540.23716,1729.50448 540.23716,1729.23879 C541.262075,1728.44415 545.242286,1728.05469 547.671111,1728.02213 C548.211751,1727.62461 548.795182,1725.80911 549.038885,1725.6585 C550.398019,1726.17686 551.846154,1726.05252 552.345764,1725.61872 C555.020422,1725.41137 555.586962,1725.23882 556.411721,1724.60054 C558.970086,1724.42598 559.140144,1724.49845 559.940642,1725.26818 C560.809973,1726.10408 560.82193,1726.10817 562.772439,1726.23276 C563.849767,1726.30157 564.876176,1726.4135 565.053339,1726.48148 C565.662526,1729.28539 565.861882,1729.53587 566.239302,1728.83066 C566.317227,1728.42117 566.40285,1727.89141 566.557593,1727.24391 C566.712337,1726.59642 566.853117,1725.09925 566.870458,1723.91687 C566.8878,1722.73449 566.960606,1721.49068 567.032286,1721.15286 C568.849487,1720.41645 568.900939,1720.37593 568.900939,1719.7911 C569.719904,1717.81644 570.196132,1717.52853 571.193836,1717.60131 C572.185624,1715.13537 572.265002,1714.87545 572.625613,1714.68246 C573.185908,1714.3826 573.469126,1714.83045 573.609988,1716.23907 C576.93857,1717.55091 577.295331,1717.77678 577.295331,1718.72102 C579.410984,1718.79833 579.547485,1718.859 579.547485,1719.20782 C579.547485,1719.95473 580.790101,1720.84575 581.831743,1720.84575 C582.233015,1720.84575 582.244378,1720.74557 582.176711,1717.80565 C582.127819,1715.68076 582.025592,1714.66788 581.837127,1714.44113 C582.420804,1712.81438 582.639672,1709.75485 582.604088,1703.74985 L582.57133,1698.22184 L583.44017,1696.37916 C583.918036,1695.3657 584.674637,1693.76325 585.121505,1692.81818 C585.735504,1691.51965 585.90376,1690.94881 585.810296,1690.48151 C586.210462,1689.28426 586.311461,1688.25286 586.4159,1685.11569 C586.490835,1682.86503 586.601559,1680.94202 586.661958,1680.84235 C586.928265,1680.40294 587.3141,1681.75882 587.325279,1683.17335 C587.331953,1684.01791 587.428898,1685.07745 587.540687,1685.52788 C587.652496,1685.97831 587.777081,1687.11087 587.817559,1688.04472 C587.858015,1688.97855 587.938438,1689.78987 587.996236,1689.84767 C588.091154,1689.94259 592.266075,1690.35308 593.777004,1690.41605 C594.474844,1688.22022 594.582906,1687.39102 594.685277,1687.16581 C594.787668,1686.94059 594.926462,1685.85833 594.99372,1684.76077 C595.108518,1682.88712 595.389239,1681.74016 595.733,1681.74016 C596.050983,1681.74016 596.118138,1682.44832 596.025718,1684.82658 C595.968309,1686.30387 596.021009,1687.63534 596.157224,1688.14992 C596.344214,1689.96053 596.32591,1690.51333 596.317864,1690.85115 C596.308834,1691.22933 596.976639,1692.84234 598.055523,1695.04835 L599.807842,1698.63132 L599.64409,1703.85222 C599.544791,1707.01807 599.556338,1709.43578 599.673389,1709.99446 C599.779568,1710.50119 599.883904,1714.0944 599.905258,1717.97937 C599.958102,1727.59871 599.934925,1727.19273 600.431095,1727.19273 C603.403939,1727.73312 603.902258,1728.01169 604.123563,1728.01169 C605.773327,1727.76529 606.092949,1727.66642 606.265259,1727.73255 C609.025581,1726.40064 609.787424,1726.17152 610.332772,1725.86705 C612.306089,1726.3021 612.398223,1726.5785 612.510831,1726.5785 C613.656706,1726.27272 614.272752,1726.05187 614.669623,1726.38123 C615.931095,1724.91991 615.994769,1724.37141 616.007914,1722.30821 C616.016963,1720.88452 616.13213,1719.30554 616.26384,1718.79936 C618.367741,1717.54026 618.424311,1717.49098 618.519885,1716.78264 C618.575431,1716.37106 618.63327,1715.57366 618.648442,1715.01062 C620.16324,1714.2687 621.440027,1714.15009 621.984824,1713.6053 C624.095419,1713.4545 624.52728,1713.61658 624.477917,1713.69643 C627.005735,1713.44222 628.419125,1713.39452 629.606727,1713.68545 C631.051279,1714.03933 634.441242,1714.14721 635.292208,1713.86636 C636.603084,1714.14491 638.386995,1714.17763 638.205861,1713.88454 C637.921352,1713.4242 640.607803,1713.86372 641.10254,1714.35846 C642.356212,1714.49877 642.607798,1714.90207 642.607798,1715.9867 C643.666003,1716.6474 644.634429,1716.94375 644.891421,1717.42395 C645.036951,1717.69586 645.116206,1718.93746 645.102857,1720.73584 C645.090327,1722.42232 645.169173,1723.73921 645.29341,1723.91836 C646.757064,1724.59257 648.340554,1724.79326 648.340554,1724.48973 C649.782014,1723.94614 650.797449,1723.34867 650.797449,1723.0971 C651.044961,1721.68758 651.135211,1721.22509 651.269255,1719.14603 C651.891075,1718.01436 652.095058,1715.9677 651.922564,1714.76532 C651.126693,1714.16387 651.127758,1714.15929 651.703552,1713.02973 C651.560786,1711.16814 651.351213,1710.56235 651.281867,1710.21554 C652.287372,1708.05538 652.341075,1698.51394 652.211208,1694.43412 C652.155662,1692.6887 652.186475,1690.13734 652.279694,1688.76441 C652.486114,1685.7239 652.220278,1681.37261 651.8127,1681.12072 C651.994326,1680.08571 652.100422,1679.67093 652.066394,1679.46989 C651.96169,1678.85126 652.758297,1678.58905 655.036556,1678.49219 C655.970688,1676.98241 656.05412,1676.9459 657.488353,1677.02084 C658.681995,1675.84881 658.780598,1675.29495 658.781212,1675.04975 C658.782523,1674.5423 659.671366,1673.75525 660.243167,1673.75525 C660.62503,1671.84309 660.795068,1671.5031 661.350203,1671.5031 C662.848991,1671.11446 662.877307,1671.02382 662.879436,1669.61432 C662.880685,1668.79511 662.939405,1667.7756 663.009959,1667.34874 C664.899721,1667.51064 665.020273,1667.42547 665.159579,1666.90465 C663.13653,1666.41186 663.081925,1666.24557 663.081925,1665.47245 C665.874207,1665.15612 665.950453,1665.12029 665.979015,1664.64427 C666.0449,1663.69267 662.979555,1663.62056 662.979555,1663.62056 C665.224932,1662.30254 665.207222,1661.95704 665.136136,1661.67552 C665.020846,1661.21911 662.979555,1661.12988 662.979555,1661.12988 C662.806999,1657.8176 662.834025,1657.78543 664.716559,1657.78543 C667.891196,1657.70866 667.965496,1656.28059 667.978436,1654.81669 C668.002022,1652.14997 668.172531,1651.32863 668.611435,1651.76754 C668.749123,1651.90523 668.85049,1653.18287 668.875878,1655.1005 C668.919857,1658.422 668.974809,1658.59435 669.991944,1658.60127 C669.01457,1659.62811 668.937014,1659.80842 669.015819,1660.54944 C670.554982,1662.08205 670.355544,1662.21386 669.684832,1662.3465 C668.814681,1663.6948 669.490491,1664.22344 670.028039,1663.93576 C670.779747,1664.55672 671.101355,1665.07424 671.3797,1665.40504 C670.599309,1666.71015 670.450748,1667.46804 671.035264,1668.09373 C671.30886,1668.38661 671.495297,1668.9659 671.59126,1669.82138 C671.689453,1670.69681 671.843235,1671.16601 672.072135,1671.28851 C674.929587,1671.81924 675.756332,1672.01612 675.872236,1672.13235 C675.990433,1672.25088 676.0633,1673.08075 676.038138,1674.02199 C675.973296,1676.44799 676.013282,1676.54934 677.099926,1676.71229 C678.097282,1676.86185 678.233456,1676.9863 678.425093,1677.92327 C681.946439,1678.83855 682.217229,1678.83963 682.356535,1678.75354 C682.750314,1678.51016 687.301488,1678.46404 687.586426,1678.70051 C688.810062,1678.59845 695.653519,1678.53209 695.761008,1678.706 C697.745094,1678.54593 698.137481,1678.46078 698.268188,1678.38001 C699.565162,1678.54868 702.122995,1678.51872 704.201078,1678.27678 C706.03943,1678.06276 706.379894,1678.07165 706.796235,1678.34445 C707.378499,1678.37518 708.467948,1678.22869 709.762936,1678.15017 C711.057925,1678.07165 712.172598,1677.9752 712.239999,1677.93582 C712.307399,1677.89645 713.339009,1677.77172 714.532466,1677.65865 C716.003061,1677.5193 720,1678.03371 720,1678.03371 L720,2014.37182 L0,2014.37182 C0,2014.37182 0.0516562237,1720.29282 0.255926594,1720.26537 Z M505.40723,1725.8294 C505.437245,1724.78915 505.530914,1723.84478 505.61539,1723.7308 C505.699846,1723.6168 505.782705,1723.09516 505.799473,1722.57158 C505.826827,1721.71779 505.788294,1721.63053 505.42582,1721.72532 C505.203533,1721.78345 505.016194,1721.98149 505.009499,1722.16541 C504.847385,1726.62048 504.865075,1727.72074 505.098889,1727.72074 C505.278529,1727.72074 505.368616,1727.16814 505.40723,1725.8294 L505.40723,1725.8294 Z M603.092732,1722.80695 C603.092732,1722.69434 602.954532,1722.60221 602.78562,1722.60221 C602.616708,1722.60221 602.478508,1722.69434 602.478508,1722.80695 C602.478508,1722.91956 602.616708,1723.01169 602.78562,1723.01169 C602.954532,1723.01169 603.092732,1722.91956 603.092732,1722.80695 L603.092732,1722.80695 Z M609.46858,1722.39747 C610.049206,1722.39747 610.368152,1722.12602 610.168017,1721.80218 C610.10295,1721.69692 609.612145,1721.75743 609.035675,1721.94177 C608.217324,1722.20348 608.06342,1722.32169 608.249346,1722.54574 C608.40974,1722.739 608.545893,1722.75896 608.693962,1722.61089 C608.81134,1722.49351 609.159912,1722.39747 609.46858,1722.39747 L609.46858,1722.39747 Z M221.864471,1719.63346 C221.864471,1719.46455 221.71499,1719.32635 221.532299,1719.32635 C221.260239,1719.32635 221.246235,1719.38194 221.454989,1719.63346 C221.775921,1720.02016 221.864471,1720.02016 221.864471,1719.63346 L221.864471,1719.63346 Z M193.251878,1719.03629 C193.28003,1718.93308 193.187896,1718.81024 193.047137,1718.76331 C192.906377,1718.71638 192.79121,1718.83155 192.79121,1719.01924 C192.79121,1719.36595 193.15827,1719.37954 193.251878,1719.03629 L193.251878,1719.03629 Z M220.636024,1718.50738 C220.636024,1718.39478 220.54389,1718.30264 220.431282,1718.30264 C220.318675,1718.30264 220.226541,1718.39478 220.226541,1718.50738 C220.226541,1718.61999 220.318675,1718.71212 220.431282,1718.71212 C220.54389,1718.71212 220.636024,1718.61999 220.636024,1718.50738 L220.636024,1718.50738 Z M218.48624,1715.94812 C218.48624,1715.83551 218.140739,1715.71477 217.718461,1715.67982 C216.998447,1715.62024 216.760456,1715.792 217.096886,1716.12843 C217.310104,1716.34165 218.48624,1716.18902 218.48624,1715.94812 L218.48624,1715.94812 Z M221.783865,1715.47222 C221.805403,1715.04361 221.721378,1714.82204 221.537295,1714.82204 C221.218062,1714.82204 220.936502,1715.70847 221.147365,1716.04967 C221.398849,1716.45657 221.75039,1716.13763 221.783865,1715.47222 L221.783865,1715.47222 Z M219.814888,1715.74598 C219.953887,1715.5785 220.009311,1715.28957 219.938061,1715.10389 C219.819434,1714.79475 219.77437,1714.79721 219.403297,1715.13302 C219.180436,1715.33471 218.998093,1715.62364 218.998093,1715.77511 C218.998093,1716.14348 219.499853,1716.12559 219.814888,1715.74598 L219.814888,1715.74598 Z M222.888178,1715.42418 C222.888178,1715.31821 222.749977,1715.23152 222.581066,1715.23152 C222.264454,1715.23152 222.174306,1715.47312 222.404886,1715.70368 C222.568454,1715.86727 222.888178,1715.68236 222.888178,1715.42418 L222.888178,1715.42418 Z M218.124176,1714.00308 C218.192969,1714.00308 218.418123,1714.15589 218.624502,1714.34268 C219.150585,1714.81879 220.0218,1714.42583 220.0218,1713.71245 C220.0218,1713.06039 219.736186,1712.89684 219.155888,1713.2166 C218.900186,1713.35749 218.529748,1713.44808 218.332684,1713.41792 C218.135621,1713.38779 217.974387,1713.45463 217.974387,1713.56649 C217.974387,1713.67834 217.777651,1713.7993 217.537183,1713.83527 C217.296714,1713.87126 216.963149,1714.10778 216.795937,1714.36088 C216.506781,1714.79854 216.525699,1714.83537 217.181956,1715.11275 L217.872016,1715.40443 L217.935568,1714.70374 C217.970518,1714.31838 218.055383,1714.00308 218.124176,1714.00308 L218.124176,1714.00308 Z M248.071355,1715.03886 C248.071355,1714.93291 247.979221,1714.78926 247.866613,1714.71967 C247.754006,1714.65008 247.661872,1714.73677 247.661872,1714.91233 C247.661872,1715.08788 247.754006,1715.23152 247.866613,1715.23152 C247.979221,1715.23152 248.071355,1715.14484 248.071355,1715.03886 L248.071355,1715.03886 Z M248.071355,1713.59359 C248.071355,1713.36838 247.979221,1713.18411 247.866613,1713.18411 C247.754006,1713.18411 247.661872,1713.36838 247.661872,1713.59359 C247.661872,1713.81881 247.754006,1714.00308 247.866613,1714.00308 C247.979221,1714.00308 248.071355,1713.81881 248.071355,1713.59359 L248.071355,1713.59359 Z M221.506174,1713.48842 C221.430747,1713.19085 220.991803,1713.24285 220.88544,1713.56196 C220.825635,1713.74135 220.926797,1713.81179 221.175476,1713.7639 C221.38552,1713.72344 221.534326,1713.59949 221.506174,1713.48842 L221.506174,1713.48842 Z M248.157796,1711.63913 C248.302548,1711.0624 248.14758,1710.65594 247.852466,1710.83833 C247.608844,1710.98889 247.601719,1712.1604 247.844419,1712.1604 C247.944824,1712.1604 248.08583,1711.92583 248.157796,1711.63913 L248.157796,1711.63913 Z M683.14657,1703.35653 C683.14657,1703.24392 683.00837,1703.15179 682.839459,1703.15179 C682.670547,1703.15179 682.532347,1703.24392 682.532347,1703.35653 C682.532347,1703.46914 682.670547,1703.56127 682.839459,1703.56127 C683.00837,1703.56127 683.14657,1703.46914 683.14657,1703.35653 L683.14657,1703.35653 Z M681.338029,1702.55898 C681.375558,1702.45817 682.419739,1702.32267 683.658424,1702.25791 C684.897108,1702.19313 686.555513,1701.99725 687.343767,1701.82261 C688.132021,1701.64796 689.790425,1701.46955 691.02911,1701.42615 C692.267794,1701.38274 693.424337,1701.28971 693.599206,1701.21938 C693.774076,1701.14907 694.078526,1700.81835 694.275753,1700.48446 C694.597422,1699.93993 694.642711,1699.03028 694.715353,1691.65425 C694.778905,1685.19962 694.853574,1683.39479 695.062492,1683.26226 C695.340736,1683.08577 695.941917,1683.04746 699.047208,1683.00838 C700.07892,1682.9954 700.996468,1682.91178 701.086185,1682.82258 C701.175903,1682.73337 701.227784,1681.85583 701.201455,1680.87248 C701.169146,1679.66577 701.238451,1678.97878 701.414631,1678.75924 C701.592531,1678.5375 702.320038,1678.35829 703.699257,1678.19643 C704.812231,1678.0658 705.794027,1677.91497 705.881001,1677.8612 C706.188727,1677.67102 705.830737,1676.99142 705.292451,1676.74395 C704.975819,1676.59838 703.951887,1676.50033 702.852918,1676.51034 C701.309087,1676.52441 700.959061,1676.47156 700.959061,1676.2244 C700.959061,1675.82644 700.82688,1675.84166 700.160407,1676.31623 C699.800676,1676.57238 699.505071,1676.64909 699.319596,1676.53448 C699.162293,1676.43725 698.95188,1676.4082 698.852008,1676.4699 C698.691327,1676.56922 697.763071,1676.57115 693.383634,1676.48129 C692.764292,1676.46857 691.93509,1676.47193 691.540963,1676.48872 C691.146836,1676.50551 690.3637,1676.51947 689.800662,1676.51976 C689.237623,1676.52005 688.178087,1676.5362 687.446137,1676.55569 C686.714187,1676.57516 685.700718,1676.57713 685.193983,1676.56007 C683.926717,1676.5174 680.807258,1676.67639 679.540544,1676.84821 L678.493784,1676.99019 L678.363282,1678.534 C678.196029,1680.51262 678.191873,1701.05335 678.358552,1701.88677 C678.467127,1702.42964 678.586102,1702.52643 679.228703,1702.59454 C680.689839,1702.74945 681.270751,1702.73966 681.338029,1702.55898 L681.338029,1702.55898 Z M665.094164,1664.37956 C665.181179,1663.61805 664.892698,1663.32506 664.344667,1663.61838 C663.984773,1663.81098 663.868992,1664.43521 664.082291,1665.03298 C664.095129,1665.06895 664.312932,1665.06895 664.5663,1665.03298 C664.901789,1664.98531 665.045231,1664.80776 665.094164,1664.37956 L665.094164,1664.37956 Z M665.948303,1662.01087 C665.948303,1661.6797 665.85617,1661.35179 665.743562,1661.2822 C665.621721,1661.20689 665.538821,1661.4507 665.538821,1661.88434 C665.538821,1662.2851 665.630954,1662.61302 665.743562,1662.61302 C665.85617,1662.61302 665.948303,1662.34206 665.948303,1662.01087 L665.948303,1662.01087 Z M667.416564,1661.4552 C667.927128,1660.99314 667.887469,1660.43385 667.333829,1660.28908 C666.729514,1660.13104 666.585008,1660.32554 666.710105,1661.12864 C666.82867,1661.88983 666.8999,1661.92277 667.416564,1661.4552 L667.416564,1661.4552 Z M669.838388,1660.64607 C669.838388,1660.48921 669.65412,1660.36086 669.428905,1660.36086 C669.043459,1660.36086 668.872193,1660.75959 669.141817,1661.02922 C669.341051,1661.22847 669.838388,1660.9549 669.838388,1660.64607 L669.838388,1660.64607 Z M667.750027,1658.68198 C667.885156,1658.54685 667.995716,1658.22439 667.995716,1657.96539 C667.995716,1657.49923 667.954584,1657.48097 666.726996,1657.40212 C666.535931,1657.38986 666.313275,1657.31347 666.232198,1657.23241 C665.973691,1656.97389 665.538821,1657.07405 665.538821,1657.39211 C665.538821,1657.56432 665.721532,1657.69922 665.954732,1657.69922 C666.330985,1657.69922 666.426415,1657.82752 666.678104,1658.67175 C666.775171,1658.99728 667.42848,1659.00353 667.750027,1658.68198 L667.750027,1658.68198 Z M667.54119,1656.21485 C667.745809,1655.96527 667.862041,1655.39949 667.814561,1654.88403 C667.801417,1654.74141 667.519058,1654.62811 667.176751,1654.62811 C666.6011,1654.62811 666.562527,1654.67739 666.562527,1655.41294 C666.562527,1655.84462 666.62395,1656.25922 666.699028,1656.33428 C666.914907,1656.55018 667.312474,1656.49379 667.54119,1656.21485 L667.54119,1656.21485 Z M666.153045,1654.7123 C666.153045,1653.60589 665.808997,1653.44581 664.054447,1653.73582 C663.415613,1653.84141 663.286667,1653.94529 663.286667,1654.35439 C663.286667,1654.96089 663.849152,1655.20836 665.180524,1655.18762 C666.047767,1655.17413 666.153045,1655.12268 666.153045,1654.7123 L666.153045,1654.7123 Z M284.105819,1649.40721 C284.105819,1649.25158 284.013686,1649.06731 283.901078,1648.99772 C283.784498,1648.92567 283.696337,1649.102 283.696337,1649.40721 C283.696337,1649.71241 283.784498,1649.88873 283.901078,1649.81669 C284.013686,1649.7471 284.105819,1649.56283 284.105819,1649.40721 L284.105819,1649.40721 Z M286.153232,1648.66645 C286.153232,1648.55384 286.061099,1648.51865 285.948491,1648.58824 C285.835883,1648.65783 285.74375,1648.8069 285.74375,1648.91951 C285.74375,1649.03212 285.835883,1649.06731 285.948491,1648.99772 C286.061099,1648.92813 286.153232,1648.77906 286.153232,1648.66645 L286.153232,1648.66645 Z M286.830885,1645.53027 C287.065068,1645.35271 287.121576,1645.19996 286.984441,1645.11521 C286.654664,1644.91139 286.725013,1644.36486 287.118014,1644.07748 C287.416854,1643.85896 287.427624,1643.77176 287.191045,1643.4867 C286.934975,1643.17816 286.882623,1643.1802 286.514867,1643.51301 C286.134027,1643.85765 286.104238,1643.85734 285.847287,1643.50593 C285.665313,1643.25706 285.532375,1643.21245 285.436228,1643.36799 C285.358099,1643.49442 285.457624,1643.77852 285.657431,1643.99929 C285.93592,1644.30704 285.964502,1644.45693 285.779866,1644.64157 C285.461063,1644.96037 285.475825,1645.11759 285.860739,1645.5025 C286.248375,1645.89012 286.352343,1645.89311 286.830885,1645.53027 L286.830885,1645.53027 Z M288.200645,1645.31238 C288.200645,1645.14347 288.062445,1645.00527 287.893533,1645.00527 C287.724621,1645.00527 287.586421,1645.14347 287.586421,1645.31238 C287.586421,1645.48129 287.724621,1645.61949 287.893533,1645.61949 C288.062445,1645.61949 288.200645,1645.48129 288.200645,1645.31238 L288.200645,1645.31238 Z M290.350428,1643.77682 C290.186144,1643.51098 289.633834,1643.51098 289.633834,1643.77682 C289.633834,1643.88943 289.823547,1643.98156 290.055396,1643.98156 C290.287266,1643.98156 290.42002,1643.88943 290.350428,1643.77682 L290.350428,1643.77682 Z M287.49611,1642.73358 C287.73881,1642.34091 287.146186,1641.52467 286.618404,1641.52467 C286.344317,1641.52467 286.184721,1641.61473 286.255603,1641.72941 C286.325194,1641.84201 286.284574,1641.93415 286.165312,1641.93415 C285.821674,1641.93415 286.010794,1642.42168 286.460344,1642.69468 C286.976272,1643.008 287.318579,1643.02085 287.49611,1642.73358 L287.49611,1642.73358 Z M287.314668,1641.06858 C288.267022,1641.17593 288.607568,1640.97141 288.600771,1640.29622 C288.598355,1640.05581 288.552349,1640.06693 288.388986,1640.3474 C288.124829,1640.80093 287.669976,1640.80928 287.499017,1640.36378 C287.335613,1639.93792 287.747512,1639.66322 288.330164,1639.80945 C288.572189,1639.87019 288.825679,1639.83012 288.893489,1639.7204 C288.9613,1639.61068 288.764052,1639.45784 288.455159,1639.38076 C288.146266,1639.30365 287.731562,1639.09461 287.533577,1638.9162 C287.197515,1638.61335 287.196225,1638.56683 287.514127,1638.21556 C287.783444,1637.91796 287.7945,1637.83988 287.566971,1637.84209 C286.925619,1637.84833 286.368272,1638.10012 286.501947,1638.32325 C286.578603,1638.45121 286.483214,1638.42761 286.289958,1638.27079 C285.802817,1637.87552 285.706487,1638.04601 285.604382,1639.4843 C285.514828,1640.74575 285.801671,1641.54864 286.199708,1641.1506 C286.302366,1641.04795 286.804105,1641.01103 287.314668,1641.06858 L287.314668,1641.06858 Z M289.121981,1638.24879 C288.959846,1637.98643 288.814869,1637.98643 288.814869,1638.24879 C288.814869,1638.36139 288.912448,1638.45353 289.03169,1638.45353 C289.150952,1638.45353 289.191572,1638.36139 289.121981,1638.24879 L289.121981,1638.24879 Z M290.154102,1637.21146 C290.342546,1636.90656 290.124066,1636.7408 289.732048,1636.89123 C289.551159,1636.96066 289.460479,1637.11024 289.530562,1637.22363 C289.696526,1637.49216 289.984085,1637.48655 290.154102,1637.21146 L290.154102,1637.21146 Z M286.309204,1635.78986 C286.165373,1635.55959 286.01839,1635.47984 285.975394,1635.60881 C285.933156,1635.73554 286.024982,1635.91932 286.17946,1636.01717 C286.582657,1636.27258 286.596026,1636.24916 286.309204,1635.78986 L286.309204,1635.78986 Z M287.38168,1635.0635 C287.38168,1634.62323 286.968307,1634.49633 286.445541,1634.77611 C286.005552,1635.01158 285.990893,1635.06115 286.295343,1635.28378 C286.700854,1635.58029 287.38168,1635.44223 287.38168,1635.0635 L287.38168,1635.0635 Z M288.610127,1635.17767 C288.858479,1635.01717 288.829078,1634.9786 288.456572,1634.97606 C288.203204,1634.97434 287.995904,1635.06506 287.995904,1635.17767 C287.995904,1635.43419 288.213175,1635.43419 288.610127,1635.17767 L288.610127,1635.17767 Z M604.730662,1721.46708 C604.730662,1721.15301 604.799762,1720.97941 604.884218,1721.08133 C604.968674,1721.18325 605.111235,1721.3219 605.201014,1721.38944 C605.290814,1721.45701 605.221714,1721.63059 605.047458,1721.7752 C604.774436,1722.00181 604.730662,1721.95922 604.730662,1721.46708 L604.730662,1721.46708 Z M648.340554,1717.67634 C648.340554,1717.55708 648.24842,1717.51646 648.135812,1717.58605 C648.023205,1717.65564 647.931071,1717.62487 647.931071,1717.51766 C647.931071,1717.41046 648.069271,1717.26972 648.238183,1717.2049 C648.447081,1717.12475 648.545295,1717.21594 648.545295,1717.49011 C648.545295,1717.71178 648.499228,1717.89316 648.442924,1717.89316 C648.38662,1717.89316 648.340554,1717.79558 648.340554,1717.67634 L648.340554,1717.67634 Z M378.081778,1717.02301 C378.081634,1716.99486 377.944785,1716.19499 377.777696,1715.24555 C377.471628,1713.50627 377.481169,1713.24639 377.842988,1713.47001 C378.102886,1713.63063 378.760454,1716.59999 378.59531,1716.86722 C378.484811,1717.04598 378.082576,1717.16803 378.081778,1717.02301 L378.081778,1717.02301 Z M645.587357,1715.04427 C645.52143,1714.9376 645.554762,1714.79641 645.661432,1714.73048 C645.768102,1714.66455 645.909292,1714.69789 645.975219,1714.80456 C646.041145,1714.91123 646.007813,1715.05242 645.901143,1715.11834 C645.794473,1715.18427 645.653284,1715.15094 645.587357,1715.04427 L645.587357,1715.04427 Z M645.59657,1713.85247 C645.373361,1713.62926 645.469323,1713.40587 645.883658,1713.18411 C646.227337,1713.00017 646.293141,1713.0284 646.293141,1713.35974 C646.293141,1713.75434 645.827662,1714.08358 645.59657,1713.85247 L645.59657,1713.85247 Z M207.942065,1711.84121 C207.942065,1711.66565 208.034198,1711.57896 208.146806,1711.64855 C208.411721,1711.81228 208.411721,1712.1604 208.146806,1712.1604 C208.034198,1712.1604 207.942065,1712.01676 207.942065,1711.84121 L207.942065,1711.84121 Z M212.446373,1711.55826 C212.446373,1711.45231 212.538506,1711.30866 212.651114,1711.23907 C212.763722,1711.16948 212.855855,1711.25616 212.855855,1711.43173 C212.855855,1711.60727 212.763722,1711.75092 212.651114,1711.75092 C212.538506,1711.75092 212.446373,1711.66423 212.446373,1711.55826 L212.446373,1711.55826 Z M211.429177,1710.4785 C211.435524,1710.22163 212.03689,1709.29816 212.03689,1709.54526 C212.03689,1709.61387 212.090102,1709.80868 212.155149,1709.97817 C212.226706,1710.16465 212.105438,1710.37623 211.848037,1710.51398 C211.519714,1710.68969 211.424161,1710.68158 211.429177,1710.4785 L211.429177,1710.4785 Z M209.381764,1709.22505 C209.377731,1708.99199 209.608843,1708.7608 209.989477,1708.61713 C210.3273,1708.48962 210.603701,1708.31336 210.603701,1708.22544 C210.603701,1708.1375 210.741902,1708.06558 210.910813,1708.06558 C211.389478,1708.06558 211.271506,1708.61478 210.757257,1708.78043 C210.50389,1708.86206 210.217129,1708.91542 210.12002,1708.89902 C210.022912,1708.88262 209.818539,1709.03388 209.665863,1709.23516 C209.40015,1709.5855 209.387988,1709.58507 209.381764,1709.22505 L209.381764,1709.22505 Z M216.745939,1707.89894 C216.745939,1707.79163 216.979918,1707.65911 217.2659,1707.60444 C217.59406,1707.54171 217.758078,1707.58955 217.710537,1707.73412 C217.617073,1708.0183 216.745939,1708.16715 216.745939,1707.89894 L216.745939,1707.89894 Z M209.579995,1707.36106 C209.579995,1707.19881 209.662465,1707.01507 209.763279,1706.95277 C209.97404,1706.82249 210.228185,1707.34915 210.043611,1707.5337 C209.823924,1707.75341 209.579995,1707.66257 209.579995,1707.36106 L209.579995,1707.36106 Z M211.422666,1707.33398 C211.422666,1707.1433 211.561972,1707.03886 211.76399,1707.07805 C212.277645,1707.17766 212.348179,1707.6561 211.849204,1707.6561 C211.59772,1707.6561 211.422666,1707.52389 211.422666,1707.33398 L211.422666,1707.33398 Z M222.257329,1705.76224 C222.248177,1705.73409 222.222093,1705.45769 222.199367,1705.14802 C222.146318,1704.42485 222.728111,1704.37794 223.047814,1705.07961 C223.229338,1705.478 223.212549,1705.59752 222.961577,1705.69383 C222.639335,1705.8175 222.286423,1705.85177 222.257329,1705.76224 L222.257329,1705.76224 Z M447.131502,1699.77356 C447.129229,1699.32313 447.169297,1699.11476 447.220544,1699.31049 C447.27179,1699.50625 447.273653,1699.87478 447.224679,1700.12946 C447.175705,1700.38416 447.133774,1700.22399 447.131502,1699.77356 L447.131502,1699.77356 Z M368.331548,1698.45074 C368.406299,1697.55428 368.519766,1694.62904 368.583687,1691.95021 C368.711036,1686.61291 369.068719,1684.88659 369.103811,1689.43981 C369.1301,1692.85113 369.124019,1693.74923 369.06186,1695.62755 C369.034854,1696.44395 369.079713,1697.64656 369.161548,1698.30001 C369.3175,1699.54507 369.120641,1700.08067 368.507093,1700.08067 C368.242977,1700.08067 368.216278,1699.83279 368.331548,1698.45074 L368.331548,1698.45074 Z M225.77071,1687.09665 C225.761824,1686.88083 225.810225,1686.75989 225.87826,1686.82793 C225.946296,1686.89597 225.953564,1687.07255 225.894414,1687.22036 C225.829061,1687.38368 225.780537,1687.33518 225.77071,1687.09665 L225.77071,1687.09665 Z M340.204928,1675.49964 C340.204928,1675.13423 340.290224,1674.92603 340.40967,1674.99986 C340.676243,1675.16462 340.676243,1676.12594 340.40967,1676.12594 C340.297062,1676.12594 340.204928,1675.84409 340.204928,1675.49964 L340.204928,1675.49964 Z M283.082113,1644.15217 C283.082113,1643.57038 283.115916,1643.13274 283.157233,1643.17965 C283.331529,1643.37755 283.425812,1645.21001 283.261712,1645.21001 C283.162924,1645.21001 283.082113,1644.73399 283.082113,1644.15217 L283.082113,1644.15217 Z M283.026669,1642.62941 C282.944547,1642.54731 282.888141,1641.96572 282.901306,1641.33698 L282.92524,1640.19385 L283.110019,1641.30803 C283.303397,1642.47411 283.277764,1642.88052 283.026669,1642.62941 L283.026669,1642.62941 Z M293.146764,1641.93415 C293.146764,1641.65263 293.19324,1641.53746 293.250035,1641.67822 C293.30683,1641.81898 293.30683,1642.04932 293.250035,1642.19008 C293.19324,1642.33083 293.146764,1642.21567 293.146764,1641.93415 L293.146764,1641.93415 Z M293.114435,1640.82015 C293.114435,1640.46052 293.2373,1640.40758 293.412805,1640.69155 C293.477585,1640.79638 293.436964,1640.94003 293.322514,1641.01074 C293.208063,1641.08148 293.114435,1640.99572 293.114435,1640.82015 L293.114435,1640.82015 Z M282.646198,1638.09523 C282.631662,1637.67295 282.593764,1636.93588 282.561988,1636.4573 C282.530212,1635.97872 282.588175,1635.58715 282.690791,1635.58715 C282.793407,1635.58715 282.878621,1636.11692 282.880156,1636.76441 C282.881712,1637.41191 282.938508,1638.14897 283.00642,1638.40234 C283.080496,1638.67874 283.038421,1638.86301 282.901245,1638.86301 C282.775513,1638.86301 282.660735,1638.51751 282.646198,1638.09523 L282.646198,1638.09523 Z M283.494728,1634.01248 C283.497001,1633.30129 283.552977,1633.11316 283.696337,1633.33499 C283.956686,1633.73786 283.956686,1634.70965 283.696337,1634.87055 C283.570544,1634.94829 283.492804,1634.61745 283.494728,1634.01248 L283.494728,1634.01248 Z M292.311625,1634.27339 C292.302739,1634.05757 292.35114,1633.93663 292.419175,1634.00466 C292.487211,1634.0727 292.494479,1634.24929 292.435329,1634.39709 C292.369976,1634.56041 292.321452,1634.51191 292.311625,1634.27339 L292.311625,1634.27339 Z M1154.33873,1638.82676 C1154.55171,1639.14883 1154.85069,1639.39793 1155.4916,1639.88413 C1155.23874,1640.13698 1155.23606,1640.2752 1155.36007,1646.66027 C1155.45341,1651.46526 1155.43003,1652.02985 1153.11869,1652.04189 C1153.51793,1652.41698 1153.83839,1652.51124 1156.27246,1652.97402 C1156.2285,1652.24098 1156.49935,1651.02897 1156.70711,1651.02897 C1156.78824,1651.02897 1156.92206,1653.67781 1157.00449,1656.91528 C1157.36619,1671.12275 1157.47001,1674.10335 1157.61106,1674.3316 C1157.79223,1674.62471 1159.34878,1674.65182 1160.60323,1673.68474 C1160.60323,1673.07762 1161.24608,1672.9418 1164.13502,1672.93854 C1165.99268,1672.93645 1166.13124,1672.96458 1166.55551,1674.00944 C1166.78887,1674.15116 1167.11562,1674.58806 1168.4594,1674.93252 C1168.521,1675.35479 1168.62483,1677.95757 1168.69012,1680.71646 C1169.01783,1694.56282 1169.79273,1718.63798 1173.11683,1719.07901 C1173.47669,1719.33105 1173.52197,1719.50698 1173.69433,1721.24862 C1174.20911,1721.52412 1174.42793,1721.15599 1174.62518,1719.20782 C1174.76842,1719.20782 1175.40281,1718.97105 1177.56183,1718.27538 C1177.86433,1718.37141 1177.98853,1718.23161 1179.67025,1717.07153 C1180.29799,1717.39614 1180.84053,1717.50425 1184.81389,1717.36969 C1185.46832,1717.36441 1185.564,1717.04264 1185.99115,1715.47303 C1185.99115,1714.63257 1186.44905,1714.24894 1188.62768,1714.03959 C1188.62768,1714.03959 1189.18442,1712.10121 1190.61103,1713.01439 C1190.81894,1713.96323 1190.8794,1714.08142 1191.94443,1714.95514 C1191.97541,1714.86647 1192.04859,1714.77207 1192.13339,1714.71967 C1192.16247,1714.7017 1192.19018,1714.69415 1192.2153,1714.69586 C1192.22774,1714.5235 1192.22872,1714.28478 1192.21592,1713.96813 C1192.19064,1713.99058 1192.16271,1714.00308 1192.13339,1714.00308 C1192.02078,1714.00308 1191.92865,1713.81881 1191.92865,1713.59359 C1191.92865,1713.36838 1192.02078,1713.18411 1192.13339,1713.18411 C1192.14531,1713.18411 1192.157,1713.18617 1192.16837,1713.19013 C1192.14441,1712.87867 1192.11239,1712.52224 1192.07141,1712.11647 C1191.98685,1712.03556 1191.89555,1711.85167 1191.8422,1711.63913 C1191.73964,1711.23051 1191.78754,1710.90736 1191.92915,1710.81856 C1191.8977,1710.54933 1191.86345,1710.26481 1191.82627,1709.96434 C1192.34392,1709.86858 1192.49367,1708.86822 1192.05808,1707.63993 C1192.31688,1707.29009 1192.34009,1706.39232 1192.21751,1701.47694 C1192.12288,1697.6821 1192.1442,1695.68005 1192.28012,1695.59605 C1192.52907,1695.44219 1195.24115,1695.11235 1198.58274,1694.82952 C1201.43656,1694.58796 1202.12146,1694.37458 1202.56915,1693.40065 C1202.7466,1693.68778 1203.00324,1693.39518 1203.85362,1691.77249 C1203.93875,1691.77249 1204.00838,1691.58822 1204.88461,1689.58528 C1204.83212,1689.85985 1204.9297,1690.16936 1205.61969,1691.15826 C1205.8158,1691.15826 1206.2219,1689.76926 1208.97395,1689.31811 C1209.44127,1689.76715 1209.95386,1690.13456 1210.06708,1690.64641 C1209.74062,1691.14465 1209.74513,1691.15826 1211.3822,1692.94975 C1211.38488,1693.25594 1211.4142,1693.26339 1212.55633,1694.42509 C1212.69709,1694.65221 1212.81226,1695.02357 1213.12915,1696.97261 C1213.03377,1697.86333 1213.06274,1698.3283 1213.84843,1700.14075 C1213.85529,1700.09882 1213.89681,1698.51046 1213.94069,1696.61107 C1213.98458,1694.71169 1214.06351,1693.11463 1214.11609,1693.06205 C1214.30005,1692.87807 1214.50133,1695.30282 1214.3842,1696.2919 C1214.31917,1696.84098 1214.36548,1698.37511 1214.48712,1699.70107 C1214.60876,1701.02704 1214.73082,1702.36529 1214.75838,1702.67496 C1214.78594,1702.98463 1214.82001,1703.32112 1216.04154,1704.01941 L1216.11827,1706.26162 C1216.16862,1707.73238 1216.28929,1708.61739 1216.41695,1709.49014 C1216.1187,1709.78839 1216.13144,1709.88928 1217.50192,1711.5975 C1217.81417,1711.64328 1217.92415,1711.76385 1217.66673,1713.27032 C1217.737,1713.00162 1217.946,1712.86084 1219.72842,1711.22291 C1219.95363,1711.22291 1219.99847,1711.37751 1220.85085,1713.13193 C1220.80878,1713.14038 1220.76762,1713.1487 1220.72736,1713.15692 C1220.76485,1713.17448 1220.80377,1713.19437 1220.84411,1713.2166 C1221.09981,1713.35749 1221.47025,1713.44808 1221.66732,1713.41792 C1221.86438,1713.38779 1222.02561,1713.45463 1222.02561,1713.56649 C1222.02561,1713.67834 1222.22235,1713.7993 1222.46282,1713.83527 C1222.70329,1713.87126 1223.03685,1714.10778 1223.20406,1714.36088 C1223.49322,1714.79854 1223.4743,1714.83537 1222.81804,1715.11275 L1222.12798,1715.40443 L1222.06443,1714.70374 C1222.02948,1714.31838 1221.94462,1714.00308 1221.87582,1714.00308 C1221.80703,1714.00308 1221.58188,1714.15589 1221.3755,1714.34268 C1220.84942,1714.81879 1219.9782,1714.42583 1219.9782,1713.71245 C1219.9782,1713.55397 1219.99507,1713.42435 1220.02894,1713.32351 C1219.26357,1713.55743 1219.05638,1713.91778 1219.13884,1715.15173 C1219.02029,1715.1427 1218.92065,1715.14301 1218.81576,1715.19576 C1218.93264,1715.47992 1218.97341,1715.85423 1218.85263,1716.04967 C1218.65467,1716.36998 1218.39471,1716.24051 1218.2767,1715.84632 C1218.1003,1716.14678 1217.88032,1716.573 1217.58836,1717.17564 C1218.21179,1716.94115 1219.36398,1717.1456 1220.03803,1716.73229 C1220.61151,1716.31904 1222.29526,1716.07876 1224.45106,1718.18411 C1224.08036,1718.18411 1223.95,1718.66705 1223.93051,1720.9957 C1224.23954,1721.30476 1224.34326,1721.29118 1225.94911,1719.07258 C1226.21226,1719.24141 1226.93711,1719.44114 1229.44011,1718.30089 C1229.08266,1717.51635 1229.13114,1716.53312 1231.16168,1716.1367 C1230.50016,1716.1367 1230.18455,1716.57708 1230.06111,1717.67236 C1229.96687,1718.50834 1229.99762,1718.59359 1231.58363,1719.77086 C1231.65351,1719.96792 1231.85336,1720.29501 1231.98015,1721.54326 C1231.77965,1721.91558 1231.64602,1722.48353 1232.46742,1723.577 C1233.62631,1723.87866 1236.24279,1723.69583 1238.73187,1723.26818 C1239.13422,1722.86583 1238.86556,1722.01306 1240.32868,1722.05644 C1240.16925,1722.61459 1240.18418,1723.9217 1243.01159,1724.8382 C1243.38342,1724.8382 1243.42108,1724.7017 1243.42108,1723.35348 C1243.42108,1722.34642 1243.49904,1721.86886 1245.53726,1721.82087 C1246.0789,1721.68052 1246.18279,1721.57057 1247.98697,1721.30641 C1247.94696,1721.10386 1248.09618,1720.85185 1249.402,1720.10557 C1249.82854,1720.17454 1439.60331,1720.24645 1439.74407,1720.26537 C1439.94834,1720.29282 1440,2014.37182 1440,2014.37182 L720,2014.37182 L720,1678.03371 C720,1678.03371 723.996939,1677.5193 725.467534,1677.65865 C726.660991,1677.77172 727.692601,1677.89645 727.760001,1677.93582 C727.827402,1677.9752 728.942075,1678.07165 730.237064,1678.15017 C731.532052,1678.22869 732.621501,1678.37518 733.203765,1678.34445 C733.620106,1678.07165 733.96057,1678.06276 735.798922,1678.27678 C736.449516,1678.35253 737.147133,1678.40749 737.83836,1678.44209 C737.466158,1678.35446 736.957291,1678.27348 736.300743,1678.19643 C735.187769,1678.0658 734.205973,1677.91497 734.118999,1677.8612 C733.811273,1677.67102 734.169263,1676.99142 734.707549,1676.74395 C735.024181,1676.59838 736.048113,1676.50033 737.147082,1676.51034 C738.690913,1676.52441 739.040939,1676.47156 739.040939,1676.2244 C739.040939,1675.82644 739.17312,1675.84166 739.839593,1676.31623 C740.199324,1676.57238 740.494929,1676.64909 740.680404,1676.53448 C740.837707,1676.43725 741.04812,1676.4082 741.147992,1676.4699 C741.308673,1676.56922 742.236929,1676.57115 746.616366,1676.48129 C747.235708,1676.46857 748.06491,1676.47193 748.459037,1676.48872 C748.853164,1676.50551 749.6363,1676.51947 750.199338,1676.51976 C750.762377,1676.52005 751.821913,1676.5362 752.553863,1676.55569 C753.285813,1676.57516 754.299282,1676.57713 754.806017,1676.56007 C756.073283,1676.5174 759.192742,1676.67639 760.459456,1676.84821 L761.506216,1676.99019 L761.582129,1677.88823 C761.770114,1676.98315 761.91529,1676.85997 762.900074,1676.71229 C763.986718,1676.54934 764.026704,1676.44799 763.961862,1674.02199 C763.9367,1673.08075 764.009567,1672.25088 764.127764,1672.13235 C764.243668,1672.01612 765.070413,1671.81924 767.927865,1671.28851 C768.156765,1671.16601 768.310547,1670.69681 768.40874,1669.82138 C768.504703,1668.9659 768.69114,1668.38661 768.964736,1668.09373 C769.549252,1667.46804 769.400691,1666.71015 768.6203,1665.40504 C768.898645,1665.07424 769.220253,1664.55672 769.971961,1663.93576 C770.509509,1664.22344 771.185319,1663.6948 770.315168,1662.3465 C769.727239,1662.23023 769.501428,1662.1146 770.491343,1661.05554 C770.318501,1660.98186 770.161612,1660.81952 770.161612,1660.64607 C770.161612,1660.48921 770.34588,1660.36086 770.571095,1660.36086 C770.75691,1660.36086 770.89295,1660.45353 770.953815,1660.57972 C770.963861,1660.56969 770.973983,1660.5596 770.984181,1660.54944 C771.062986,1659.80842 770.98543,1659.62811 770.008056,1658.60127 C771.025191,1658.59435 771.080143,1658.422 771.124122,1655.1005 C771.14951,1653.18287 771.250877,1651.90523 771.388565,1651.76754 C771.827469,1651.32863 771.997978,1652.14997 772.021564,1654.81669 C772.030727,1655.85328 772.070657,1656.87191 773.220354,1657.40552 C773.237657,1657.4044 773.255206,1657.40327 773.273004,1657.40212 C773.464069,1657.38986 773.686725,1657.31347 773.767802,1657.23241 C774.026309,1656.97389 774.461179,1657.07405 774.461179,1657.39211 C774.461179,1657.53195 774.340709,1657.64718 774.170559,1657.68557 C774.491087,1657.74085 774.859638,1657.77518 775.283441,1657.78543 C777.165975,1657.78543 777.193001,1657.8176 777.020445,1661.12988 C777.020445,1661.12988 774.979154,1661.21911 774.863864,1661.67552 C774.792778,1661.95704 774.775068,1662.30254 777.020445,1663.62056 C777.020445,1663.62056 776.443452,1663.63413 775.795509,1663.72721 C776.041771,1663.99041 776.100258,1664.52139 775.917709,1665.03298 C775.904871,1665.06895 775.687068,1665.06895 775.4337,1665.03298 C775.098211,1664.98531 774.954769,1664.80776 774.905836,1664.37956 C774.884862,1664.19601 774.885704,1664.03967 774.90674,1663.91221 C774.394042,1664.06444 773.996815,1664.29517 774.020985,1664.64427 C774.049547,1665.12029 774.125793,1665.15612 776.918075,1665.47245 C776.918075,1666.24557 776.86347,1666.41186 774.840421,1666.90465 C774.979727,1667.42547 775.100279,1667.51064 776.990041,1667.34874 C777.060595,1667.7756 777.119315,1668.79511 777.120564,1669.61432 C777.122693,1671.02382 777.151009,1671.11446 778.649797,1671.5031 C779.204932,1671.5031 779.37497,1671.84309 779.756833,1673.75525 C780.328634,1673.75525 781.217477,1674.5423 781.218788,1675.04975 C781.219402,1675.29495 781.318005,1675.84881 782.511647,1677.02084 C783.94588,1676.9459 784.029312,1676.98241 784.963444,1678.49219 C787.241703,1678.58905 788.03831,1678.85126 787.933606,1679.46989 C787.899578,1679.67093 788.005674,1680.08571 788.1873,1681.12072 C787.779722,1681.37261 787.513886,1685.7239 787.720306,1688.76441 C787.813525,1690.13734 787.844338,1692.6887 787.788792,1694.43412 C787.658925,1698.51394 787.712628,1708.05538 788.718133,1710.21554 C788.648787,1710.56235 788.439214,1711.16814 788.296448,1713.02973 C788.872242,1714.15929 788.873307,1714.16387 788.077436,1714.76532 C787.904942,1715.9677 788.108925,1718.01436 788.730745,1719.14603 C788.864789,1721.22509 788.955039,1721.68758 789.202551,1723.0971 C789.202551,1723.34867 790.217986,1723.94614 791.659446,1724.48973 C791.659446,1724.79326 793.242936,1724.59257 794.70659,1723.91836 C794.830827,1723.73921 794.909673,1722.42232 794.897143,1720.73584 C794.883794,1718.93746 794.963049,1717.69586 795.108579,1717.42395 C795.365571,1716.94375 796.333997,1716.6474 797.392202,1715.9867 C797.392202,1714.90207 797.643788,1714.49877 798.89746,1714.35846 C799.392197,1713.86372 802.078648,1713.4242 801.794139,1713.88454 C801.613005,1714.17763 803.396916,1714.14491 804.707792,1713.86636 C805.558758,1714.14721 808.948721,1714.03933 810.393273,1713.68545 C811.580875,1713.39452 812.994265,1713.44222 815.522083,1713.69643 C815.47272,1713.61658 815.904581,1713.4545 818.015176,1713.6053 C818.559973,1714.15009 819.83676,1714.2687 821.351558,1715.01062 C821.36673,1715.57366 821.424569,1716.37106 821.480115,1716.78264 C821.575689,1717.49098 821.632259,1717.54026 823.73616,1718.79936 C823.86787,1719.30554 823.983037,1720.88452 823.992086,1722.30821 C824.005231,1724.37141 824.068905,1724.91991 825.330377,1726.38123 C825.727248,1726.05187 826.343294,1726.27272 827.489169,1726.5785 C827.601777,1726.5785 827.693911,1726.3021 829.667228,1725.86705 C830.212576,1726.17152 830.974419,1726.40064 833.734741,1727.73255 C833.907051,1727.66642 834.226673,1727.76529 835.876437,1728.01169 C836.097742,1728.01169 836.596061,1727.73312 839.568905,1727.19273 C840.065075,1727.19273 840.041898,1727.59871 840.094742,1717.97937 C840.116096,1714.0944 840.220432,1710.50119 840.326611,1709.99446 C840.443662,1709.43578 840.455209,1707.01807 840.35591,1703.85222 L840.192158,1698.63132 L841.944477,1695.04835 C843.023361,1692.84234 843.691166,1691.22933 843.682136,1690.85115 C843.67409,1690.51333 843.655786,1689.96053 843.842776,1688.14992 C843.978991,1687.63534 844.031691,1686.30387 843.974282,1684.82658 C843.881862,1682.44832 843.949017,1681.74016 844.267,1681.74016 C844.610761,1681.74016 844.891482,1682.88712 845.00628,1684.76077 C845.073538,1685.85833 845.212332,1686.94059 845.314723,1687.16581 C845.417094,1687.39102 845.525156,1688.22022 846.222996,1690.41605 C847.733925,1690.35308 851.908846,1689.94259 852.003764,1689.84767 C852.061562,1689.78987 852.141985,1688.97855 852.182441,1688.04472 C852.222919,1687.11087 852.347504,1685.97831 852.459313,1685.52788 C852.571102,1685.07745 852.668047,1684.01791 852.674721,1683.17335 C852.6859,1681.75882 853.071735,1680.40294 853.338042,1680.84235 C853.398441,1680.94202 853.509165,1682.86503 853.5841,1685.11569 C853.688539,1688.25286 853.789538,1689.28426 854.189704,1690.48151 C854.09624,1690.94881 854.264496,1691.51965 854.878495,1692.81818 C855.325363,1693.76325 856.081964,1695.3657 856.55983,1696.37916 L857.42867,1698.22184 L857.395912,1703.74985 C857.360328,1709.75485 857.579196,1712.81438 858.162873,1714.44113 C857.974408,1714.66788 857.872181,1715.68076 857.823289,1717.80565 C857.755622,1720.74557 857.766985,1720.84575 858.168257,1720.84575 C859.209899,1720.84575 860.452515,1719.95473 860.452515,1719.20782 C860.452515,1718.859 860.589016,1718.79833 862.704669,1718.72102 C862.704669,1717.77678 863.06143,1717.55091 866.390012,1716.23907 C866.530874,1714.83045 866.814092,1714.3826 867.374387,1714.68246 C867.734998,1714.87545 867.814376,1715.13537 868.806164,1717.60131 C869.803868,1717.52853 870.280096,1717.81644 871.099061,1719.7911 C871.099061,1720.37593 871.150513,1720.41645 872.967714,1721.15286 C873.039394,1721.49068 873.1122,1722.73449 873.129542,1723.91687 C873.146883,1725.09925 873.287663,1726.59642 873.442407,1727.24391 C873.59715,1727.89141 873.682773,1728.42117 873.760698,1728.83066 C874.138118,1729.53587 874.337474,1729.28539 874.946661,1726.48148 C875.123824,1726.4135 876.150233,1726.30157 877.227561,1726.23276 C879.17807,1726.10817 879.190027,1726.10408 880.059358,1725.26818 C880.859856,1724.49845 881.029914,1724.42598 883.588279,1724.60054 C884.413038,1725.23882 884.979578,1725.41137 887.654236,1725.61872 C888.153846,1726.05252 889.601981,1726.17686 890.961115,1725.6585 C891.204818,1725.80911 891.788249,1727.62461 892.328889,1728.02213 C894.757714,1728.05469 898.737925,1728.44415 899.76284,1729.23879 C899.76284,1729.50448 899.960517,1729.73492 901.346554,1730.4699 C901.628053,1730.69132 901.933322,1730.82617 901.554326,1732.36326 C901.354805,1732.43042 901.360333,1732.52443 902.259373,1734.48532 C902.356297,1734.31211 902.755563,1734.11036 903.857665,1733.41455 C903.857665,1732.99039 903.954569,1732.92548 907.249122,1732.13559 C908.305198,1724.64867 908.761055,1722.42987 909.060387,1723.31959 C909.176618,1723.66501 909.672583,1726.31238 909.996976,1728.3188 C910.356153,1730.54043 910.396999,1730.67333 910.818868,1731.49229 C910.454982,1731.49229 910.601761,1732.08549 913.340401,1733.74164 C914.451183,1733.74563 914.913694,1734.04951 915.114115,1735.38238 C915.236182,1735.38238 915.336219,1733.80198 915.370042,1731.33874 C915.370042,1731.33874 916.877757,1726.99306 917.090995,1726.66761 C917.346246,1726.27804 917.602827,1726.1657 919.213261,1725.5548 C919.213261,1725.35826 920.840729,1725.24052 922.927841,1725.31488 C922.943933,1725.27792 923.013034,1724.04995 923.081397,1722.58605 L923.205716,1719.92441 L925.707613,1719.78609 C927.568015,1719.68323 928.370785,1719.55248 929.649824,1719.19934 C929.776969,1719.40504 930.387978,1719.52822 933.622522,1719.83095 C933.683617,1719.89216 933.797616,1721.07524 933.875889,1722.46003 C933.98647,1724.41686 934.08667,1725.00408 934.325624,1725.09579 C934.364905,1725.11086 934.440281,1725.12562 934.563069,1725.13966 C934.520401,1724.40071 934.449771,1723.81872 934.38461,1723.7308 C934.300154,1723.6168 934.217295,1723.09516 934.200527,1722.57158 C934.173173,1721.71779 934.211706,1721.63053 934.57418,1721.72532 C934.796467,1721.78345 934.983806,1721.98149 934.990501,1722.16541 C935.03611,1723.4188 935.067487,1724.40665 935.083824,1725.17916 C935.61138,1725.2073 936.451263,1725.22944 937.742346,1725.24056 L937.782803,1712.98061 C937.808416,1705.22192 937.897663,1700.64626 938.025872,1700.51805 C938.140261,1700.40366 940.57443,1700.24316 943.6158,1700.14947 C948.518432,1699.99846 949.924452,1699.87993 950.000861,1698.178 C950.12774,1698.21971 950.277631,1698.61518 951.25527,1699.98593 C953.833434,1700.38313 955.168818,1700.6556 955.350096,1700.82144 C955.462704,1700.92448 955.558031,1701.62552 955.561921,1702.37931 C955.565811,1703.13311 955.588845,1706.07622 955.613106,1708.91957 L956.527358,1714.1097 C957.941527,1714.14287 958.413394,1714.34593 958.4845,1714.9519 C958.519286,1715.24853 958.761413,1715.63121 959.637214,1717.04638 C959.761021,1717.872 959.836919,1717.97937 963.33502,1718.90977 L963.484399,1723.81902 C963.566541,1726.51913 963.683981,1729.01756 963.745362,1729.37113 C963.885794,1730.18011 964.162134,1730.25748 966.923684,1730.26104 C968.820264,1730.26352 969.120824,1730.21518 970.839893,1729.42785 C971.100201,1729.28854 972.068177,1729.16352 972.990926,1729.15005 C974.265338,1729.13144 974.762224,1729.04088 976.081659,1728.42117 C976.978139,1728.42117 977.436616,1727.90506 977.248193,1727.10802 C976.992512,1726.02654 977.096172,1725.48193 977.648093,1725.0072 C978.183369,1724.54677 978.368517,1723.59118 978.000167,1723.19003 C977.901932,1723.08306 977.763076,1722.32756 977.691621,1721.51116 C977.561836,1720.02867 977.562327,1720.02678 978.074959,1720.02678 C978.583065,1720.02678 978.588245,1720.04457 978.588245,1721.78766 C978.588245,1723.58385 979.308688,1728.11161 981.659364,1728.83066 L981.659364,1723.82658 C981.659364,1720.62776 981.735118,1718.77567 983.251371,1718.44886 C983.895978,1718.38613 984.561572,1718.22299 986.293519,1718.02935 C986.421237,1718.11163 987.050202,1718.08203 989.378601,1718.09005 C990.120768,1718.57635 990.265991,1718.23978 990.234563,1716.10642 C990.220231,1715.13261 990.271253,1714.2343 990.347949,1714.11019 C990.424645,1713.9861 990.937194,1713.88454 992.616114,1713.67481 C992.687405,1713.55946 992.736092,1711.6986 992.724279,1709.53957 C992.712486,1707.38055 992.766128,1705.67739 992.843479,1705.75474 C992.920851,1705.83209 993.013517,1707.56557 993.049408,1709.60692 C993.091605,1712.00614 993.197722,1713.41851 993.349579,1713.60149 C993.491137,1713.77206 993.983908,1713.88454 995.700971,1714.16168 C995.759466,1714.31409 995.871725,1718.4654 995.950469,1723.38681 C995.950469,1723.38681 997.267283,1733.12316 997.450567,1733.12568 C998.315701,1733.13749 998.318076,1733.09855 998.263636,1719.81666 L998.688208,1707.03191 C998.950297,1706.97035 999.671478,1706.85066 1001.4169,1706.61189 L1001.5413,1704.3619 C1001.60972,1703.12441 1001.79434,1701.74339 1002.23748,1700.47399 L1005.44664,1700.16688 C1007.21167,1699.99797 1008.7315,1699.78307 1009.55536,1699.8059 C1009.69612,1699.85667 1011.28438,1699.91957 1013.08482,1699.94566 C1014.98535,1699.97319 1016.4664,1700.08277 1016.61597,1700.20688 C1017.29941,1700.7741 1017.69055,1703.24426 1018.0037,1708.97075 C1018.2842,1714.10005 1018.60353,1717.94745 1018.74171,1717.86205 C1018.82767,1717.80892 1018.84294,1714.3233 1018.77564,1710.11624 C1018.65718,1702.71089 1018.66571,1702.46354 1019.04371,1702.35771 C1019.25844,1702.2976 1020.30203,1702.18653 1021.36281,1702.11088 C1023.32556,1701.97094 1024.16429,1701.66133 1024.28549,1701.03201 C1024.35476,1700.67238 1024.53509,1700.65134 1028.34037,1700.55863 C1031.28148,1700.48697 1032.99979,1700.71167 1033.15087,1701.1877 C1033.30744,1701.68096 1033.84433,1701.79869 1035.95237,1701.802 C1037.99085,1701.80522 1038.3727,1702.02005 1038.3727,1703.16372 C1038.3727,1704.29336 1038.67612,1704.67119 1040.57801,1704.92711 C1040.70603,1705.0846 1040.84376,1708.51023 1040.93606,1713.83336 C1041.03509,1719.54458 1041.15783,1722.48368 1041.29732,1722.48368 C1041.44144,1722.48368 1041.46507,1719.40973 1041.37167,1712.80965 C1041.29636,1707.48894 1041.30484,1703.03864 1042.65332,1702.23513 C1043.5532,1701.85356 1043.96501,1701.79123 1044.85322,1701.90222 C1045.45424,1701.9773 1048.75328,1702.05521 1052.18443,1702.07533 C1057.42694,1702.10608 1058.47046,1702.16096 1058.72102,1702.41903 C1058.96753,1702.67295 1059.05737,1704.47947 1059.2398,1712.85027 C1059.36113,1718.41856 1059.53473,1723.04874 1061.05436,1723.17263 C1062.02119,1723.07157 1062.34564,1722.95356 1063.00331,1722.1635 C1063.2509,1722.08851 1063.64698,1721.85039 1065.21886,1721.86945 C1065.57437,1721.86945 1065.60328,1721.67749 1065.60328,1719.31739 C1065.60328,1716.38871 1065.63194,1716.34144 1067.40752,1716.34144 C1068.21723,1716.34144 1068.47838,1716.25307 1069.66948,1715.47682 C1070.46556,1715.49944 1070.72181,1715.00874 1071.1663,1713.11676 C1071.20414,1713.83534 1071.25901,1714.47973 1071.31018,1714.80588 C1071.40661,1715.42045 1071.74361,1714.21813 1071.96193,1713.33889 C1072.05136,1714.10855 1072.17322,1714.86513 1072.23272,1715.0202 C1072.31867,1715.24419 1073.04583,1715.30184 1075.76995,1715.30066 C1079.3768,1715.2991 1079.73043,1715.2172 1079.73043,1714.38342 C1079.73043,1713.70832 1080.0179,1713.59338 1082.02205,1713.46712 C1083.3291,1713.38477 1083.90942,1713.25763 1084.20689,1712.98841 C1084.42967,1712.7868 1084.87257,1712.63931 1086.95566,1712.6561 L1086.87483,1702.26548 L1088.378,1691.65314 C1089.30865,1691.52289 1090.11992,1691.28852 1091.47478,1691.363 C1091.92989,1691.363 1093.44658,1690.641 1093.44733,1690.424 C1093.44774,1690.30169 1094.6075,1689.05788 1096.02458,1687.65999 C1098.60557,1685.11393 1099.38559,1684.05081 1099.7057,1683.2784 C1099.59592,1683.86358 1099.63939,1684.01904 1101.63774,1684.80465 L1101.65816,1687.52079 C1101.68309,1690.83979 1101.77416,1691.23889 1103.2863,1691.9028 C1103.39307,1692.18361 1103.48078,1694.08881 1103.48125,1696.13657 C1103.4817,1698.18433 1103.54198,1701.03416 1103.61518,1702.46954 L1103.74828,1705.07932 C1103.74828,1705.07932 1105.65579,1704.83353 1108.006,1704.38721 C1109.28849,1704.27421 1109.60996,1704.30681 1111.14083,1704.85212 C1112.35144,1704.80314 1112.94544,1705.10514 1113.25581,1705.9274 C1113.44683,1706.4335 1113.5856,1706.51386 1115.51459,1706.83258 C1115.92283,1707.11852 1115.96963,1707.32654 1115.96963,1708.85493 C1115.96963,1710.8505 1116.15795,1711.13438 1117.34881,1710.93389 C1118.26847,1710.77905 1118.45892,1710.77628 1121.97781,1711.94022 C1122.86687,1712.66445 1123.1235,1713.00489 1123.17384,1713.52696 C1123.23619,1714.17347 1123.2669,1714.19333 1125.62699,1714.64205 C1125.80991,1714.862 1125.93326,1715.85219 1126.00195,1717.65186 L1127.2304,1720.46779 C1127.84974,1720.54146 1129.13961,1720.66631 1131.89852,1720.9458 C1131.93231,1720.97711 1132.0053,1722.28033 1132.06072,1723.84181 C1132.16717,1726.84131 1132.33487,1727.80378 1132.53752,1726.5785 C1132.64587,1725.92341 1132.72195,1725.85646 1134.2215,1725.49124 C1134.23794,1725.35728 1134.26097,1720.68707 1134.27268,1715.11299 C1134.27268,1715.11299 1135.66107,1704.74577 1135.75657,1704.26823 C1135.85974,1703.75239 1136.1457,1703.56732 1138.3212,1702.60844 C1139.66788,1702.01487 1140.88906,1701.35884 1142.1949,1700.6556 C1142.43836,1700.36144 1142.47163,1698.32613 1142.40707,1687.67686 C1142.34141,1676.84376 1142.37233,1675.03093 1142.62435,1674.93424 C1142.78593,1674.87222 1143.94652,1674.66312 1145.20345,1674.46958 C1146.46083,1674.27593 1147.59121,1673.99417 1147.71657,1673.84311 C1148.02665,1673.4695 1147.66284,1657.52472 1147.32537,1656.69721 C1147.17775,1656.33525 1147.10171,1654.92622 1147.12098,1652.9095 C1147.13785,1651.14326 1147.18522,1649.97456 1147.22623,1650.31238 C1147.43661,1652.04515 1147.50108,1652.21875 1147.89576,1652.11554 C1148.56344,1651.94093 1148.68057,1650.81926 1148.4254,1647.04321 C1148.30698,1645.29083 1148.10167,1644.77972 1148.32633,1643.51583 C1148.32064,1643.08743 1148.32154,1642.59873 1148.20531,1641.28923 C1148.05529,1640.36556 1148.42723,1639.76818 1149.13727,1639.29926 C1148.4778,1639.12681 1148.91328,1638.28829 1151.11527,1637.607 C1151.72437,1637.32709 1152.31226,1637.38355 1153.81538,1638.19017 C1154.13467,1637.96391 1154.25483,1638.07999 1154.33873,1638.82676 Z M510.549675,1568.12492 C510.549675,1567.55334 511.045661,1567.41912 511.244363,1567.93693 C511.452011,1568.47806 511.387333,1568.63678 510.959158,1568.63678 C510.658864,1568.63678 510.549675,1568.50028 510.549675,1568.12492 Z M836.907268,1722.80695 C836.907268,1722.69434 837.045468,1722.60221 837.21438,1722.60221 C837.383292,1722.60221 837.521492,1722.69434 837.521492,1722.80695 C837.521492,1722.91956 837.383292,1723.01169 837.21438,1723.01169 C837.045468,1723.01169 836.907268,1722.91956 836.907268,1722.80695 Z M830.53142,1722.39747 C829.950794,1722.39747 829.631848,1722.12602 829.831983,1721.80218 C829.89705,1721.69692 830.387855,1721.75743 830.964325,1721.94177 C831.782676,1722.20348 831.93658,1722.32169 831.750654,1722.54574 C831.59026,1722.739 831.454107,1722.75896 831.306038,1722.61089 C831.18866,1722.49351 830.840088,1722.39747 830.53142,1722.39747 Z M1246.74812,1719.03629 C1246.71997,1718.93308 1246.8121,1718.81024 1246.95286,1718.76331 C1247.09362,1718.71638 1247.20879,1718.83155 1247.20879,1719.01924 C1247.20879,1719.36595 1246.84173,1719.37954 1246.74812,1719.03629 Z M1221.51376,1715.94812 C1221.51376,1715.83551 1221.85926,1715.71477 1222.28154,1715.67982 C1223.00155,1715.62024 1223.23954,1715.792 1222.90311,1716.12843 C1222.6899,1716.34165 1221.51376,1716.18902 1221.51376,1715.94812 Z M1220.18511,1715.74598 C1220.04611,1715.5785 1219.99069,1715.28957 1220.06194,1715.10389 C1220.18057,1714.79475 1220.22563,1714.79721 1220.5967,1715.13302 C1220.81956,1715.33471 1221.00191,1715.62364 1221.00191,1715.77511 C1221.00191,1716.14348 1220.50015,1716.12559 1220.18511,1715.74598 Z M772.45881,1656.21485 C772.254191,1655.96527 772.137959,1655.39949 772.185439,1654.88403 C772.198583,1654.74141 772.480942,1654.62811 772.823249,1654.62811 C773.3989,1654.62811 773.437473,1654.67739 773.437473,1655.41294 C773.437473,1655.84462 773.37605,1656.25922 773.300972,1656.33428 C773.085093,1656.55018 772.687526,1656.49379 772.45881,1656.21485 Z M773.846955,1654.7123 C773.846955,1653.60589 774.191003,1653.44581 775.945553,1653.73582 C776.584387,1653.84141 776.713333,1653.94529 776.713333,1654.35439 C776.713333,1654.96089 776.150848,1655.20836 774.819476,1655.18762 C773.952233,1655.17413 773.846955,1655.12268 773.846955,1654.7123 Z M1155.89418,1649.40721 C1155.89418,1649.25158 1155.98631,1649.06731 1156.09892,1648.99772 C1156.2155,1648.92567 1156.30366,1649.102 1156.30366,1649.40721 C1156.30366,1649.71241 1156.2155,1649.88873 1156.09892,1649.81669 C1155.98631,1649.7471 1155.89418,1649.56283 1155.89418,1649.40721 Z M1149.8459,1637.21146 C1149.65745,1636.90656 1149.87593,1636.7408 1150.26795,1636.89123 C1150.44884,1636.96066 1150.53952,1637.11024 1150.46944,1637.22363 C1150.30347,1637.49216 1150.01592,1637.48655 1149.8459,1637.21146 Z M1153.6908,1635.78986 C1153.83463,1635.55959 1153.98161,1635.47984 1154.02461,1635.60881 C1154.06684,1635.73554 1153.97502,1635.91932 1153.82054,1636.01717 C1153.41734,1636.27258 1153.40397,1636.24916 1153.6908,1635.78986 Z M1152.61832,1635.0635 C1152.61832,1634.62323 1153.03169,1634.49633 1153.55446,1634.77611 C1153.99445,1635.01158 1154.00911,1635.06115 1153.70466,1635.28378 C1153.29915,1635.58029 1152.61832,1635.44223 1152.61832,1635.0635 Z M1151.38987,1635.17767 C1151.14152,1635.01717 1151.17092,1634.9786 1151.54343,1634.97606 C1151.7968,1634.97434 1152.0041,1635.06506 1152.0041,1635.17767 C1152.0041,1635.43419 1151.78682,1635.43419 1151.38987,1635.17767 Z M835.269338,1721.46708 C835.269338,1721.15301 835.200238,1720.97941 835.115782,1721.08133 C835.031326,1721.18325 834.888765,1721.3219 834.798986,1721.38944 C834.709186,1721.45701 834.778286,1721.63059 834.952542,1721.7752 C835.225564,1722.00181 835.269338,1721.95922 835.269338,1721.46708 Z M791.659446,1717.67634 C791.659446,1717.55708 791.75158,1717.51646 791.864188,1717.58605 C791.976795,1717.65564 792.068929,1717.62487 792.068929,1717.51766 C792.068929,1717.41046 791.930729,1717.26972 791.761817,1717.2049 C791.552919,1717.12475 791.454705,1717.21594 791.454705,1717.49011 C791.454705,1717.71178 791.500772,1717.89316 791.557076,1717.89316 C791.61338,1717.89316 791.659446,1717.79558 791.659446,1717.67634 Z M1061.91822,1717.02301 C1061.91837,1716.99486 1062.05521,1716.19499 1062.2223,1715.24555 C1062.52837,1713.50627 1062.51883,1713.24639 1062.15701,1713.47001 C1061.89711,1713.63063 1061.23955,1716.59999 1061.40469,1716.86722 C1061.51519,1717.04598 1061.91742,1717.16803 1061.91822,1717.02301 Z M794.412643,1715.04427 C794.47857,1714.9376 794.445238,1714.79641 794.338568,1714.73048 C794.231898,1714.66455 794.090708,1714.69789 794.024781,1714.80456 C793.958855,1714.91123 793.992187,1715.05242 794.098857,1715.11834 C794.205527,1715.18427 794.346716,1715.15094 794.412643,1715.04427 Z M794.40343,1713.85247 C794.626639,1713.62926 794.530677,1713.40587 794.116342,1713.18411 C793.772663,1713.00017 793.706859,1713.0284 793.706859,1713.35974 C793.706859,1713.75434 794.172338,1714.08358 794.40343,1713.85247 Z M1232.05794,1711.84121 C1232.05794,1711.66565 1231.9658,1711.57896 1231.85319,1711.64855 C1231.58828,1711.81228 1231.58828,1712.1604 1231.85319,1712.1604 C1231.9658,1712.1604 1232.05794,1712.01676 1232.05794,1711.84121 Z M1227.55363,1711.55826 C1227.55363,1711.45231 1227.46149,1711.30866 1227.34889,1711.23907 C1227.23628,1711.16948 1227.14414,1711.25616 1227.14414,1711.43173 C1227.14414,1711.60727 1227.23628,1711.75092 1227.34889,1711.75092 C1227.46149,1711.75092 1227.55363,1711.66423 1227.55363,1711.55826 Z M1228.57082,1710.4785 C1228.56448,1710.22163 1227.96311,1709.29816 1227.96311,1709.54526 C1227.96311,1709.61387 1227.9099,1709.80868 1227.84485,1709.97817 C1227.77329,1710.16465 1227.89456,1710.37623 1228.15196,1710.51398 C1228.48029,1710.68969 1228.57584,1710.68158 1228.57082,1710.4785 Z M1230.61824,1709.22505 C1230.62227,1708.99199 1230.39116,1708.7608 1230.01052,1708.61713 C1229.6727,1708.48962 1229.3963,1708.31336 1229.3963,1708.22544 C1229.3963,1708.1375 1229.2581,1708.06558 1229.08919,1708.06558 C1228.61052,1708.06558 1228.72849,1708.61478 1229.24274,1708.78043 C1229.49611,1708.86206 1229.78287,1708.91542 1229.87998,1708.89902 C1229.97709,1708.88262 1230.18146,1709.03388 1230.33414,1709.23516 C1230.59985,1709.5855 1230.61201,1709.58507 1230.61824,1709.22505 Z M1223.25406,1707.89894 C1223.25406,1707.79163 1223.02008,1707.65911 1222.7341,1707.60444 C1222.40594,1707.54171 1222.24192,1707.58955 1222.28946,1707.73412 C1222.38293,1708.0183 1223.25406,1708.16715 1223.25406,1707.89894 Z M1230.42001,1707.36106 C1230.42001,1707.19881 1230.33754,1707.01507 1230.23672,1706.95277 C1230.02596,1706.82249 1229.77181,1707.34915 1229.95639,1707.5337 C1230.17608,1707.75341 1230.42001,1707.66257 1230.42001,1707.36106 Z M1228.57733,1707.33398 C1228.57733,1707.1433 1228.43803,1707.03886 1228.23601,1707.07805 C1227.72235,1707.17766 1227.65182,1707.6561 1228.1508,1707.6561 C1228.40228,1707.6561 1228.57733,1707.52389 1228.57733,1707.33398 Z M1217.74267,1705.76224 C1217.75182,1705.73409 1217.77791,1705.45769 1217.80063,1705.14802 C1217.85368,1704.42485 1217.27189,1704.37794 1216.95219,1705.07961 C1216.77066,1705.478 1216.78745,1705.59752 1217.03842,1705.69383 C1217.36066,1705.8175 1217.71358,1705.85177 1217.74267,1705.76224 Z M992.868498,1699.77356 C992.870771,1699.32313 992.830703,1699.11476 992.779456,1699.31049 C992.72821,1699.50625 992.726347,1699.87478 992.775321,1700.12946 C992.824295,1700.38416 992.866226,1700.22399 992.868498,1699.77356 Z M1071.66845,1698.45074 C1071.5937,1697.55428 1071.48023,1694.62904 1071.41631,1691.95021 C1071.28896,1686.61291 1070.93128,1684.88659 1070.89619,1689.43981 C1070.8699,1692.85113 1070.87598,1693.74923 1070.93814,1695.62755 C1070.96515,1696.44395 1070.92029,1697.64656 1070.83845,1698.30001 C1070.6825,1699.54507 1070.87936,1700.08067 1071.49291,1700.08067 C1071.75702,1700.08067 1071.78372,1699.83279 1071.66845,1698.45074 Z M1214.22929,1687.09665 C1214.23818,1686.88083 1214.18978,1686.75989 1214.12174,1686.82793 C1214.0537,1686.89597 1214.04644,1687.07255 1214.10559,1687.22036 C1214.17094,1687.38368 1214.21946,1687.33518 1214.22929,1687.09665 Z M1099.79507,1675.49964 C1099.79507,1675.13423 1099.70978,1674.92603 1099.59033,1674.99986 C1099.32376,1675.16462 1099.32376,1676.12594 1099.59033,1676.12594 C1099.70294,1676.12594 1099.79507,1675.84409 1099.79507,1675.49964 Z M1156.91789,1644.15217 C1156.91789,1643.57038 1156.88408,1643.13274 1156.84277,1643.17965 C1156.66847,1643.37755 1156.57419,1645.21001 1156.73829,1645.21001 C1156.83708,1645.21001 1156.91789,1644.73399 1156.91789,1644.15217 Z M1156.97333,1642.62941 C1157.05545,1642.54731 1157.11186,1641.96572 1157.09869,1641.33698 L1157.07476,1640.19385 L1156.88998,1641.30803 C1156.6966,1642.47411 1156.72224,1642.88052 1156.97333,1642.62941 Z M1146.85324,1641.93415 C1146.85324,1641.65263 1146.80676,1641.53746 1146.74996,1641.67822 C1146.69317,1641.81898 1146.69317,1642.04932 1146.74996,1642.19008 C1146.80676,1642.33083 1146.85324,1642.21567 1146.85324,1641.93415 Z M1146.88556,1640.82015 C1146.88556,1640.46052 1146.7627,1640.40758 1146.5872,1640.69155 C1146.52242,1640.79638 1146.56304,1640.94003 1146.67749,1641.01074 C1146.79194,1641.08148 1146.88556,1640.99572 1146.88556,1640.82015 Z M1157.3538,1638.09523 C1157.36834,1637.67295 1157.40624,1636.93588 1157.43801,1636.4573 C1157.46979,1635.97872 1157.41183,1635.58715 1157.30921,1635.58715 C1157.20659,1635.58715 1157.12138,1636.11692 1157.11984,1636.76441 C1157.11829,1637.41191 1157.06149,1638.14897 1156.99358,1638.40234 C1156.9195,1638.67874 1156.96158,1638.86301 1157.09876,1638.86301 C1157.22449,1638.86301 1157.33926,1638.51751 1157.3538,1638.09523 Z M1156.50527,1634.01248 C1156.503,1633.30129 1156.44702,1633.11316 1156.30366,1633.33499 C1156.04331,1633.73786 1156.04331,1634.70965 1156.30366,1634.87055 C1156.42946,1634.94829 1156.5072,1634.61745 1156.50527,1634.01248 Z M1147.68838,1634.27339 C1147.69726,1634.05757 1147.64886,1633.93663 1147.58082,1634.00466 C1147.51279,1634.0727 1147.50552,1634.24929 1147.56467,1634.39709 C1147.63002,1634.56041 1147.67855,1634.51191 1147.68838,1634.27339 Z M929.450325,1568.12492 C929.450325,1567.55334 928.954339,1567.41912 928.755637,1567.93693 C928.547989,1568.47806 928.612667,1568.63678 929.040842,1568.63678 C929.341136,1568.63678 929.450325,1568.50028 929.450325,1568.12492 Z" id="path-2"></path>
        <filter x="-50%" y="-50%" width="200%" height="200%" filterUnits="objectBoundingBox" id="filter-3">
            <feOffset dx="0" dy="2" in="SourceAlpha" result="shadowOffsetOuter1"></feOffset>
            <feGaussianBlur stdDeviation="5" in="shadowOffsetOuter1" result="shadowBlurOuter1"></feGaussianBlur>
            <feColorMatrix values="0 0 0 0 0.462001497   0 0 0 0 0.595543227   0 0 0 0 0.751248937  0 0 0 0.332597373 0" type="matrix" in="shadowBlurOuter1"></feColorMatrix>
        </filter>
    </defs>
    <g id="Page-1" stroke="none" stroke-width="1" fill="none" fill-rule="evenodd">
        <g id="home" transform="translate(0.000000, -1565.000000)">
            <g id="Combined-Shape">
                <use fill="black" fill-opacity="1" filter="url(#filter-3)" xlink:href="#path-2"></use>
                <use fill="url(#linearGradient-1)" fill-rule="evenodd" xlink:href="#path-2"></use>
            </g>
        </g>
    </g>
</svg>