<?xml version="1.0" encoding="UTF-8" standalone="no"?>
<svg width="40px" height="32px" viewBox="0 0 40 32" version="1.1" xmlns="http://www.w3.org/2000/svg" xmlns:xlink="http://www.w3.org/1999/xlink">
    <!-- Generator: Sketch 3.8.3 (29802) - http://www.bohemiancoding.com/sketch -->
    <title>Shape</title>
    <desc>Created with Sketch.</desc>
    <defs></defs>
    <g id="Page-1" stroke="none" stroke-width="1" fill="none" fill-rule="evenodd">
        <g id="tao-don" transform="translate(-345.000000, -1188.000000)" fill="#FF4A46">
            <g id="dvgtgt" transform="translate(345.000000, 1156.000000)">
                <g id="weight-tool" transform="translate(0.000000, 32.000000)">
                    <path d="M39.8976075,28.9012408 L33.6238883,10.085502 C33.3465029,9.25363971 32.5481377,8.6901017 31.6470928,8.6901017 L25.0263804,8.6901017 C25.5630466,7.82995473 25.8778829,6.8256572 25.8778829,5.74880874 C25.8778829,2.60413221 23.240892,0.0453804724 19.9999148,0.0453804724 C16.759003,0.0453804724 14.1219468,2.6040688 14.1219468,5.74880874 C14.1219468,6.82559378 14.4367831,7.82989131 14.9735146,8.6901017 L8.35293291,8.6901017 C7.45188805,8.6901017 6.65352283,9.25363971 6.37613748,10.085502 L0.102418212,28.9012408 C-0.331764364,30.2032888 0.668822879,31.5377437 2.07921364,31.5377437 L37.9207467,31.5377437 C39.3312029,31.5378072 40.3317247,30.2033522 39.8976075,28.9012408 L39.8976075,28.9012408 Z M16.8922709,5.74880874 C16.8922709,4.08590866 18.286191,2.7333794 19.9999802,2.7333794 C21.7137693,2.7333794 23.1076895,4.08590866 23.1076895,5.74880874 C23.1076895,7.18872889 22.0609585,8.39222436 20.6680187,8.6901017 L19.332007,8.6901017 C17.9390018,8.39228778 16.8922709,7.18872889 16.8922709,5.74880874 L16.8922709,5.74880874 Z M17.2524012,24.9893256 L15.4566514,21.643612 L14.6009659,21.643612 L14.6009659,24.9893256 L12.5205758,24.9893256 L12.5205758,16.7414782 L14.6009659,16.7414782 L14.6009659,19.9256011 L15.4566514,19.9256011 L17.2165843,16.7414782 L19.4517454,16.7414782 L17.156519,20.6864345 L17.156519,20.7098994 L19.5823989,24.9893256 L17.2524012,24.9893256 L17.2524012,24.9893256 Z M28.1940244,24.9893256 L26.4582744,24.9893256 L26.4582744,24.758228 C26.4582744,24.5853488 26.4699084,24.4125965 26.4699084,24.4125965 L26.4467058,24.4125965 C26.4467058,24.4125965 25.6257916,25.1273879 24.2115446,25.1273879 C22.0354684,25.1273879 20.0383462,23.5475029 20.0383462,20.8479617 C20.0383462,18.449025 21.9046842,16.603289 24.4970999,16.603289 C26.6722612,16.603289 27.7661816,17.6985922 27.7661816,17.6985922 L26.767163,19.2099218 C26.767163,19.2099218 25.8997783,18.4490884 24.6985376,18.4490884 C22.9154021,18.4490884 22.1903702,19.5565046 22.1903702,20.7784549 C22.1903702,22.3480662 23.3074933,23.2817153 24.6278841,23.2817153 C25.6259223,23.2817153 26.3508889,22.6824726 26.3508889,22.6824726 L26.3508889,22.0474618 L25.1505633,22.0474618 L25.1505633,20.3285631 L28.1940244,20.3285631 L28.1940244,24.9893256 L28.1940244,24.9893256 L28.1940244,24.9893256 Z" id="Shape"></path>
                </g>
            </g>
        </g>
    </g>
</svg>