<?xml version="1.0" encoding="UTF-8" standalone="no"?>
<svg width="40px" height="22px" viewBox="0 0 40 22" version="1.1" xmlns="http://www.w3.org/2000/svg" xmlns:xlink="http://www.w3.org/1999/xlink">
    <!-- Generator: Sketch 3.8.3 (29802) - http://www.bohemiancoding.com/sketch -->
    <title>Shape</title>
    <desc>Created with Sketch.</desc>
    <defs></defs>
    <g id="Page-1" stroke="none" stroke-width="1" fill="none" fill-rule="evenodd">
        <g id="tao-don" transform="translate(-345.000000, -1239.000000)" fill="#FF4A46">
            <g id="dvgtgt" transform="translate(345.000000, 1156.000000)">
                <path d="M14.8211765,98.3061032 C12.9748366,98.3061032 11.4827451,99.7590256 11.4827451,101.550604 C11.4827451,103.336855 12.9748366,104.789904 14.8211765,104.789904 C16.6675163,104.789904 18.1596078,103.336855 18.1596078,101.550604 C18.1595425,99.7590256 16.6675163,98.3061032 14.8211765,98.3061032 L14.8211765,98.3061032 Z M14.8211765,103.170254 C13.8979739,103.170254 13.1518954,102.441066 13.1518954,101.550477 C13.1518954,100.654815 13.8979739,99.9308268 14.8211765,99.9308268 C15.7443137,99.9308268 16.4903922,100.654815 16.4903922,101.550477 C16.4903268,102.441066 15.7443137,103.170254 14.8211765,103.170254 L14.8211765,103.170254 Z M40,95.9095739 L40,99.3684932 C40,100.231305 39.2791503,100.930813 38.3898039,100.930813 L36.6669281,100.930813 C36.3556209,98.8580361 34.5147059,97.264451 32.2926144,97.264451 C30.0760131,97.264451 28.2349673,98.8580995 27.9236601,100.930813 L19.1911765,100.930813 C18.8798693,98.8580361 17.0388889,97.264451 14.8222222,97.264451 C12.6055556,97.264451 10.7645752,98.8580995 10.4533333,100.930813 L8.29568627,100.930813 C7.40640523,100.930813 6.68555556,100.231368 6.68555556,99.3684932 L6.68555556,95.9095739 L40,95.9095739 L40,95.9095739 L40,95.9095739 Z M32.2969281,98.3061032 C30.4505882,98.3061032 28.9531373,99.7590256 28.9531373,101.550604 C28.9531373,103.336855 30.4506536,104.789904 32.2969281,104.789904 C34.1378431,104.789904 35.6352941,103.336855 35.6352941,101.550604 C35.6352941,99.7590256 34.1378431,98.3061032 32.2969281,98.3061032 L32.2969281,98.3061032 Z M32.2969281,103.170254 C31.3737255,103.170254 30.6277124,102.441066 30.6277124,101.550477 C30.6277124,100.654815 31.3737255,99.9308268 32.2969281,99.9308268 C33.2147059,99.9308268 33.9661438,100.654815 33.9661438,101.550477 C33.9661438,102.441066 33.2147059,103.170254 32.2969281,103.170254 L32.2969281,103.170254 Z M39.3655556,92.4263653 L33.0376471,86.3539614 C32.635098,85.9685659 32.0930065,85.7498348 31.5294118,85.7498348 L28.3359477,85.7498348 L28.3359477,84.5884482 C28.3359477,83.7239879 27.616732,83.0261285 26.725817,83.0261285 L8.29457516,83.0261285 C7.40895425,83.0261285 6.68444444,83.7240513 6.68444444,84.5884482 L6.68444444,84.8332444 L0.150326797,85.5639546 L11.7284967,87.0268972 L0,88.1573989 L11.6871895,89.7696925 L0,90.752936 L6.6848366,91.9762828 L6.68437908,95.0459381 L39.9988889,95.0459381 L39.9988889,93.9053528 C39.9988889,93.3480927 39.7681046,92.816961 39.3655556,92.4263653 L39.3655556,92.4263653 Z M36.6067974,92.6294319 L30.4828105,92.6294319 C30.343268,92.6294319 30.2305229,92.5200981 30.2305229,92.3846992 L30.2305229,87.7965465 C30.2305229,87.6611476 30.343268,87.5517503 30.4828105,87.5517503 L31.6475163,87.5517503 C31.7118954,87.5517503 31.7763399,87.5778154 31.8246405,87.6194815 L36.7786275,92.2076342 C36.944902,92.3586341 36.8321569,92.6294319 36.6067974,92.6294319 L36.6067974,92.6294319 Z" id="Shape"></path>
            </g>
        </g>
    </g>
</svg>