<?xml version="1.0" encoding="UTF-8" standalone="no"?>
<svg width="20px" height="20px" viewBox="0 0 20 20" version="1.1" xmlns="http://www.w3.org/2000/svg" xmlns:xlink="http://www.w3.org/1999/xlink">
    <!-- Generator: Sketch 3.8.3 (29802) - http://www.bohemiancoding.com/sketch -->
    <title>Path</title>
    <desc>Created with Sketch.</desc>
    <defs></defs>
    <g id="Page-1" stroke="none" stroke-width="1" fill="none" fill-rule="evenodd">
        <g id="tao-don" transform="translate(-370.000000, -590.000000)" fill="#320B37">
            <g id="Group-Copy-2" transform="translate(345.000000, 577.000000)">
                <path d="M39.9222222,26.2555556 C39.5333333,26.1333333 39.1,26.2222222 38.8,26.5222222 L36.3555556,28.9666667 C33.2111111,27.3666667 30.6333333,24.8 29.0333333,21.6444444 L31.4777778,19.1888889 C31.7777778,18.9 31.8666667,18.4666667 31.7444444,18.0777778 C31.3333333,16.8333333 31.1111111,15.5 31.1111111,14.1111111 C31.1111111,13.5 30.6111111,13 30,13 L26.1111111,13 C25.5,13 25,13.5 25,14.1111111 C25,24.5444444 33.4555556,33 43.8888889,33 C44.5,33 45,32.5 45,31.8888889 L45,28 C45,27.3888889 44.5,26.8888889 43.8888889,26.8888889 C42.5,26.8888889 41.1666667,26.6666667 39.9222222,26.2555556 Z" id="Path"></path>
            </g>
        </g>
    </g>
</svg>