<?xml version="1.0" encoding="UTF-8" standalone="no"?>
<svg width="59px" height="52px" viewBox="0 0 59 52" version="1.1" xmlns="http://www.w3.org/2000/svg" xmlns:xlink="http://www.w3.org/1999/xlink">
    <!-- Generator: Sketch 3.8.3 (29802) - http://www.bohemiancoding.com/sketch -->
    <title>piggy-bank-with-dollar-coins</title>
    <desc>Created with Sketch.</desc>
    <defs></defs>
    <g id="Page-1" stroke="none" stroke-width="1" fill="none" fill-rule="evenodd">
        <g id="home" transform="translate(-1081.000000, -591.000000)">
            <g id="features" transform="translate(150.000000, 501.000000)">
                <g id="1-copy-2" transform="translate(780.000000, 90.000000)">
                    <g id="piggy-bank-with-dollar-coins" transform="translate(151.000000, 0.000000)">
                        <path d="M22.0338116,16.2602549 C20.7448988,16.0368845 19.8217117,15.4867529 19.3059151,14.5658805 C18.969895,13.9787134 18.8063215,13.18245 18.8063215,12.1786335 L20.3533255,12.1786335 C20.4015488,12.9775974 20.5327162,13.5597492 20.7356399,13.9281754 C21.0971219,14.5886419 21.7714768,14.957068 22.7590903,15.0400121 L22.7590903,10.272848 C21.4952536,10.0332746 20.5608786,9.6351429 19.9575085,9.07575244 C19.3522095,8.51404726 19.0505244,7.73823056 19.0505244,6.74830234 C19.0505244,5.86215069 19.3772856,5.06550152 20.0242496,4.35179644 C20.675843,3.64272081 21.5851419,3.28123884 22.7590903,3.26773631 L22.7590903,2.10536151 L23.5900744,2.10536151 L23.5900744,3.25153328 C24.7501345,3.33447738 25.6409156,3.67512688 26.258174,4.2757965 C26.8819908,4.87878084 27.2064373,5.67311529 27.2365287,6.6607288 L25.7080425,6.6607288 C25.6644486,6.21861744 25.5467837,5.83668878 25.3488752,5.51455703 C24.9804491,4.92738994 24.3959825,4.61683179 23.5900744,4.58905516 L23.5900744,8.84775261 C24.9437993,9.22775233 25.8573418,9.58421908 26.3430471,9.91368078 C27.1327521,10.4614976 27.5239396,11.2716493 27.5239396,12.3445217 C27.5239396,13.8961551 27.0197166,14.9964182 26.0139712,15.6499406 C25.5973217,15.9169049 25.0035963,16.0943667 24.3107237,16.2278488 C26.3249151,16.2969046 28.3298477,16.6213511 30.2634097,17.2038887 C32.0889516,15.3806616 33.221235,12.8645619 33.221235,10.0818837 C33.221235,4.52964403 28.7164058,0.0294442187 23.1687955,0.0294442187 C17.6188706,0.0294442187 13.1163561,4.52964403 13.1163561,10.0818837 C13.1163561,12.9502065 14.3203958,15.5307326 16.2493284,17.3605181 C18.1227078,16.7505896 20.0701582,16.3844782 22.0338116,16.2602549 L22.0338116,16.2602549 Z" id="Shape" fill="#FF4A46"></path>
                        <path d="M21.2097716,8.0032659 C21.592086,8.33002709 22.114441,8.55802693 22.7660344,8.68687963 L22.7660344,4.57555263 C21.9971619,4.60564398 21.4470303,4.83788747 21.1202691,5.27536939 C20.7911932,5.7128513 20.6299344,6.17077991 20.6299344,6.64954099 C20.6295486,7.22513448 20.8228277,7.67419 21.2097716,8.0032659 L21.2097716,8.0032659 Z" id="Shape" fill="#D0021B"></path>
                        <path d="M25.1505809,11.1154058 C24.839637,10.8943501 24.3242262,10.684868 23.5920034,10.4869596 L23.5920034,15.0863065 C24.5888757,15.0380832 25.2748042,14.6742865 25.6544181,13.9929875 C25.8546413,13.6430791 25.9537885,13.2356885 25.9537885,12.7773742 C25.9541743,12.0455371 25.6868242,11.4954055 25.1505809,11.1154058 L25.1505809,11.1154058 Z" id="Shape" fill="#D0021B"></path>
                        <path d="M57.6357353,36.4897429 C58.8625364,35.2073885 58.9755719,32.8344156 58.7753487,29.6597783 C57.3321213,29.5606311 55.2025796,29.8025193 54.4499101,29.6597783 C52.6220536,26.0225829 49.9956189,23.1866662 46.2550328,21.4625862 C46.3815708,19.0892275 46.6994589,16.9072189 48.0713157,15.7722349 C44.7358054,15.5419204 41.9068329,17.8003147 40.1090676,19.8696736 C38.4906932,18.1915022 36.0992025,16.8539804 33.279103,15.9126612 L31.5272464,19.0294306 C26.3133415,17.2316654 20.5928989,17.2524978 15.4114001,19.0822833 L13.1256149,16.0114226 C13.1209855,16.0021637 13.1117266,15.9929048 13.1047825,15.9859607 C9.52969874,17.169168 6.24511227,19.0221006 3.68541867,21.6902002 C2.0211356,21.5636623 2.20978522,18.1888017 4.3690324,18.732375 C0.856446085,16.3381838 -1.0821312,22.9011841 2.31819123,23.7391125 C-0.515410797,27.7883278 -0.787004511,36.480484 3.00180495,39.6709386 C3.55425125,44.4635646 4.40143846,48.9637644 6.73313222,51.9817724 L14.3801927,51.9817724 C14.1799695,50.4255096 13.9774316,48.7681706 14.1521929,46.9542024 C18.7997631,48.008557 24.3176678,48.3168004 29.8537044,47.865816 C30.7078358,49.2816525 31.5341906,50.7248799 32.5561391,51.9794577 L40.131829,51.9794577 C39.8579206,49.9745251 39.5516061,47.8750748 40.099423,45.8149748 C41.9226501,45.4720106 51.29842,43.089393 57.6357353,36.4897429 L57.6357353,36.4897429 Z M47.1847783,26.3265827 C48.2252446,26.3265827 49.0654876,27.1691405 49.0654876,28.2049773 C49.0654876,29.2477583 48.2252446,30.0880013 47.1847783,30.0880013 C46.1489415,30.0880013 45.304069,29.2431288 45.304069,28.2049773 C45.3017543,27.1714552 46.1489415,26.3265827 47.1847783,26.3265827 L47.1847783,26.3265827 Z" id="Shape" fill="#330C37"></path>
                    </g>
                </g>
            </g>
        </g>
    </g>
</svg>