<?xml version="1.0" encoding="UTF-8" standalone="no"?>
<svg width="16px" height="16px" viewBox="0 0 16 16" version="1.1" xmlns="http://www.w3.org/2000/svg" xmlns:xlink="http://www.w3.org/1999/xlink">
    <!-- Generator: Sketch 3.8.3 (29802) - http://www.bohemiancoding.com/sketch -->
    <title>Fill 91</title>
    <desc>Created with Sketch.</desc>
    <defs></defs>
    <g id="Page-1" stroke="none" stroke-width="1" fill="none" fill-rule="evenodd">
        <g id="don-hang" transform="translate(-162.000000, -180.000000)" fill="#320B37">
            <g id="search" transform="translate(150.000000, 170.000000)">
                <path d="M23.4351058,20.0628931 L22.7124071,20.0628931 L22.4562607,19.8158948 C23.352773,18.7730132 23.89251,17.4190966 23.89251,15.946255 C23.89251,12.6620926 21.2304174,10 17.946255,10 C14.6620926,10 12,12.6620926 12,15.946255 C12,19.2304174 14.6620926,21.8920526 17.946255,21.8920526 C19.4190966,21.8920526 20.7730132,21.352773 21.8158948,20.4558033 L22.0628931,20.7124071 L22.0628931,21.4351058 L26.6369354,25.9995426 L28,24.636478 L23.4351058,20.0628931 L23.4351058,20.0628931 Z M17.946255,20.0628931 C15.6683819,20.0628931 13.8296169,18.2241281 13.8296169,15.946255 C13.8296169,13.6683819 15.6683819,11.8296169 17.946255,11.8296169 C20.2241281,11.8296169 22.0628931,13.6683819 22.0628931,15.946255 C22.0628931,18.2241281 20.2241281,20.0628931 17.946255,20.0628931 L17.946255,20.0628931 Z" id="Fill-91"></path>
            </g>
        </g>
    </g>
</svg>