<?xml version="1.0" encoding="UTF-8" standalone="no"?>
<svg width="100px" height="88px" viewBox="0 0 100 88" version="1.1" xmlns="http://www.w3.org/2000/svg" xmlns:xlink="http://www.w3.org/1999/xlink">
    <!-- Generator: Sketch 3.8.3 (29802) - http://www.bohemiancoding.com/sketch -->
    <title>Capa_1</title>
    <desc>Created with Sketch.</desc>
    <defs></defs>
    <g id="Page-1" stroke="none" stroke-width="1" fill="none" fill-rule="evenodd">
        <g id="home" transform="translate(-678.000000, -552.000000)">
            <g id="features" transform="translate(150.000000, 501.000000)">
                <g id="1-copy" transform="translate(390.000000, 51.000000)">
                    <g id="Capa_1" transform="translate(138.000000, 0.000000)">
                        <path d="M79.1401961,52.5165496 L77.1777778,53.5160283 L75.2151961,52.5165496 C63.5933007,46.5203115 50.2454248,37.809436 50.1759804,23.5479974 L50.1759804,16.0931292 L44.8452614,16.0931292 L44.8452614,26.2220469 L35.0187908,26.2220469 L35.0187908,16.0931292 L13.8486928,16.0931292 C6.20767974,16.0931292 0,22.1164788 0,29.5442355 L0,74.3543032 C0,81.7822184 6.20767974,87.7919329 13.8486928,87.7919329 L65.8898693,87.7919329 C73.5312092,87.7919329 79.7387255,81.7822184 79.7387255,74.3543032 L79.7387255,52.205798 C79.529902,52.3139269 79.3351307,52.4085793 79.1401961,52.5165496 L79.1401961,52.5165496 Z M16.2428105,56.4060184 L21.4761438,62.4564795 L17.7042484,62.4564795 L17.7042484,70.316276 L14.7954248,70.316276 L14.7954248,62.4564795 L11.0094771,62.4564795 L16.2428105,56.4060184 L16.2428105,56.4060184 Z M33.3903595,77.7172383 L12.5405229,77.7172383 L12.5405229,75.1646356 L33.3901961,75.1646356 L33.3903595,77.7172383 L33.3903595,77.7172383 L33.3903595,77.7172383 Z M31.1495098,62.4564795 L31.1495098,70.316276 L28.226634,70.316276 L28.226634,62.4564795 L24.4547386,62.4564795 L29.6879085,56.4060184 L34.9212418,62.4564795 C34.9214052,62.4564795 33.1954248,62.4564795 31.1495098,62.4564795 L31.1495098,62.4564795 Z" id="Shape" fill="#320B37"></path>
                        <path d="M77.1753268,0.0429661691 C71.5854575,4.296934 63.9284314,6.72888259 54.3506536,6.72888259 L54.3506536,23.5353137 C54.4022876,34.3497874 63.6354575,41.9549579 77.1753268,48.9332345 C90.7065359,41.9547993 99.9482026,34.3496289 100,23.5353137 L100,6.72856549 C90.4222222,6.72856549 82.7651961,4.29677545 77.1753268,0.0429661691 Z M77.1753268,45.1304907 L77.1753268,23.5351551 L57.795915,23.5351551 L57.795915,9.97132216 C65.3410131,9.52009811 71.8352941,7.57282693 77.1753268,4.15455902 L77.1753268,23.5351551 L96.5547386,23.5351551 C96.5117647,31.3995495 90.680719,37.9097961 77.1753268,45.1304907 Z" id="Combined-Shape" fill="#FF4A46"></path>
                    </g>
                </g>
            </g>
        </g>
    </g>
</svg>