<?xml version="1.0" encoding="UTF-8" standalone="no"?>
<svg width="18px" height="20px" viewBox="0 0 18 20" version="1.1" xmlns="http://www.w3.org/2000/svg" xmlns:xlink="http://www.w3.org/1999/xlink">
    <!-- Generator: Sketch 3.8.3 (29802) - http://www.bohemiancoding.com/sketch -->
    <title>Fill 109</title>
    <desc>Created with Sketch.</desc>
    <defs></defs>
    <g id="Page-1" stroke="none" stroke-width="1" fill="none" fill-rule="evenodd">
        <g id="don-hang" transform="translate(-1126.000000, -20.000000)" fill="#330C37">
            <g id="header">
                <g id="bell" transform="translate(1125.000000, 20.000000)">
                    <path d="M16.9704243,8.49971249 C16.9704243,5.42963574 14.840371,2.85957149 11.9702993,2.17955449 L11.9702993,1.5000375 C11.9702993,0.669516738 11.3002825,0 10.4702618,0 C9.64024101,0 8.97022426,0.669516738 8.97022426,1.5000375 L8.97022426,2.17955449 C6.1001525,2.85957149 3.97009925,5.42963574 3.97009925,8.49971249 L3.97009925,13.99985 L1.97004925,15.9999 L1.97004925,16.999925 L18.9704743,16.999925 L18.9704743,15.9999 L16.9704243,13.99985 L16.9704243,8.49971249 L16.9704243,8.49971249 Z M10.4702618,20 C10.6102653,20 10.7402685,19.9899997 10.8702718,19.959999 C11.520288,19.8299957 12.0603015,19.3799845 12.3103078,18.7799695 C12.4103103,18.5399635 12.4703118,18.279957 12.4703118,17.99995 L8.47021176,17.99995 C8.47021176,19.0999775 9.37023426,20 10.4702618,20 L10.4702618,20 Z" id="Fill-109"></path>
                </g>
            </g>
        </g>
    </g>
</svg>