<?xml version="1.0" encoding="UTF-8" standalone="no"?>
<svg width="20px" height="20px" viewBox="0 0 20 20" version="1.1" xmlns="http://www.w3.org/2000/svg" xmlns:xlink="http://www.w3.org/1999/xlink">
    <!-- Generator: Sketch 3.8.3 (29802) - http://www.bohemiancoding.com/sketch -->
    <title>Shape</title>
    <desc>Created with Sketch.</desc>
    <defs></defs>
    <g id="Page-1" stroke="none" stroke-width="1" fill="none" fill-rule="evenodd">
        <g id="don-hang" transform="translate(-1008.000000, -20.000000)" fill="#330C37">
            <g id="header">
                <path d="M1025.77778,20 L1010.22222,20 C1009,20 1008,21 1008,22.2222222 L1008,37.7777778 C1008,39 1009,40 1010.22222,40 L1025.77778,40 C1027,40 1028,39 1028,37.7777778 L1028,22.2222222 C1028,21 1027,20 1025.77778,20 L1025.77778,20 Z M1014.66667,35.5555556 L1012.44444,35.5555556 L1012.44444,27.7777778 L1014.66667,27.7777778 L1014.66667,35.5555556 L1014.66667,35.5555556 Z M1019.11111,35.5555556 L1016.88889,35.5555556 L1016.88889,24.4444444 L1019.11111,24.4444444 L1019.11111,35.5555556 L1019.11111,35.5555556 Z M1023.55556,35.5555556 L1021.33333,35.5555556 L1021.33333,31.1111111 L1023.55556,31.1111111 L1023.55556,35.5555556 L1023.55556,35.5555556 Z" id="Shape"></path>
            </g>
        </g>
    </g>
</svg>