<?xml version="1.0" encoding="UTF-8" standalone="no"?>
<svg width="60px" height="60px" viewBox="0 0 60 60" version="1.1" xmlns="http://www.w3.org/2000/svg" xmlns:xlink="http://www.w3.org/1999/xlink">
    <!-- Generator: Sketch 3.8.3 (29802) - http://www.bohemiancoding.com/sketch -->
    <title>Capa_1</title>
    <desc>Created with Sketch.</desc>
    <defs></defs>
    <g id="Page-1" stroke="none" stroke-width="1" fill="none" fill-rule="evenodd">
        <g id="home" transform="translate(-301.000000, -591.000000)">
            <g id="features" transform="translate(150.000000, 501.000000)">
                <g id="1" transform="translate(0.000000, 90.000000)">
                    <g id="Capa_1" transform="translate(151.000000, 0.000000)">
                        <path d="M57.7372516,36.6395261 C56.4891262,48.7295274 46.3069118,58.4467876 33.7314099,59.5584738 C18.8657864,60.8726658 6.1896521,50.3573745 4.71928417,36.6901282 L2.09939638,36.6901282 C0.506607575,36.6901282 -0.488872763,35.0310814 0.307673654,33.7041169 L6.16705289,23.9422996 C6.96349796,22.6154326 8.95425596,22.6155301 9.75059969,23.9423971 L15.6088642,33.7042144 C16.4052079,35.0312764 15.4097276,36.6901282 13.8170401,36.6901282 L11.5362419,36.6901282 C13.0179601,46.8942995 22.8922981,54.5473061 34.2136955,52.9508538 C42.5913167,51.7696507 49.38679,45.4106538 50.8107434,37.3805202 C52.9420624,25.3616933 43.3287808,14.901294 31.2243155,14.901294 C27.2989429,14.901294 23.5102803,15.9969903 20.2557903,18.0718713 C18.7453924,19.0347736 16.6516711,18.8442601 15.5436001,17.4651336 C14.3371261,15.9634505 14.7138135,13.8197351 16.3226143,12.7745434 C19.8143455,10.5051514 23.7727555,9.08692772 27.9199653,8.59309415 L27.9199653,4.89290108 L25.205627,4.89290108 C24.2717625,4.89290108 23.514638,4.16458187 23.514638,3.26602902 L23.514638,1.62687206 C23.514638,0.728319207 24.2716611,0 25.205627,0 L37.7933913,0 C38.7272558,0 39.4843803,0.728319207 39.4843803,1.62687206 L39.4843803,3.26602902 C39.4843803,4.16448438 38.7273572,4.89290108 37.7933913,4.89290108 L34.803606,4.89290108 L34.803606,8.63170384 C48.6724317,10.432027 59.1939384,22.5283658 57.7372516,36.6395261 L57.7372516,36.6395261 Z M58.6130473,12.0182419 L53.5143395,7.48404047 C52.8284583,6.87418282 51.7586944,6.914645 51.1247002,7.57442225 L49.7759424,8.97831359 C49.1419482,9.63809084 49.184005,10.6673902 49.8698862,11.2773453 L54.968594,15.8114492 C55.6544752,16.4212094 56.7242391,16.3808447 57.3582333,15.7210675 L58.7069911,14.3171761 C59.3409853,13.6573989 59.2989285,12.6280996 58.6130473,12.0182419 L58.6130473,12.0182419 Z" id="Shape" fill="#330C37"></path>
                        <path d="M31.1441542,34.1571958 L43.4999996,41.9999996 C50.9999996,30.1229535 39.8760663,18.2459074 31.1441542,18.2459074 L31.1441542,34.1571958 Z" id="Path" fill="#FF4A46"></path>
                    </g>
                </g>
            </g>
        </g>
    </g>
</svg>