<?xml version="1.0" encoding="UTF-8" standalone="no"?>
<svg width="77px" height="50px" viewBox="0 0 77 50" version="1.1" xmlns="http://www.w3.org/2000/svg" xmlns:xlink="http://www.w3.org/1999/xlink">
    <!-- Generator: Sketch 3.8.3 (29802) - http://www.bohemiancoding.com/sketch -->
    <title>Shape</title>
    <desc>Created with Sketch.</desc>
    <defs></defs>
    <g id="Page-1" stroke="none" stroke-width="1" fill="none" fill-rule="evenodd">
        <g id="tao-don" transform="translate(-871.000000, -215.000000)" fill="#320B37">
            <g id="type" transform="translate(345.000000, 200.000000)">
                <g id="delivery-truck-1" transform="translate(526.000000, 15.000000)">
                    <g id="Capa_1">
                        <path d="M76.5399264,27.6163397 L76.5399264,24.9944178 C76.5399264,23.7162218 76.0130265,22.4911777 75.076538,21.592084 L60.5449577,7.64162941 C59.621476,6.75503488 58.3748257,6.25785751 57.0757731,6.25785751 L49.7441986,6.25785751 L49.7441986,3.5895793 C49.7441986,1.60718013 48.0879597,1.77635684e-15 46.0447689,1.77635684e-15 L3.69942978,1.77635684e-15 C1.65623896,5.1847377e-17 0,1.60705878 0,3.5895793 L0,27.6163397 L76.5399264,27.6163397 L76.5399264,27.6163397 Z M54.0970943,10.959988 C54.0970943,10.6489639 54.3561044,10.3976448 54.6767717,10.3976448 L57.3526675,10.3976448 C57.5007448,10.3976448 57.6485719,10.4575925 57.7595047,10.5532175 L69.1411919,21.0944212 C69.5235163,21.4414867 69.2645062,22.0636562 68.7467361,22.0636562 L54.6768967,22.0636562 C54.3563545,22.0636562 54.0972193,21.8124584 54.0972193,21.501313 L54.0972193,10.959988 L54.0970943,10.959988 Z M76.5399264,29.5995884 L76.5399264,37.546417 C76.5399264,39.5288161 74.8836874,41.1357536 72.8406217,41.1357536 L68.8823069,41.1357536 C68.1670587,36.3736754 63.9373524,32.7124987 58.8324394,32.7124987 C53.7396578,32.7124987 49.5100765,36.3736754 48.7948284,41.1357536 L28.7318627,41.1357536 C28.0167397,36.3736754 23.7870333,32.7124987 18.6942517,32.7124987 C13.6014701,32.7124987 9.3717637,36.3736754 8.65664066,41.1357536 L3.69942978,41.1357536 C1.65623896,41.1358749 0,39.5289375 0,37.5465383 L0,29.5997097 L76.5399264,29.5997097 L76.5399264,29.5995884 Z M58.8376922,35.110163 C54.6001067,35.110163 51.1648147,38.4433264 51.1648147,42.5550815 C51.1648147,46.6668366 54.6002317,50 58.8376922,50 C63.0751526,50 66.5104446,46.6668366 66.5104446,42.5550815 C66.5104446,38.4433264 63.0752777,35.110163 58.8376922,35.110163 L58.8376922,35.110163 Z M58.8376922,46.2776621 C56.7189619,46.2776621 55.001316,44.6110197 55.001316,42.5550815 C55.001316,40.4991433 56.7187118,38.8327436 58.8376922,38.8327436 C60.9564224,38.8327436 62.6741934,40.4991433 62.6741934,42.5550815 C62.6741934,44.6110197 60.9564224,46.2776621 58.8376922,46.2776621 L58.8376922,46.2776621 Z M18.6927509,35.110163 C14.4551654,35.110163 11.0199985,38.4433264 11.0199985,42.5550815 C11.0199985,46.6668366 14.4552905,50 18.6927509,50 C22.9302113,50 26.3655033,46.6668366 26.3655033,42.5550815 C26.3655033,38.4433264 22.9302113,35.110163 18.6927509,35.110163 L18.6927509,35.110163 Z M18.6927509,46.2776621 C16.5740207,46.2776621 14.8562496,44.6110197 14.8562496,42.5550815 C14.8562496,40.4991433 16.5738956,38.8327436 18.6927509,38.8327436 C20.8114811,38.8327436 22.5291271,40.4991433 22.5291271,42.5550815 C22.5291271,44.6110197 20.8114811,46.2776621 18.6927509,46.2776621 L18.6927509,46.2776621 Z" id="Shape"></path>
                    </g>
                </g>
            </g>
        </g>
    </g>
</svg>